<svg width="20" height="23" viewBox="0 0 20 23" fill="none" xmlns="http://www.w3.org/2000/svg">
<path d="M11.0321 22.0397C11.0001 22.022 10.9689 22.0026 10.9359 21.9868C10.8292 21.9354 10.7861 21.8354 10.7639 21.7359C10.7412 21.6345 10.7846 21.5365 10.86 21.4608C11.0072 21.313 11.1579 21.1685 11.3068 21.0223C11.3288 21.0008 11.3492 20.9778 11.3669 20.9457C11.2244 20.9439 11.0847 20.9158 10.9454 20.9549C10.9179 20.9626 10.8878 20.9638 10.859 20.9638C10.4435 20.9644 10.0279 20.9685 9.61258 20.9619C9.46566 20.9596 9.31917 20.9307 9.17248 20.9141C9.15641 20.9122 9.14031 20.9107 9.12421 20.9093C9.01229 20.8993 8.8992 20.8961 8.7887 20.8779C8.6066 20.8479 8.42594 20.8092 8.24513 20.7721C8.06683 20.7356 7.88843 20.699 7.71127 20.6575C7.6057 20.6327 7.50171 20.6008 7.39832 20.5681C7.20366 20.5066 7.0087 20.4455 6.81624 20.3777C6.69253 20.3341 6.57278 20.2797 6.45178 20.2288C6.30995 20.1693 6.16674 20.1123 6.02777 20.0468C5.89413 19.9839 5.76362 19.9141 5.63445 19.8426C5.46967 19.7515 5.30662 19.6572 5.14468 19.5613C4.99929 19.4751 4.85359 19.389 4.7133 19.2953C4.58605 19.2104 4.46532 19.116 4.3428 19.0244C4.22517 18.9365 4.10895 18.8467 3.9921 18.7577C3.98187 18.7499 3.97106 18.7427 3.96166 18.734C3.79441 18.5801 3.62574 18.4275 3.46067 18.2714C3.32096 18.1392 3.18206 18.0059 3.04914 17.8672C2.94354 17.757 2.84738 17.6382 2.74731 17.523C2.68893 17.4557 2.62946 17.3893 2.57348 17.3202C2.50336 17.2337 2.43306 17.147 2.36864 17.0564C2.23085 16.8627 2.08823 16.6715 1.96338 16.4699C1.80841 16.2196 1.65175 15.9695 1.52544 15.7031C1.4374 15.5175 1.33894 15.3361 1.25977 15.147C1.15427 14.895 1.0553 14.6397 0.96782 14.3812C0.889756 14.1504 0.828199 13.9142 0.765248 13.6788C0.73704 13.5734 0.724546 13.464 0.702537 13.3569C0.677429 13.2346 0.648356 13.1132 0.623512 12.9909C0.609793 12.9233 0.600062 12.8549 0.590547 12.7866C0.580144 12.712 0.568779 12.6373 0.563589 12.5622C0.551407 12.3863 0.543166 12.2101 0.532065 12.0341C0.530119 12.0032 0.548476 11.9589 0.490234 11.9553V10.9449C0.528606 10.9485 0.531465 10.9225 0.531873 10.8959C0.532642 10.8451 0.531249 10.7942 0.532786 10.7434C0.534781 10.6778 0.520076 10.6099 0.558808 10.5486C0.563373 10.5413 0.561378 10.53 0.562051 10.5205C0.571278 10.3918 0.578005 10.2627 0.590211 10.1342C0.604843 9.98026 0.728294 9.82072 0.887474 9.79241C1.02729 9.76756 1.14391 9.80782 1.22404 9.89392C1.3018 9.97744 1.3621 10.0941 1.30569 10.2235C1.30194 10.2321 1.29947 10.2415 1.29822 10.2507C1.28856 10.3222 1.27539 10.3935 1.27073 10.4654C1.25891 10.6478 1.25122 10.8304 1.24142 11.013C1.23207 11.1869 1.21052 11.3612 1.21551 11.5347C1.22145 11.7402 1.24322 11.9451 1.24514 12.1514C1.24627 12.2726 1.27984 12.3933 1.29555 12.5147C1.30845 12.6143 1.31333 12.715 1.32777 12.8143C1.33897 12.8914 1.35963 12.9671 1.3757 13.0435C1.38726 13.0985 1.40031 13.1533 1.40898 13.2087C1.43952 13.4036 1.49742 13.5917 1.5467 13.7824C1.62131 14.0709 1.71967 14.3506 1.82739 14.628C1.96004 14.9698 2.11538 15.3019 2.29433 15.6218C2.44532 15.8918 2.61504 16.1523 2.78717 16.4101C2.89772 16.5756 3.02574 16.7302 3.1495 16.8871C3.2599 17.0269 3.37507 17.1631 3.48864 17.3006C3.50287 17.3178 3.51995 17.3328 3.53602 17.3485C3.77014 17.5776 4.00212 17.8089 4.23968 18.0346C4.32464 18.1153 4.4231 18.1825 4.51561 18.2555C4.56803 18.297 4.62005 18.3389 4.6737 18.3788C4.78365 18.4604 4.89326 18.5425 5.00542 18.6212C5.1252 18.7052 5.24694 18.7866 5.36919 18.8671C5.68289 19.0737 6.01655 19.2458 6.35608 19.4072C6.51252 19.4816 6.66752 19.5603 6.82883 19.6231C7.04582 19.7076 7.26625 19.7849 7.48898 19.8535C7.69912 19.9183 7.91363 19.9699 8.12728 20.0232C8.25373 20.0548 8.38204 20.0795 8.50986 20.1057C8.64696 20.1337 8.78387 20.1637 8.92205 20.1855C9.02315 20.2015 9.12635 20.2047 9.22837 20.2155C9.30155 20.2233 9.37419 20.2364 9.44742 20.2436C9.52078 20.2508 9.59605 20.2322 9.66794 20.2653C9.68961 20.2754 9.71907 20.2703 9.74495 20.2703C10.0729 20.2706 10.4012 20.2787 10.7286 20.2665C10.8599 20.2616 10.992 20.2482 11.124 20.2412C11.2158 20.2364 11.3066 20.215 11.3996 20.2007C11.4155 20.162 11.3794 20.1462 11.3584 20.1254C11.1984 19.9675 11.0394 19.8085 10.8758 19.6543C10.8089 19.5912 10.779 19.5128 10.7602 19.4306C10.7407 19.3454 10.8196 19.1661 10.9233 19.107C11.1008 19.0057 11.279 19.0473 11.4069 19.1734C11.782 19.5432 12.1603 19.9097 12.5354 20.2795C12.6795 20.4217 12.6855 20.5449 12.6195 20.6932C12.5849 20.7709 12.5111 20.8342 12.4473 20.8965C12.3327 21.0081 12.2094 21.1113 12.0949 21.223C11.9234 21.3902 11.7563 21.5616 11.5875 21.7313C11.5379 21.7812 11.4863 21.8294 11.4401 21.8821C11.3762 21.9551 11.2956 22.0021 11.2075 22.0397H11.0321L11.0321 22.0397Z" fill="#EF8018"/>
<path d="M10.2523 17.9451C9.9828 17.9451 9.71324 17.9479 9.44378 17.944C9.28054 17.9417 9.1383 17.8787 9.01331 17.7766C8.88527 17.672 8.80204 17.5385 8.75867 17.3834C8.73608 17.3026 8.72693 17.2174 8.71931 17.1336C8.70646 16.9924 8.711 16.8486 8.68579 16.7099C8.67212 16.6347 8.66415 16.5611 8.66153 16.4858C8.659 16.4126 8.60895 16.3701 8.55095 16.3412C8.45658 16.2942 8.35898 16.253 8.26088 16.2138C8.14833 16.1688 8.02983 16.1365 7.9214 16.0839C7.84679 16.0477 7.79737 16.0748 7.74631 16.114C7.60434 16.2228 7.4645 16.3344 7.3236 16.4446C7.22822 16.5193 7.13588 16.5982 7.03602 16.6666C6.9348 16.736 6.81735 16.7701 6.694 16.7814C6.56341 16.7933 6.43417 16.7804 6.3174 16.7225C6.23213 16.6803 6.14645 16.6293 6.07869 16.5644C5.72595 16.2268 5.37657 15.8856 5.03078 15.5412C4.84774 15.3588 4.77652 15.1312 4.8153 14.8809C4.83575 14.749 4.89303 14.6235 4.98524 14.5181C5.08174 14.4077 5.17645 14.2958 5.27061 14.1835C5.34832 14.0908 5.42691 13.9986 5.4995 13.9021C5.53777 13.8512 5.55802 13.7966 5.5252 13.7263C5.43474 13.5322 5.35437 13.3336 5.26819 13.1376C5.2302 13.0512 5.16497 13.0166 5.064 13.0094C4.90788 12.9982 4.74956 12.9989 4.59553 12.9621C4.56162 12.954 4.52445 12.9588 4.4888 12.9579C4.29252 12.953 4.10657 12.9135 3.94197 12.8022C3.80741 12.7113 3.71541 12.5853 3.65619 12.4402C3.62858 12.3726 3.62341 12.2928 3.62301 12.2185C3.62032 11.7102 3.62099 11.202 3.62188 10.6937C3.62219 10.5155 3.69624 10.3663 3.81371 10.2332C3.91691 10.1163 4.04961 10.0485 4.19593 10.003C4.25348 9.98508 4.31419 9.97324 4.37431 9.96783C4.51845 9.95484 4.66319 9.94819 4.80754 9.93727C4.91648 9.92902 5.02592 9.92275 5.13373 9.90659C5.19327 9.89766 5.23657 9.85338 5.26268 9.79986C5.30987 9.70328 5.35581 9.606 5.3988 9.50756C5.44147 9.40986 5.47323 9.30707 5.52215 9.21263C5.56317 9.13342 5.54123 9.07252 5.4925 9.01252C5.37809 8.87166 5.26184 8.73223 5.14656 8.59205C5.07181 8.50115 4.98998 8.41475 4.92491 8.31763C4.8505 8.20655 4.81597 8.0808 4.80922 7.94484C4.79723 7.70277 4.90002 7.51142 5.06658 7.34683C5.39781 7.01951 5.73124 6.6943 6.06519 6.36965C6.18189 6.2562 6.32372 6.17297 6.48347 6.14774C6.71022 6.11193 6.92742 6.15784 7.11176 6.30265C7.28045 6.43517 7.44475 6.57305 7.61282 6.70635C7.67522 6.75582 7.74153 6.80095 7.80885 6.84385C7.82791 6.856 7.86107 6.86356 7.88058 6.85586C8.0978 6.77016 8.3139 6.68173 8.52967 6.59255C8.62263 6.55414 8.65833 6.48704 8.66549 6.38469C8.67621 6.23198 8.68003 6.07752 8.71453 5.9266C8.72217 5.89319 8.71756 5.85706 8.71825 5.82217C8.72138 5.6631 8.75242 5.51085 8.83097 5.36963C8.92419 5.20196 9.06131 5.0809 9.24291 5.01404C9.30742 4.99029 9.38078 4.98028 9.45019 4.97993C9.98273 4.97723 10.5153 4.97641 11.0478 4.97963C11.2177 4.98066 11.365 5.04679 11.494 5.15613C11.618 5.26119 11.6924 5.395 11.7416 5.54392C11.7592 5.59732 11.7682 5.65436 11.7738 5.71044C11.7871 5.84184 11.7962 5.97365 11.8066 6.10531C11.8161 6.22451 11.8168 6.34529 11.8389 6.46219C11.8473 6.50678 11.897 6.55555 11.941 6.57972C12.0388 6.63359 12.1437 6.67616 12.248 6.71777C12.3576 6.76144 12.4739 6.79052 12.5795 6.84143C12.6514 6.87606 12.6995 6.84907 12.7464 6.8127C12.8655 6.72044 12.9789 6.62116 13.0974 6.52816C13.2203 6.43174 13.3446 6.33692 13.4721 6.24669C13.5125 6.21814 13.5644 6.20367 13.6127 6.1877C13.8665 6.10378 14.1063 6.12001 14.322 6.28945C14.3872 6.34061 14.4531 6.39176 14.5122 6.4492C14.8281 6.75564 15.1422 7.06375 15.4563 7.37192C15.5725 7.48586 15.653 7.62468 15.6809 7.77992C15.7027 7.90183 15.6967 8.02984 15.6524 8.15346C15.5987 8.30301 15.5026 8.42287 15.4007 8.54118C15.3303 8.62296 15.2649 8.70878 15.1958 8.79169C15.1387 8.86024 15.0822 8.92954 15.0207 8.9942C14.9601 9.05793 14.9356 9.12071 14.9753 9.2073C15.0619 9.39625 15.1408 9.58859 15.2241 9.779C15.2654 9.87344 15.3372 9.90753 15.4452 9.91453C15.5948 9.92425 15.7468 9.92454 15.8945 9.96046C15.9284 9.9687 15.9655 9.96497 16.0011 9.96558C16.1941 9.96889 16.3799 10.003 16.5404 10.113C16.6945 10.2186 16.8062 10.3545 16.8519 10.5418C16.8696 10.6143 16.8756 10.6838 16.8757 10.7556C16.8764 11.248 16.8767 11.7404 16.8757 12.2328C16.8754 12.4074 16.8015 12.554 16.6881 12.6848C16.5841 12.8047 16.4491 12.8758 16.2988 12.9211C16.241 12.9385 16.1802 12.9498 16.12 12.9555C15.9824 12.9684 15.8441 12.9756 15.7062 12.9861C15.5908 12.9949 15.475 13.0008 15.3605 13.0162C15.2998 13.0244 15.2596 13.0721 15.234 13.1248C15.1883 13.2187 15.1442 13.3135 15.1039 13.4097C15.0579 13.5196 15.025 13.6356 14.9707 13.7413C14.9321 13.8163 14.9668 13.8632 15.0059 13.9119C15.1213 14.0558 15.2404 14.1968 15.3574 14.3394C15.4319 14.4303 15.5113 14.5181 15.5774 14.6146C15.6437 14.7114 15.6757 14.8235 15.687 14.9406C15.6993 15.0686 15.6823 15.1939 15.6264 15.3083C15.5868 15.3895 15.5352 15.4701 15.4712 15.534C15.1236 15.8812 14.7727 16.2253 14.4183 16.5658C14.2322 16.7446 14.0002 16.816 13.7443 16.7772C13.6128 16.7572 13.486 16.7052 13.3795 16.6175C13.2188 16.4854 13.0566 16.355 12.8933 16.2259C12.8285 16.1746 12.7589 16.1291 12.6919 16.0804C12.6594 16.0567 12.6282 16.0593 12.5918 16.0742C12.4554 16.1299 12.3175 16.1819 12.181 16.2373C12.107 16.2673 12.0343 16.3005 11.9616 16.3335C11.8748 16.3729 11.8308 16.4332 11.8313 16.5338C11.8319 16.6657 11.8274 16.8 11.8017 16.9288C11.7841 17.0172 11.7859 17.1042 11.7754 17.1914C11.7362 17.5168 11.5872 17.7716 11.2658 17.9026C11.1996 17.9295 11.123 17.942 11.0509 17.9432C10.7847 17.9479 10.5184 17.9451 10.2522 17.9451L10.2523 17.9451ZM11.0072 17.2202C11.0111 17.1751 11.0076 17.1389 11.0181 17.107C11.06 16.9799 11.0404 16.8463 11.067 16.7169C11.0915 16.5976 11.0887 16.473 11.0981 16.3508C11.0985 16.3445 11.099 16.338 11.1009 16.332C11.1342 16.2272 11.1724 16.1248 11.2283 16.0285C11.3049 15.8968 11.4046 15.7871 11.5442 15.7216C11.7119 15.643 11.8835 15.572 12.0555 15.5028C12.1885 15.4493 12.3152 15.3844 12.4617 15.3583C12.6161 15.3308 12.7606 15.3429 12.908 15.3806C13.0794 15.4244 13.2078 15.5373 13.3412 15.6401C13.4731 15.7416 13.5972 15.8529 13.7265 15.9577C13.77 15.9929 13.819 16.0215 13.8596 16.0492C14.2231 15.6963 14.5823 15.3476 14.945 14.9956C14.821 14.8444 14.698 14.6949 14.5754 14.545C14.5032 14.4566 14.4315 14.3678 14.3599 14.2788C14.2738 14.1717 14.2351 14.0422 14.2169 13.9137C14.1905 13.7269 14.23 13.5446 14.3132 13.3717C14.3773 13.2383 14.439 13.1031 14.4919 12.9652C14.5639 12.7775 14.6497 12.6039 14.8246 12.483C14.9805 12.3752 15.1446 12.2974 15.3389 12.2933C15.3648 12.2928 15.3925 12.2958 15.4161 12.2879C15.5462 12.2444 15.6841 12.2716 15.8166 12.2409C15.918 12.2174 16.0248 12.2167 16.1329 12.2055V10.715C16.0163 10.7048 15.9052 10.6949 15.794 10.6852C15.7779 10.6838 15.7615 10.6842 15.7455 10.6821C15.6187 10.665 15.4924 10.6441 15.3651 10.6317C15.2982 10.6251 15.2325 10.6221 15.1655 10.6062C14.9938 10.5655 14.8491 10.477 14.7246 10.3636C14.618 10.2665 14.5594 10.1312 14.5015 10.0011C14.4375 9.85749 14.3893 9.70685 14.3195 9.56622C14.2695 9.46532 14.2357 9.35958 14.2184 9.25337C14.1913 9.0872 14.2183 8.92123 14.2901 8.7654C14.3327 8.67293 14.3907 8.59144 14.4609 8.51572C14.5342 8.43662 14.5957 8.3472 14.6646 8.26406C14.7575 8.15193 14.8526 8.04147 14.9501 7.92633C14.5838 7.56931 14.2236 7.21833 13.8608 6.86474C13.7773 6.93336 13.7017 6.99641 13.625 7.05829C13.5329 7.1326 13.4409 7.20712 13.3471 7.27929C13.2635 7.34354 13.1816 7.4112 13.0914 7.46533C13.01 7.51422 12.9164 7.53741 12.8219 7.56092C12.6413 7.60584 12.4701 7.58484 12.3027 7.52235C12.1289 7.45744 11.9614 7.37629 11.7876 7.31112C11.59 7.23698 11.4031 7.15236 11.2805 6.97196C11.1816 6.8264 11.1016 6.67454 11.0974 6.49444C11.0968 6.46595 11.1037 6.43294 11.0915 6.40989C11.0593 6.34881 11.0767 6.28515 11.0697 6.22303C11.0623 6.15786 11.0484 6.09337 11.0414 6.02818C11.0301 5.92282 11.0221 5.8171 11.013 5.71516C10.9117 5.69186 9.56398 5.69376 9.4814 5.71723C9.47275 5.82955 9.46384 5.94499 9.45497 6.06046C9.45425 6.06995 9.45641 6.08052 9.45288 6.08884C9.40218 6.2079 9.42251 6.33702 9.40471 6.46047C9.38505 6.59683 9.35788 6.725 9.29498 6.84721C9.20656 7.01897 9.08101 7.15288 8.89764 7.23014C8.75045 7.29217 8.60569 7.36032 8.45605 7.41597C8.32438 7.46493 8.20045 7.52998 8.05955 7.56123C7.84744 7.60826 7.64968 7.58068 7.45974 7.49277C7.28038 7.40975 7.14441 7.26517 6.98867 7.14867C6.86901 7.05916 6.75563 6.96164 6.64811 6.8747C6.28203 7.23113 5.92167 7.58195 5.55413 7.93982C5.61689 8.01058 5.68414 8.08258 5.747 8.15811C5.85082 8.28281 5.94649 8.41437 6.05538 8.53456C6.17944 8.67143 6.25428 8.83071 6.27867 9.00641C6.30457 9.19292 6.26985 9.376 6.18597 9.54917C6.12139 9.68251 6.05848 9.81724 6.00608 9.95543C5.93354 10.1468 5.84474 10.3224 5.66747 10.4451C5.51708 10.5492 5.35793 10.6232 5.17117 10.6301C5.14522 10.6311 5.11811 10.627 5.09349 10.6329C4.9399 10.6702 4.78183 10.6674 4.62618 10.6856C4.53834 10.6959 4.45091 10.7093 4.36633 10.7209C4.34536 10.8725 4.35283 12.136 4.37681 12.2112C4.48755 12.2202 4.60228 12.2294 4.71698 12.2389C4.72986 12.2399 4.74262 12.2422 4.75545 12.2438C4.89209 12.2604 5.02837 12.2831 5.16557 12.2912C5.2475 12.2959 5.32568 12.3096 5.39964 12.339C5.50668 12.3816 5.60778 12.432 5.70041 12.5058C5.80147 12.5863 5.87624 12.6802 5.92862 12.7924C5.99512 12.9347 6.05716 13.0793 6.1154 13.2251C6.1667 13.3535 6.2333 13.4744 6.26327 13.6132C6.31269 13.8419 6.27691 14.0552 6.15832 14.2483C6.06961 14.3928 5.94899 14.5187 5.84039 14.6511C5.74594 14.7663 5.64844 14.8791 5.54849 14.9976C5.9135 15.3541 6.27338 15.7056 6.63513 16.059C6.66526 16.0321 6.68782 16.0093 6.7131 15.9898C6.83686 15.8946 6.96185 15.8009 7.08538 15.7054C7.18617 15.6275 7.28081 15.541 7.38677 15.4707C7.50768 15.3904 7.64826 15.3544 7.79374 15.3413C7.98968 15.3238 8.1684 15.3819 8.34336 15.4603C8.46614 15.5154 8.59036 15.5679 8.71648 15.615C8.911 15.6877 9.0932 15.7738 9.21557 15.9503C9.28313 16.0477 9.34204 16.1486 9.36946 16.2629C9.39411 16.3657 9.41288 16.4705 9.42535 16.5754C9.4402 16.7003 9.44378 16.8265 9.45562 16.9518C9.46405 17.0411 9.47809 17.1298 9.48983 17.2203H11.0071L11.0072 17.2202Z" fill="#EF8018"/>
<path d="M9.13048 1.94233C9.15367 1.94853 9.16804 1.95626 9.1819 1.95548C9.30074 1.94883 9.422 1.97731 9.53836 1.93213C9.5498 1.92769 9.56407 1.92955 9.57702 1.92955C10.0248 1.92943 10.4727 1.92553 10.9204 1.9318C11.054 1.93368 11.1871 1.96406 11.3205 1.98125C11.3334 1.9829 11.3463 1.98365 11.3593 1.98471C11.4714 1.99385 11.5844 1.99704 11.6953 2.01353C11.8371 2.03461 11.9771 2.06679 12.118 2.09346C12.2718 2.12256 12.4264 2.14777 12.5794 2.18059C12.6823 2.20265 12.7833 2.2334 12.8843 2.2631C13.0683 2.3172 13.2545 2.36597 13.4348 2.43044C13.7396 2.53947 14.0459 2.64612 14.3363 2.79046C14.4338 2.83893 14.538 2.87492 14.6338 2.92628C14.8281 3.03044 15.0207 3.13802 15.2103 3.25008C15.43 3.37985 15.6471 3.51381 15.8625 3.65035C15.9543 3.70859 16.0394 3.77709 16.1263 3.84254C16.2513 3.93668 16.3752 4.03227 16.4995 4.12725C16.5046 4.13115 16.5096 4.13522 16.5144 4.13956C16.7005 4.31073 16.8878 4.48075 17.0722 4.65366C17.1705 4.74575 17.2625 4.84423 17.3598 4.93731C17.5058 5.07683 17.6378 5.2278 17.7628 5.38534C17.8516 5.49724 17.9499 5.60192 18.038 5.71433C18.122 5.82153 18.2022 5.93204 18.277 6.04556C18.4096 6.24685 18.532 6.45466 18.6676 6.65395C18.8525 6.92581 18.9903 7.22199 19.1332 7.51447C19.2906 7.83672 19.4146 8.17396 19.5305 8.51287C19.5963 8.70504 19.649 8.90163 19.7027 9.09753C19.7291 9.19378 19.7433 9.29318 19.7646 9.39077C19.7907 9.50943 19.8217 9.62711 19.8445 9.74634C19.8609 9.83239 19.8658 9.92047 19.8786 10.0072C19.8947 10.1157 19.9136 10.2238 19.9313 10.332C19.9323 10.3382 19.9337 10.3445 19.9341 10.3508C19.9436 10.4955 19.9506 10.6404 19.9626 10.7849C19.9916 11.1334 19.9798 11.4825 19.9799 11.8314C19.9799 11.9769 19.9732 12.1229 19.9603 12.2678C19.9497 12.386 19.9232 12.5027 19.9079 12.6205C19.8978 12.6983 19.9067 12.7761 19.881 12.8547C19.8348 12.9958 19.7225 13.0847 19.5738 13.0994C19.3332 13.1233 19.222 12.9665 19.1728 12.7951C19.1702 12.7861 19.1696 12.7759 19.1708 12.7667C19.1827 12.6734 19.1948 12.5802 19.2078 12.4871C19.2129 12.45 19.2229 12.4134 19.2264 12.3762C19.2371 12.2635 19.2471 12.1508 19.2547 12.0379C19.2621 11.9273 19.2649 11.8163 19.2723 11.7057C19.285 11.5153 19.292 11.326 19.2628 11.1357C19.2484 11.0423 19.2602 10.9454 19.2543 10.8504C19.2446 10.6941 19.2337 10.538 19.2018 10.3837C19.1847 10.3009 19.1828 10.2152 19.1698 10.1314C19.1561 10.0423 19.1377 9.95389 19.1211 9.86521C19.1101 9.80643 19.096 9.74807 19.0881 9.6889C19.0619 9.49273 18.9993 9.30516 18.953 9.1137C18.8784 8.80547 18.7549 8.51379 18.6564 8.21381C18.6338 8.14509 18.6028 8.07846 18.57 8.01362C18.4111 7.70009 18.2614 7.38138 18.0867 7.07642C17.9407 6.82169 17.7671 6.58192 17.601 6.33859C17.5086 6.20306 17.4099 6.07119 17.3077 5.94252C17.2366 5.85315 17.1511 5.7749 17.0783 5.68671C16.8412 5.39922 16.5573 5.15622 16.293 4.89472C16.1912 4.794 16.0735 4.70854 15.9614 4.61802C15.8546 4.53175 15.7485 4.44427 15.6371 4.36399C15.5052 4.26901 15.37 4.17804 15.2325 4.09103C15.0436 3.9715 14.8518 3.85633 14.6599 3.74148C14.6078 3.71028 14.5509 3.68662 14.4958 3.66012C14.2643 3.54858 14.0357 3.43064 13.8002 3.32756C13.4991 3.19565 13.1869 3.0899 12.8722 2.9929C12.7507 2.95545 12.6253 2.9302 12.5018 2.89872C12.409 2.87506 12.3168 2.8495 12.2239 2.82634C12.1683 2.81245 12.1122 2.7993 12.0557 2.78995C11.9832 2.77797 11.9096 2.77219 11.8372 2.75995C11.7587 2.74667 11.6811 2.7283 11.6028 2.7136C11.5338 2.70063 11.4648 2.68618 11.3951 2.67859C11.2833 2.66645 11.171 2.65815 11.0588 2.65064C10.9691 2.64462 10.8777 2.66325 10.7904 2.62444C10.7686 2.61476 10.7391 2.62125 10.7131 2.62125C10.4014 2.62113 10.0896 2.62031 9.77784 2.62216C9.73378 2.62242 9.68981 2.63607 9.64577 2.64328C9.62986 2.64589 9.61388 2.64894 9.59783 2.64981C9.43043 2.65902 9.26299 2.6675 9.09562 2.67716C9.07457 2.67838 9.05388 2.68519 9.01412 2.69325C9.04701 2.72969 9.06813 2.75572 9.09197 2.77909C9.26388 2.94787 9.43889 3.1137 9.60792 3.2852C9.77208 3.45172 9.72414 3.67579 9.57015 3.79326C9.41273 3.91333 9.22582 3.90428 9.07885 3.76229C8.69069 3.38728 8.30645 3.00836 7.9212 2.63048C7.90104 2.6107 7.88439 2.58695 7.86872 2.56341C7.75926 2.39898 7.81253 2.23235 7.94021 2.09975C7.98622 2.05197 8.04809 2.01821 8.09119 1.96847C8.17514 1.87161 8.27387 1.79056 8.36445 1.7012C8.40229 1.66387 8.43149 1.61855 8.48024 1.59099C8.49665 1.58171 8.51128 1.56722 8.52277 1.55218C8.58463 1.47118 8.65782 1.40333 8.73725 1.33746C8.8338 1.25737 8.91006 1.1541 8.99687 1.06247C9.06727 0.98819 9.14398 0.924477 9.24766 0.893678C9.39339 0.850404 9.55504 0.904015 9.63176 1.03081C9.64973 1.06048 9.66753 1.09057 9.68173 1.12205C9.74238 1.25643 9.6919 1.36896 9.60007 1.4669C9.51016 1.56282 9.41193 1.65123 9.31897 1.74445C9.25715 1.80644 9.19814 1.87114 9.13051 1.94235L9.13048 1.94233Z" fill="#EF8018"/>
<path d="M13.0286 11.3947C13.024 12.1578 12.7881 12.7684 12.3057 13.2839C11.7025 13.9284 10.9493 14.2244 10.0605 14.1727C9.39873 14.1342 8.82569 13.8848 8.34289 13.4349C7.70632 12.8417 7.41845 12.1125 7.47592 11.2622C7.5209 10.5966 7.79217 10.0217 8.27991 9.54523C8.88155 8.95747 9.60777 8.6959 10.4482 8.7476C11.0977 8.78757 11.6641 9.03133 12.1405 9.47196C12.7248 10.0124 13.0197 10.6732 13.0286 11.3947ZM12.2908 11.4562C12.2711 10.8746 12.0532 10.3756 11.6076 9.97865C11.2452 9.65584 10.812 9.48331 10.3262 9.46764C9.72557 9.44825 9.20777 9.6545 8.78436 10.0784C8.42578 10.4374 8.23405 10.8728 8.21252 11.3674C8.18551 11.9875 8.4167 12.516 8.88556 12.9383C9.25214 13.2684 9.69189 13.4398 10.1857 13.4525C10.8031 13.4682 11.3296 13.2483 11.75 12.802C12.1059 12.4242 12.2738 11.9717 12.2908 11.4562Z" fill="#EF8018"/>
</svg>
