<svg width="29" height="28" viewBox="0 0 29 28" fill="none" xmlns="http://www.w3.org/2000/svg">
<path d="M14.0264 0C6.2962 0 0.0263672 6.26983 0.0263672 14C0.0263672 21.7302 6.2962 28 14.0264 28C21.7565 28 28.0264 21.7302 28.0264 14C28.0264 6.26983 21.7565 0 14.0264 0ZM12.7859 22.7845C12.7859 23.619 12.1093 24.2956 11.2749 24.2956C10.4404 24.2956 9.76378 23.619 9.76378 22.7845V16.1257H4.98247C3.73076 16.1257 2.71586 15.1108 2.71586 13.859C2.71586 12.6073 3.73076 11.5924 4.98247 11.5924H9.76378V5.20983C9.76378 4.37535 10.4404 3.69875 11.2749 3.69875C12.1093 3.69875 12.7859 4.37535 12.7859 5.20983V22.7789V22.7845ZM23.0703 16.2666H18.289V22.7845C18.289 23.619 17.6123 24.2956 16.7779 24.2956C15.9434 24.2956 15.2668 23.619 15.2668 22.7845V5.21546C15.2668 4.38099 15.9434 3.70439 16.7779 3.70439C17.6123 3.70439 18.289 4.38099 18.289 5.21546V11.7334H23.0703C24.322 11.7334 25.3369 12.7483 25.3369 14C25.3369 15.2517 24.322 16.2666 23.0703 16.2666Z" fill="#1C2747"/>
</svg>
