<svg width="28" height="28" viewBox="0 0 28 28" fill="none" xmlns="http://www.w3.org/2000/svg">
<path d="M13.7939 0.161133C6.24601 0.161133 0.124023 6.28312 0.124023 13.831C0.124023 21.3789 6.24601 27.5009 13.7939 27.5009C21.3418 27.5009 27.4638 21.3789 27.4638 13.831C27.4638 6.28312 21.3418 0.161133 13.7939 0.161133ZM12.5827 22.4084C12.5827 23.2232 11.9221 23.8838 11.1073 23.8838C10.2925 23.8838 9.63183 23.2232 9.63183 22.4084V15.9065H4.96326C3.74106 15.9065 2.75009 14.9156 2.75009 13.6934C2.75009 12.4712 3.74106 11.4802 4.96326 11.4802H9.63183V5.24811C9.63183 4.43331 10.2925 3.77267 11.1073 3.77267C11.9221 3.77267 12.5827 4.43331 12.5827 5.24811V22.4029V22.4084ZM22.6245 16.0442H17.956V22.4084C17.956 23.2232 17.2953 23.8838 16.4805 23.8838C15.6657 23.8838 15.0051 23.2232 15.0051 22.4084V5.25362C15.0051 4.43882 15.6657 3.77817 16.4805 3.77817C17.2953 3.77817 17.956 4.43882 17.956 5.25362V11.6178H22.6245C23.8467 11.6178 24.8377 12.6088 24.8377 13.831C24.8377 15.0532 23.8467 16.0442 22.6245 16.0442Z" fill="white"/>
</svg>
