<svg width="29" height="30" viewBox="0 0 29 30" fill="none" xmlns="http://www.w3.org/2000/svg">
<path d="M14.7294 0.852539C6.84355 0.852539 0.450684 7.2454 0.450684 15.1313C0.450684 23.0172 6.84355 29.41 14.7294 29.41C22.6153 29.41 29.0082 23.0172 29.0082 15.1313C29.0082 7.2454 22.6153 0.852539 14.7294 0.852539ZM25.7397 16.4744C24.8923 16.6128 24.1083 16.0421 23.97 15.2005C23.6183 13.0503 22.5577 10.5715 21.6584 10.3467C20.9897 10.9693 20.1077 13.8458 19.5716 15.5982C18.3611 19.5469 17.3177 22.9595 14.7467 22.9595C14.7121 22.9595 14.6775 22.9595 14.643 22.9595C12.0893 22.873 10.9767 19.4489 9.69123 15.4887C9.1436 13.7997 8.24433 11.0385 7.59294 10.3698C6.97037 10.6695 5.92699 12.8255 5.48312 15.235C5.32748 16.0709 4.52044 16.6243 3.69035 16.4687C2.85449 16.313 2.3011 15.5117 2.45098 14.6759C2.67579 13.4365 4.00163 7.25117 7.73129 7.25117C10.2561 7.25117 11.3514 10.6234 12.6254 14.5318C13.1672 16.1977 14.0377 18.8782 14.7179 19.7141C15.352 18.8725 16.136 16.2957 16.6317 14.6932C17.8538 10.6984 18.9145 7.2454 21.5316 7.2454C25.6013 7.25117 26.8119 13.4596 27.0136 14.7047C27.152 15.5463 26.5813 16.3361 25.7397 16.4687V16.4744Z" fill="white"/>
</svg>
