<svg width="29" height="29" viewBox="0 0 29 29" fill="none" xmlns="http://www.w3.org/2000/svg">
<path d="M11.8867 16.5213H17.414L14.6267 10.1318L11.8867 16.5213Z" fill="white"/>
<path d="M14.6464 0.875C7.09831 0.875 0.976562 6.99675 0.976562 14.5449C0.976562 22.093 7.09831 28.2148 14.6464 28.2148C22.1946 28.2148 28.3163 22.093 28.3163 14.5449C28.3163 6.99675 22.1946 0.875 14.6464 0.875ZM21.2455 21.9543C20.9513 22.2484 20.6017 22.3927 20.1854 22.3927C19.9412 22.3927 19.7359 22.3483 19.5638 22.2651C19.3918 22.1818 19.2475 22.0597 19.1309 21.9154C19.0144 21.7655 18.8867 21.538 18.7535 21.2327C18.6203 20.9275 18.5038 20.6555 18.4094 20.4224L17.6823 18.5187H11.5162L10.7947 20.4668C10.5116 21.2272 10.2674 21.7378 10.0676 22.0042C9.86781 22.2706 9.54035 22.4038 9.08525 22.4038C8.69674 22.4038 8.35819 22.2595 8.05848 21.982C7.75878 21.6989 7.61447 21.377 7.61447 21.0218C7.61447 20.8165 7.64777 20.6 7.71992 20.378C7.78653 20.156 7.90308 19.8508 8.06403 19.4567L11.9435 9.6053C12.0545 9.32224 12.1877 8.98369 12.3432 8.58408C12.4986 8.18447 12.6651 7.85702 12.8427 7.59616C13.0203 7.33531 13.2478 7.11885 13.5364 6.9579C13.825 6.79695 14.1747 6.7137 14.5965 6.7137C15.0183 6.7137 15.3791 6.79695 15.6677 6.9579C15.9563 7.11885 16.1838 7.32976 16.3614 7.58506C16.539 7.84037 16.6833 8.11232 16.8054 8.40648C16.9275 8.70063 17.0774 9.08914 17.2661 9.58309L21.2289 19.3735C21.5397 20.1172 21.6951 20.6611 21.6951 20.9996C21.6951 21.3382 21.5508 21.6767 21.2566 21.9654L21.2455 21.9543Z" fill="white"/>
</svg>
