<svg width="29" height="28" viewBox="0 0 29 28" fill="none" xmlns="http://www.w3.org/2000/svg">
<path d="M11.6387 15.6988H16.2826L13.9407 9.28711L11.6387 15.6988Z" fill="#1C2747"/>
<path d="M14.0264 0C6.29596 0 0.0263672 6.26959 0.0263672 14C0.0263672 21.7304 6.29596 28 14.0264 28C21.7568 28 28.0264 21.7304 28.0264 14C28.0264 6.26959 21.7568 0 14.0264 0ZM20.7848 21.5883C20.4835 21.8896 20.1254 22.0374 19.6991 22.0374C19.449 22.0374 19.2387 21.9919 19.0625 21.9066C18.8863 21.8214 18.7385 21.6963 18.6191 21.5485C18.4998 21.395 18.369 21.162 18.2326 20.8494C18.0962 20.5367 17.9768 20.2582 17.8802 20.0195L17.1356 18.0698H10.8205L10.0816 20.065C9.79169 20.8437 9.54159 21.3666 9.33696 21.6395C9.13233 21.9123 8.79697 22.0487 8.33087 22.0487C7.93298 22.0487 7.58625 21.9009 7.27931 21.6167C6.97237 21.3268 6.82458 20.9972 6.82458 20.6334C6.82458 20.4231 6.85869 20.2014 6.93258 19.974C7.00079 19.7466 7.12016 19.434 7.285 19.0304L11.2582 8.94113C11.3719 8.65124 11.5083 8.30451 11.6675 7.89525C11.8266 7.48599 11.9971 7.15063 12.179 6.88347C12.3609 6.61632 12.594 6.39464 12.8895 6.2298C13.1851 6.06496 13.5432 5.9797 13.9752 5.9797C14.4072 5.9797 14.7767 6.06496 15.0722 6.2298C15.3678 6.39464 15.6009 6.61064 15.7828 6.87211C15.9647 7.13358 16.1124 7.4121 16.2375 7.71336C16.3625 8.01462 16.516 8.4125 16.7093 8.91839L20.7677 18.9452C21.0861 19.7069 21.2452 20.2639 21.2452 20.6106C21.2452 20.9574 21.0974 21.3041 20.7962 21.5997L20.7848 21.5883Z" fill="#1C2747"/>
</svg>
