<svg width="28" height="28" viewBox="0 0 28 28" fill="none" xmlns="http://www.w3.org/2000/svg">
<path d="M13.7856 0.504883C6.23557 0.504883 0.115723 6.62473 0.115723 14.1748C0.115723 21.7248 6.23557 27.8446 13.7856 27.8446C21.3356 27.8446 27.4555 21.7248 27.4555 14.1748C27.4555 6.62473 21.3356 0.504883 13.7856 0.504883ZM20.3766 8.19904C20.3378 8.37643 20.2824 8.54827 20.2214 8.71457C20.1604 8.88087 20.0995 9.05826 20.0385 9.23564L16.3633 19.1527C16.2358 19.5296 16.1027 19.8899 15.9697 20.2336C15.8366 20.5773 15.687 20.8767 15.5151 21.1317C15.3433 21.3866 15.116 21.6028 14.8277 21.7691C14.5395 21.9354 14.1903 22.0186 13.7801 22.0186C13.3698 22.0186 13.0151 21.9354 12.7324 21.7747C12.4441 21.6139 12.2168 21.3977 12.0394 21.1317C11.8621 20.8656 11.7124 20.5662 11.5794 20.2281C11.4463 19.8899 11.3188 19.5296 11.1858 19.1527L7.57152 9.31879C7.51054 9.14141 7.44402 8.96402 7.3775 8.79218C7.31098 8.62033 7.25555 8.43186 7.2112 8.2323C7.16685 8.03274 7.14468 7.8609 7.14468 7.72231C7.14468 7.36754 7.28326 7.05157 7.56597 6.75777C7.84868 6.46952 8.20346 6.32539 8.63029 6.32539C9.15691 6.32539 9.52831 6.48615 9.7445 6.80766C9.96069 7.12917 10.1824 7.63916 10.4097 8.34317L13.8466 18.5152L17.2945 8.2711C17.4719 7.7334 17.6105 7.35645 17.6992 7.1458C17.7879 6.93516 17.9376 6.74668 18.1427 6.57484C18.3478 6.40854 18.636 6.31985 18.9908 6.31985C19.2513 6.31985 19.4952 6.38637 19.7225 6.51386C19.9443 6.6469 20.1216 6.81875 20.2491 7.03494C20.3766 7.25113 20.4432 7.47286 20.4432 7.68905C20.4432 7.83872 20.421 8.00502 20.3822 8.18241L20.3766 8.19904Z" fill="white"/>
</svg>
