<svg width="29" height="28" viewBox="0 0 29 28" fill="none" xmlns="http://www.w3.org/2000/svg">
<path d="M14.0264 0C6.29401 0 0.0263672 6.26764 0.0263672 14C0.0263672 21.7324 6.29401 28 14.0264 28C21.7587 28 28.0264 21.7324 28.0264 14C28.0264 6.26764 21.7587 0 14.0264 0ZM20.7766 7.87997C20.7368 8.06164 20.6801 8.23763 20.6176 8.40795C20.5552 8.57826 20.4927 8.75994 20.4303 8.94161L16.6663 19.0981C16.5357 19.4842 16.3994 19.8532 16.2632 20.2052C16.1269 20.5572 15.9737 20.8637 15.7977 21.1249C15.6217 21.386 15.3889 21.6075 15.0937 21.7778C14.7985 21.9481 14.4408 22.0333 14.0207 22.0333C13.6006 22.0333 13.2372 21.9481 12.9477 21.7835C12.6525 21.6188 12.4197 21.3974 12.238 21.1249C12.0564 20.8524 11.9031 20.5458 11.7668 20.1995C11.6306 19.8532 11.5 19.4842 11.3638 19.0981L7.66221 9.02676C7.59977 8.84509 7.53164 8.66342 7.46351 8.48743C7.39539 8.31144 7.33861 8.11841 7.2932 7.91403C7.24778 7.70965 7.22507 7.53366 7.22507 7.39173C7.22507 7.02839 7.367 6.70478 7.65654 6.40389C7.94607 6.10868 8.30942 5.96107 8.74656 5.96107C9.2859 5.96107 9.66627 6.12571 9.88768 6.45499C10.1091 6.78427 10.3362 7.30657 10.5689 8.02757L14.0888 18.4453L17.62 7.95377C17.8017 7.40308 17.9436 7.01703 18.0345 6.8013C18.1253 6.58556 18.2786 6.39254 18.4887 6.21655C18.6987 6.04623 18.9939 5.95539 19.3573 5.95539C19.6241 5.95539 19.8739 6.02352 20.1067 6.1541C20.3337 6.29035 20.5154 6.46634 20.646 6.68775C20.7766 6.90916 20.8447 7.13625 20.8447 7.35766C20.8447 7.51095 20.822 7.68126 20.7822 7.86294L20.7766 7.87997Z" fill="#1C2747"/>
</svg>
