<svg width="28" height="28" viewBox="0 0 28 28" fill="none" xmlns="http://www.w3.org/2000/svg">
<path d="M13.727 0.504883C6.18101 0.504883 0.0571289 6.62877 0.0571289 14.1748C0.0571289 21.7208 6.1755 27.8446 13.727 27.8446C21.2785 27.8446 27.3969 21.7263 27.3969 14.1748C27.3969 6.62326 21.273 0.504883 13.727 0.504883ZM13.727 22.0901C12.8506 22.0901 12.1395 21.379 12.1395 20.5026C12.1395 19.6207 12.8506 18.9041 13.7325 18.9096C14.6144 18.9096 15.3255 19.6262 15.32 20.5081C15.32 21.3845 14.6034 22.0901 13.727 22.0901ZM17.7012 17.8458C17.3319 18.2151 16.7531 18.2096 16.3673 17.8348C14.879 16.3851 12.586 16.3796 11.0922 17.8237C10.8277 18.0828 10.5135 18.182 10.1552 18.0773C9.81345 17.9781 9.58746 17.7466 9.50478 17.3993C9.4221 17.0631 9.50478 16.7599 9.75282 16.5174C10.5907 15.6851 11.5883 15.1614 12.7459 14.963C13.0711 14.9079 13.3963 14.8913 13.5892 14.8693C15.2538 14.9024 16.5767 15.4315 17.6736 16.5008C18.0595 16.8757 18.065 17.471 17.6957 17.8403L17.7012 17.8458ZM20.9147 14.4614C20.81 14.8142 20.5675 15.0291 20.2092 15.1118C20.143 15.1283 20.0769 15.1283 20.0493 15.1339C19.7407 15.1339 19.5202 15.0181 19.3272 14.8252C18.2965 13.8055 17.0783 13.0944 15.6617 12.7692C12.79 12.1133 10.2654 12.8023 8.12125 14.8307C7.8236 15.1118 7.48737 15.211 7.10153 15.0732C6.46213 14.8417 6.29126 14.0259 6.7708 13.5409C7.57556 12.7306 8.49056 12.0857 9.52683 11.6006C11.0371 10.8896 12.6301 10.5809 14.2892 10.6801C16.7586 10.8345 18.8863 11.7825 20.6557 13.5188C20.9257 13.7834 21.0194 14.1031 20.9092 14.4614H20.9147ZM23.3125 12.003C22.9762 12.0692 22.6896 11.9644 22.4471 11.7219C21.5431 10.8234 20.5289 10.0793 19.3934 9.49503C18.1587 8.86115 16.8468 8.44223 15.4688 8.24931C13.0325 7.91308 10.6954 8.26033 8.463 9.2966C7.16767 9.89741 6.02117 10.7132 5.00695 11.7219C4.64866 12.0802 4.12502 12.1188 3.74469 11.8211C3.55177 11.6668 3.44704 11.4628 3.39192 11.2258V10.9447C3.44704 10.7077 3.5683 10.5148 3.73918 10.3439C4.82505 9.28006 6.04873 8.39814 7.41571 7.72567C9.07484 6.90437 10.8277 6.43033 12.6797 6.29253C12.8396 6.28151 12.9994 6.26497 13.1648 6.25395H14.3003C14.4656 6.27049 14.631 6.28151 14.7963 6.29805C17.0728 6.46892 19.1839 7.1469 21.1352 8.32648C22.1053 8.91627 22.9872 9.61079 23.7865 10.4155C24.0456 10.6801 24.1338 10.9943 24.0235 11.3526C23.9133 11.7054 23.6707 11.9203 23.3125 11.992V12.003Z" fill="white"/>
</svg>
