<svg width="29" height="28" viewBox="0 0 29 28" fill="none" xmlns="http://www.w3.org/2000/svg">
<path d="M14.6523 0.504883C7.10458 0.504883 0.982422 6.62704 0.982422 14.1748C0.982422 21.7225 7.10458 27.8446 14.6523 27.8446C22.2 27.8446 28.3222 21.7225 28.3222 14.1748C28.3222 6.62704 22.2 0.504883 14.6523 0.504883ZM21.9348 12.7326L11.5636 23.6508C11.2265 24.0045 10.6408 23.6619 10.7845 23.1978L12.9339 16.2192H7.6295C7.31455 16.2192 7.15431 15.8434 7.3698 15.6169L17.7079 4.69867C18.0449 4.34505 18.6306 4.68762 18.4869 5.15176L16.3431 12.1248H21.6751C21.99 12.1248 22.1503 12.5006 21.9348 12.7271V12.7326Z" fill="white"/>
</svg>
