<svg width="21" height="24" viewBox="0 0 21 24" fill="none" xmlns="http://www.w3.org/2000/svg">
<path d="M4.89854 8.73014C4.89854 8.64623 4.89854 8.5604 4.89854 8.47408C4.89854 7.35727 4.89615 6.23998 4.90189 5.12317C4.90284 4.95681 4.86604 4.87725 4.68774 4.8242C4.0544 4.63614 3.6983 3.98804 3.81158 3.28208C3.91244 2.65424 4.45448 2.19951 5.10599 2.19951C8.68233 2.19951 12.2587 2.19806 15.835 2.20337C16.0267 2.20337 16.1266 2.15659 16.204 1.96515C16.422 1.427 16.6686 0.900426 16.9057 0.370473C17.0333 0.0850025 17.1944 0.0232791 17.4759 0.150101C17.9525 0.364687 18.4286 0.580236 18.9047 0.796268C19.2383 0.947683 19.2952 1.10006 19.147 1.43954C19.0447 1.67293 18.94 1.90536 18.8382 2.13923C18.833 2.15177 18.8401 2.16961 18.8454 2.22025C19.1112 2.22025 19.3894 2.17492 19.647 2.22893C20.3315 2.37263 20.7177 2.88233 20.7096 3.56177C20.7019 4.2306 20.3167 4.70895 19.6393 4.88014V11.6123C20.3047 11.8163 20.7057 12.2619 20.6952 12.9823C20.6861 13.6323 20.319 14.0465 19.6283 14.279V14.535C19.6283 16.6003 19.6303 18.6652 19.625 20.7305C19.625 20.9186 19.6522 21.016 19.863 21.084C20.493 21.287 20.8066 21.9332 20.678 22.6787C20.5776 23.2583 20.015 23.699 19.353 23.7C17.0668 23.7029 14.781 23.7014 12.4948 23.701C10.0499 23.701 7.60493 23.7009 5.16048 23.7C4.55916 23.7 4.06301 23.3793 3.88233 22.8436C3.70356 22.3146 3.78291 21.693 4.26759 21.2961C4.3933 21.193 4.54721 21.109 4.70161 21.0628C4.85074 21.0179 4.90571 20.9562 4.90284 20.8C4.89424 20.3018 4.89519 19.8037 4.90093 19.3056C4.90284 19.1604 4.86795 19.0939 4.70782 19.0746C2.85034 18.8552 1.48854 17.8975 0.642496 16.2223C-0.278117 14.3981 0.00389864 12.0989 1.3265 10.5679C2.17303 9.58848 3.23035 8.97269 4.52236 8.80102C4.63899 8.78559 4.75419 8.75762 4.89854 8.73014ZM18.8965 11.6022V4.90859H5.627V8.74798C5.69726 8.7528 5.75271 8.7528 5.80625 8.76148C5.86074 8.77016 5.91379 8.79186 5.96829 8.80006C7.65751 9.05515 8.90507 9.95882 9.74968 11.4397C9.83572 11.5901 9.93275 11.6036 10.0733 11.6032C12.924 11.6012 15.7753 11.6017 18.626 11.6017H18.8961L18.8965 11.6022ZM5.61075 20.9866H18.8975V14.3142H10.3926C10.3357 14.6228 10.2975 14.9073 10.2305 15.1851C9.7253 17.287 7.89555 18.8962 5.77183 19.0847C5.71352 19.09 5.61935 19.1966 5.61792 19.2578C5.60597 19.8278 5.61075 20.3978 5.61075 20.9866ZM5.25034 9.47708C2.92491 9.42018 0.830347 11.3838 0.821265 13.9081C0.812662 16.3356 2.73276 18.3942 5.23027 18.3923C7.73351 18.3903 9.64835 16.4277 9.67129 13.9636C9.69567 11.3722 7.57195 9.42886 5.25034 9.47757V9.47708ZM12.2539 4.17611C14.6195 4.17611 16.9851 4.17611 19.3506 4.17611C19.7541 4.17611 19.994 3.93837 19.9954 3.54296C19.9964 3.16442 19.7531 2.92139 19.3635 2.92139C14.6247 2.92042 9.88543 2.9209 5.14662 2.92139C5.07587 2.92139 5.00226 2.92524 4.93487 2.94453C4.62417 3.03422 4.47552 3.30764 4.52475 3.68473C4.56203 3.97165 4.81011 4.17514 5.13419 4.17514C7.5079 4.17611 9.88113 4.17562 12.2548 4.17562L12.2539 4.17611ZM12.2615 21.7268C11.0833 21.7268 9.90503 21.7268 8.72678 21.7268C7.52415 21.7268 6.322 21.7282 5.11937 21.7253C4.90619 21.7253 4.73029 21.7842 4.61605 21.977C4.48364 22.2008 4.4736 22.4395 4.58832 22.6632C4.70878 22.8981 4.9277 22.9757 5.1882 22.9757C7.37788 22.9723 9.56757 22.9738 11.7572 22.9738C14.2815 22.9738 16.8058 22.9747 19.3301 22.9738C19.7502 22.9738 20.0084 22.7288 19.9978 22.3334C19.9888 21.977 19.7426 21.7176 19.3329 21.72C16.976 21.735 14.619 21.7272 12.262 21.7272L12.2615 21.7268ZM10.1674 12.3236C10.2339 12.6944 10.3108 13.0286 10.3472 13.3666C10.3653 13.5359 10.415 13.5812 10.5766 13.5812C13.4737 13.5773 16.3708 13.5788 19.2679 13.5793C19.6666 13.5793 19.9835 13.3666 19.9935 12.923C20.0007 12.5888 19.6757 12.3149 19.2756 12.3164C16.3226 12.3289 13.37 12.3231 10.417 12.3231H10.167L10.1674 12.3236ZM16.8823 2.19855C17.2522 2.19855 17.5835 2.20482 17.9143 2.19276C17.9731 2.19035 18.0534 2.12187 18.082 2.06304C18.1925 1.83737 18.2861 1.60301 18.3918 1.35853C18.0754 1.21531 17.769 1.07643 17.4425 0.928877C17.2561 1.3513 17.0759 1.75973 16.8823 2.19855Z" fill="#EF8018"/>
</svg>
