<svg width="18" height="19" viewBox="0 0 18 19" fill="none" xmlns="http://www.w3.org/2000/svg">
<path d="M16.3116 0.613281H1.18514C0.532763 0.613281 0.00390625 1.06487 0.00390625 1.62193C0.00390625 2.17899 0.532763 2.63058 1.18514 2.63058H16.3116C16.964 2.63058 17.4928 2.17899 17.4928 1.62193C17.4928 1.06487 16.964 0.613281 16.3116 0.613281Z" fill="#EF8018"/>
<path d="M16.3116 16.1758H1.18514C0.532763 16.1758 0.00390625 16.6274 0.00390625 17.1844C0.00390625 17.7415 0.532763 18.1931 1.18514 18.1931H16.3116C16.964 18.1931 17.4928 17.7415 17.4928 17.1844C17.4928 16.6274 16.964 16.1758 16.3116 16.1758Z" fill="#EF8018"/>
<path d="M8.70186 5.55566L5.96169 9.59342C4.73417 11.402 6.26348 13.6675 8.71112 13.6675C11.1643 13.6675 12.6918 11.3957 11.455 9.58709L8.70001 5.55725L8.70186 5.55566Z" fill="#EF8018"/>
<path d="M12.6957 11.0332C12.6513 12.7612 11.0201 14.3311 8.75023 14.3311C6.48034 14.3311 4.8492 12.7628 4.80476 11.0332H1.45361V15.5579H16.0487V11.0332H12.6976H12.6957Z" fill="#EF8018"/>
<path d="M1.45361 3.25V7.77469H6.35814L8.73727 4.26655L11.1349 7.77469H16.0469V3.25H1.45361Z" fill="#EF8018"/>
<path d="M5.33944 9.27317L5.93746 8.39258H1.18661C0.53489 8.39258 0.00537109 8.84473 0.00537109 9.40123C0.00537109 9.95772 0.53489 10.4099 1.18661 10.4099H4.85806C4.93397 10.0257 5.08949 9.64153 5.33944 9.27317Z" fill="#EF8018"/>
<path d="M16.3141 8.39258H11.5596L12.1557 9.26368C12.4094 9.63521 12.5668 10.0225 12.6445 10.4099H16.316C16.9677 10.4099 17.4972 9.95772 17.4972 9.40123C17.4972 8.84473 16.9677 8.39258 16.316 8.39258H16.3141Z" fill="#EF8018"/>
</svg>
