<svg width="21" height="24" viewBox="0 0 21 24" fill="none" xmlns="http://www.w3.org/2000/svg">
<g clip-path="url(#clip0_238_414)">
<path d="M4.94541 8.73013C4.94541 8.64623 4.94541 8.5604 4.94541 8.47408C4.94541 7.35727 4.94302 6.23998 4.94876 5.12317C4.94972 4.95681 4.91291 4.87724 4.73462 4.8242C4.10128 4.63614 3.74518 3.98804 3.85846 3.28208C3.95932 2.65424 4.50136 2.19951 5.15286 2.19951C8.7292 2.19951 12.3055 2.19806 15.8819 2.20337C16.0736 2.20337 16.1735 2.15659 16.2509 1.96515C16.4689 1.427 16.7155 0.900426 16.9526 0.370473C17.0802 0.0850025 17.2413 0.0232791 17.5228 0.150101C17.9994 0.364687 18.4755 0.580236 18.9515 0.796268C19.2852 0.947683 19.3421 1.10006 19.1939 1.43954C19.0916 1.67293 18.9869 1.90536 18.8851 2.13923C18.8798 2.15177 18.887 2.16961 18.8923 2.22025C19.158 2.22025 19.4362 2.17492 19.6939 2.22893C20.3783 2.37263 20.7646 2.88233 20.7564 3.56177C20.7488 4.2306 20.3635 4.70895 19.6862 4.88014V11.6123C20.3516 11.8163 20.7526 12.2619 20.7421 12.9823C20.733 13.6323 20.3659 14.0465 19.6752 14.279V14.535C19.6752 16.6003 19.6771 18.6652 19.6719 20.7305C19.6719 20.9186 19.6991 21.016 19.9099 21.084C20.5399 21.287 20.8535 21.9332 20.7249 22.6787C20.6245 23.2583 20.0619 23.699 19.3999 23.7C17.1137 23.7029 14.8279 23.7014 12.5417 23.701C10.0967 23.701 7.65181 23.701 5.20735 23.7C4.60604 23.7 4.10988 23.3793 3.9292 22.8436C3.75043 22.3146 3.82978 21.693 4.31446 21.2961C4.44018 21.193 4.59409 21.109 4.74848 21.0628C4.89761 21.0179 4.95258 20.9562 4.94972 20.8C4.94111 20.3018 4.94207 19.8037 4.9478 19.3056C4.94972 19.1604 4.91482 19.0939 4.75469 19.0746C2.89722 18.8552 1.53542 17.8975 0.689371 16.2223C-0.231242 14.3981 0.0507736 12.0989 1.37338 10.5679C2.2199 9.58848 3.27722 8.97269 4.56923 8.80102C4.68586 8.78559 4.80106 8.75762 4.94541 8.73013ZM18.9434 11.6022V4.90859H5.67387V8.74798C5.74414 8.7528 5.79959 8.7528 5.85312 8.76148C5.90761 8.77016 5.96067 8.79186 6.01516 8.80006C7.70439 9.05515 8.95194 9.95882 9.79656 11.4397C9.8826 11.5901 9.97963 11.6036 10.1202 11.6032C12.9709 11.6012 15.8221 11.6017 18.6729 11.6017H18.9429L18.9434 11.6022ZM5.65762 20.9866H18.9444V14.3142H10.4395C10.3826 14.6228 10.3443 14.9073 10.2774 15.1851C9.77218 17.287 7.94243 18.8962 5.81871 19.0847C5.76039 19.09 5.66623 19.1966 5.66479 19.2578C5.65284 19.8278 5.65762 20.3978 5.65762 20.9866ZM5.29722 9.47708C2.97178 9.42018 0.877222 11.3838 0.86814 13.9081C0.859537 16.3356 2.77963 18.3942 5.27714 18.3923C7.78039 18.3903 9.69522 16.4277 9.71817 13.9636C9.74254 11.3722 7.61882 9.42886 5.29722 9.47757V9.47708ZM12.3008 4.17611C14.6663 4.17611 17.0319 4.17611 19.3975 4.17611C19.8009 4.17611 20.0409 3.93837 20.0423 3.54296C20.0433 3.16442 19.8 2.92139 19.4104 2.92139C14.6716 2.92042 9.93231 2.9209 5.19349 2.92139C5.12275 2.92139 5.04914 2.92524 4.98174 2.94453C4.67105 3.03422 4.52239 3.30764 4.57162 3.68473C4.60891 3.97165 4.85699 4.17514 5.18106 4.17514C7.55477 4.17611 9.92801 4.17562 12.3017 4.17562L12.3008 4.17611ZM12.3084 21.7268C11.1302 21.7268 9.9519 21.7268 8.77365 21.7268C7.57103 21.7268 6.36887 21.7282 5.16625 21.7253C4.95306 21.7253 4.77716 21.7841 4.66292 21.977C4.53052 22.2008 4.52048 22.4395 4.6352 22.6632C4.75565 22.8981 4.97457 22.9757 5.23508 22.9757C7.42476 22.9723 9.61444 22.9738 11.8041 22.9738C14.3284 22.9738 16.8527 22.9747 19.377 22.9738C19.7971 22.9738 20.0552 22.7288 20.0447 22.3334C20.0356 21.977 19.7895 21.7176 19.3798 21.72C17.0228 21.735 14.6659 21.7272 12.3089 21.7272L12.3084 21.7268ZM10.2143 12.3236C10.2808 12.6944 10.3577 13.0286 10.394 13.3666C10.4122 13.5359 10.4619 13.5812 10.6235 13.5812C13.5206 13.5773 16.4177 13.5788 19.3148 13.5793C19.7135 13.5793 20.0304 13.3666 20.0404 12.923C20.0476 12.5888 19.7225 12.3149 19.3225 12.3164C16.3694 12.3289 13.4169 12.3231 10.4638 12.3231H10.2138L10.2143 12.3236ZM16.9292 2.19855C17.2991 2.19855 17.6304 2.20482 17.9611 2.19276C18.0199 2.19035 18.1002 2.12187 18.1289 2.06304C18.2393 1.83737 18.333 1.60301 18.4387 1.35853C18.1222 1.21531 17.8158 1.07643 17.4894 0.928877C17.3029 1.3513 17.1227 1.75973 16.9292 2.19855Z" fill="#EF8018"/>
<path d="M5.28032 17.1984C4.14078 17.1362 3.289 16.4427 3.02037 15.3341C2.88128 14.7608 3.03758 14.2303 3.26128 13.7105C3.72015 12.6453 4.33198 11.6683 4.96676 10.7054C5.14266 10.4387 5.40173 10.4117 5.57094 10.661C6.3472 11.8077 7.11629 12.965 7.52784 14.307C7.89494 15.5048 7.08474 16.7702 5.90936 17.0933C5.70525 17.1492 5.49016 17.1646 5.28032 17.1984ZM5.27363 11.4914C4.88932 12.1732 4.52461 12.7972 4.18428 13.4347C4.02798 13.7274 3.908 14.0413 3.79137 14.3533C3.5758 14.931 3.69577 15.4634 4.09394 15.9109C4.50262 16.3704 5.02889 16.5532 5.63977 16.4225C6.46526 16.2455 7.15405 15.3095 6.80655 14.3644C6.43563 13.3561 5.87829 12.4519 5.27363 11.4919V11.4914Z" fill="#EF8018"/>
</g>
<defs>
<clipPath id="clip0_238_414">
<rect width="20.6048" height="23.6145" fill="white" transform="translate(0.151367 0.0869141)"/>
</clipPath>
</defs>
</svg>
