<svg width="23" height="18" viewBox="0 0 23 18" fill="none" xmlns="http://www.w3.org/2000/svg">
<path d="M14.2046 12.9683V12.4019H14.4201C15.6718 12.4019 16.9231 12.4023 18.1748 12.4019C19.9925 12.4011 21.5246 11.2233 21.9005 9.4987C22.1493 8.35675 21.8677 7.31186 21.0822 6.40669C20.5182 5.7568 19.8036 5.35689 18.9462 5.18772C18.7967 5.15826 18.6978 5.08538 18.661 4.92489C18.4729 4.10657 18.0481 3.42194 17.3855 2.87929C16.8942 2.47674 16.3282 2.21202 15.6969 2.09609C14.6016 1.89519 13.6007 2.11988 12.7002 2.75618C12.6377 2.80036 12.5825 2.85436 12.5203 2.89968C12.232 3.11002 12.1229 3.06999 11.9273 2.77355C11.713 2.44879 11.4924 2.11648 11.2154 1.84384C10.6557 1.2925 9.96531 0.953394 9.16423 0.846148C8.03888 0.695098 7.0301 0.94282 6.14962 1.65465C5.43694 2.2309 4.99533 2.95519 4.86273 3.8411C4.81305 4.17228 4.82909 4.5129 4.81931 4.84936C4.81305 5.05592 4.73873 5.14958 4.53651 5.18885C3.00162 5.48717 1.82152 6.66499 1.56883 8.12942C1.35566 9.36502 1.7163 10.4326 2.59952 11.3223C3.18429 11.9117 3.9177 12.2773 4.77276 12.3615C5.1334 12.397 5.49835 12.3992 5.86173 12.4008C6.9241 12.4057 7.98686 12.4026 9.04923 12.4026H9.27805C9.27805 11.9839 9.26945 11.5824 9.28392 11.1818C9.28783 11.0738 9.34025 10.9507 9.41222 10.868C9.45759 10.8159 9.59723 10.7883 9.66334 10.817C9.74783 10.854 9.81276 10.9518 9.86165 11.0364C9.88982 11.0851 9.87104 11.1595 9.87104 11.2226C9.87104 12.5442 9.87104 13.8656 9.87104 15.1873C9.87104 15.2854 9.87104 15.3836 9.87104 15.5426C10.1362 15.2888 10.3572 15.074 10.5825 14.8629C10.7331 14.722 10.9315 14.7477 11.0386 14.9199C11.1157 15.0438 11.0918 15.1627 10.9897 15.2616C10.5947 15.6457 10.1988 16.0286 9.79946 16.4085C9.67898 16.5233 9.49045 16.515 9.3688 16.3983C8.97608 16.0211 8.58454 15.6427 8.19339 15.2639C8.07878 15.1529 8.06665 14.9622 8.16366 14.8583C8.2638 14.7511 8.48089 14.7507 8.5994 14.864C8.81493 15.0706 9.02615 15.2809 9.2671 15.5173V12.9687H9.05901C7.76821 12.9687 6.47779 12.9751 5.18699 12.9668C4.18408 12.9604 3.30125 12.6296 2.52246 12.0201C1.7116 11.3853 1.20154 10.5693 1.00166 9.5931C0.738027 8.3054 1.04626 7.13438 1.89779 6.1027C2.49352 5.38068 3.26956 4.92791 4.18056 4.6749C4.22906 2.67499 5.13771 1.22113 7.09542 0.47834C8.06392 0.11091 9.06918 0.134701 10.0518 0.472676C11.0359 0.811029 11.7869 1.43751 12.3447 2.30227C12.8759 1.91332 13.4532 1.65918 14.0837 1.53985C15.3468 1.30081 16.5065 1.55118 17.5486 2.28151C18.345 2.83964 18.8691 3.5862 19.1453 4.49553C19.1824 4.61788 19.2532 4.66584 19.3768 4.70247C21.0596 5.20093 22.1141 6.28925 22.4865 7.93985C22.7646 9.1728 22.4591 10.3223 21.6666 11.3241C20.9911 12.178 20.0918 12.7138 18.9837 12.8928C18.724 12.9347 18.4588 12.9642 18.1959 12.9661C16.9442 12.9736 15.6929 12.9695 14.4413 12.9695H14.2054L14.2046 12.9683Z" fill="#EF8018"/>
<path d="M12.3859 10.136C11.0239 10.1662 9.79919 9.04538 9.82814 7.63419C9.85552 6.29286 10.9464 5.20719 12.3878 5.20606C13.8257 5.20492 14.9389 6.30382 14.9444 7.66969C14.9499 9.05822 13.7796 10.1526 12.3859 10.136ZM12.3843 9.56953C13.4991 9.55593 14.3428 8.74441 14.3542 7.69499C14.3659 6.62631 13.4866 5.78609 12.3788 5.78118C11.3446 5.77665 10.4121 6.60931 10.4172 7.6678C10.4227 8.72931 11.2731 9.56235 12.3839 9.56953H12.3843Z" fill="#EF8018"/>
<path d="M13.1404 16.7677V12.976H10.3433V12.4069H13.0825C13.1603 12.2917 13.2006 12.1758 13.2836 12.1214C13.4568 12.0081 13.6993 12.1418 13.7314 12.3514C13.7389 12.4009 13.7338 12.4518 13.7338 12.5024C13.7338 13.8494 13.7338 15.196 13.7338 16.543V16.801C13.9477 16.5944 14.1327 16.4158 14.3174 16.2375C14.5122 16.0495 14.7117 16.0102 14.8372 16.1344C14.9647 16.2606 14.9268 16.4634 14.7418 16.642C14.4007 16.9713 14.0604 17.3006 13.7181 17.6283C13.4971 17.8402 13.363 17.8402 13.1467 17.6317C12.7778 17.276 12.4097 16.9192 12.0401 16.5638C11.9384 16.466 11.8926 16.3512 11.9603 16.2255C12.024 16.1069 12.1336 16.031 12.2806 16.0684C12.344 16.0846 12.4066 16.128 12.4543 16.1737C12.6691 16.3807 12.8783 16.5929 13.0895 16.8032C13.1064 16.7915 13.1232 16.7794 13.14 16.7677H13.1404Z" fill="#EF8018"/>
<path d="M6.10678 7.6446C6.07627 6.48793 6.97944 5.4419 8.23347 5.23421C8.72945 5.15189 9.22348 5.21004 9.68895 5.41736C9.89118 5.50761 9.97136 5.65035 9.9033 5.80858C9.83016 5.97813 9.68778 6.02873 9.46873 5.94452C8.81551 5.69378 8.18888 5.71795 7.5826 6.0816C6.5613 6.69411 6.38684 8.14193 7.22547 8.97157C7.6663 9.40773 8.19436 9.60561 8.8116 9.56105C9.0369 9.54481 9.25907 9.46136 9.47656 9.39074C9.64632 9.33561 9.82077 9.3711 9.89235 9.50478C9.97645 9.66112 9.92521 9.83105 9.73237 9.90167C9.46991 9.99758 9.19845 10.0984 8.92307 10.1264C8.15172 10.2053 7.45625 9.98663 6.89573 9.47004C6.37237 8.98743 6.08214 8.38588 6.10639 7.6446H6.10678Z" fill="#EF8018"/>
<path d="M16.273 10.2078C16.5229 10.2078 16.7733 10.2067 17.0232 10.2078C17.2454 10.2089 17.3725 10.3139 17.3721 10.4925C17.3717 10.6934 17.2755 10.7739 17.0334 10.7739C16.5843 10.7742 16.1349 10.7754 15.6859 10.7735C15.4477 10.7724 15.3244 10.6013 15.4023 10.3804C15.5408 9.98689 15.806 9.71462 16.2128 9.56169C16.4197 9.48389 16.6321 9.40044 16.7173 9.15989C16.7658 9.02281 16.7201 8.9201 16.6321 8.83853C16.422 8.64405 16.0504 8.71731 15.919 8.96919C15.8247 9.1497 15.6624 9.21654 15.4958 9.14328C15.3421 9.07568 15.2951 8.90726 15.3792 8.72562C15.5713 8.31099 15.9918 8.10216 16.4979 8.16976C16.9137 8.22527 17.2755 8.55607 17.3264 8.96881C17.369 9.31472 17.1992 9.69763 16.7213 9.9514C16.5722 10.0307 16.4189 10.1024 16.2675 10.1776L16.2734 10.2078H16.273Z" fill="#EF8018"/>
</svg>
