<svg width="23" height="15" viewBox="0 0 23 15" fill="none" xmlns="http://www.w3.org/2000/svg">
<path d="M10.2088 2.76585C10.4504 2.47747 10.6671 2.18681 10.9176 1.92584C11.5672 1.248 12.3797 0.810581 13.2721 0.502216C13.9921 0.25381 14.7365 0.113903 15.4986 0.0556566C15.8273 0.0305305 15.9949 0.200703 15.9664 0.530768C15.9096 1.18976 15.7846 1.83561 15.5732 2.46548C15.5679 2.48204 15.5632 2.4986 15.5578 2.51801C17.1295 3.24096 18.0278 4.42988 18.238 6.1059C18.6655 6.15216 19.0884 6.23839 19.4857 6.40799C20.9371 7.02529 21.8615 8.07316 22.1416 9.58472C22.4394 11.1928 21.9071 12.5467 20.6333 13.618C20.0068 14.1445 19.2654 14.4535 18.4405 14.5597C18.174 14.5939 17.9034 14.6105 17.6346 14.6105C13.3751 14.6134 9.11564 14.6128 4.85617 14.6128C2.87714 14.6128 1.20782 13.4473 0.590779 11.6376C0.0477604 10.0444 0.594924 8.19651 1.91961 7.11951C2.4117 6.71921 2.96123 6.4274 3.57827 6.25609C3.67065 6.23039 3.6896 6.18585 3.69611 6.10933C3.76895 5.28074 4.07569 4.53609 4.60924 3.88738C5.3305 3.01026 6.26672 2.47347 7.42026 2.30044C8.40977 2.15197 9.34185 2.32214 10.2088 2.76585ZM9.8896 3.39514C9.83512 3.36488 9.79367 3.33918 9.74926 3.31805C9.00905 2.96914 8.23212 2.85265 7.42144 2.99769C5.68165 3.30834 4.4156 4.76337 4.38776 6.4748C4.38421 6.69522 4.28117 6.81229 4.05319 6.85569C1.96402 7.25085 0.647627 9.34774 1.24513 11.3276C1.71649 12.8905 3.15013 13.9195 4.8763 13.9207C9.15887 13.9235 13.4408 13.923 17.7234 13.9184C18.0094 13.9184 18.3014 13.895 18.5797 13.8362C20.5741 13.4147 21.8129 11.5588 21.4369 9.6778C21.1278 8.13255 19.7356 6.85226 17.9194 6.77917C17.6583 6.76889 17.5357 6.65982 17.5268 6.40799C17.4907 5.37154 17.0892 4.49555 16.2933 3.79373C15.999 3.53391 15.665 3.33118 15.2926 3.17529C15.2612 3.23639 15.2327 3.29064 15.2055 3.34546C14.8153 4.12894 14.2829 4.8022 13.5504 5.31729C12.372 6.14645 11.0266 6.50849 9.59352 6.61585C9.30809 6.63698 9.13696 6.47194 9.16716 6.19499C9.21157 5.79354 9.26723 5.39209 9.34481 4.99522C9.45258 4.44587 9.64445 3.91936 9.8896 3.39514ZM15.1996 0.798589C14.2616 0.847699 12.4496 1.31367 11.3949 2.44263C10.4836 3.41798 10.0939 4.60176 9.91566 5.87977C13.1015 5.54057 14.8751 3.77375 15.1996 0.798589Z" fill="#EF8018"/>
<path d="M15.3609 9.58067C15.3592 10.8664 14.3117 11.8847 12.9092 11.8299C11.6644 11.7815 10.6261 10.8105 10.7054 9.43984C10.7704 8.31263 11.7156 7.27495 13.1664 7.33767C14.4037 7.39126 15.3569 8.31834 15.3615 9.5801L15.3609 9.58067ZM11.7058 9.5704C11.7196 9.68329 11.7259 9.79789 11.7484 9.90908C11.9353 10.8373 13.0657 11.2655 13.8239 10.6885C14.2524 10.3624 14.3882 9.91421 14.3358 9.39137C14.2593 8.61995 13.4902 8.06747 12.7332 8.25106C12.1004 8.40386 11.7167 8.90047 11.7058 9.5704Z" fill="#EF8018"/>
<path d="M8.30187 7.33301C9.02554 7.33814 9.49897 7.4516 9.91775 7.75093C10.153 7.91913 10.2134 8.19338 10.0593 8.41859C9.91257 8.63354 9.62034 8.68884 9.38967 8.53433C9.16302 8.38324 8.92889 8.26465 8.65162 8.22987C7.9711 8.14491 7.44015 8.57709 7.28023 9.129C7.12606 9.66096 7.21005 10.1524 7.59029 10.5664C8.03035 11.0453 8.80291 11.0772 9.35918 10.6644C9.44834 10.5983 9.55361 10.5327 9.66004 10.5133C9.87633 10.4734 10.0593 10.588 10.1415 10.7813C10.2157 10.9552 10.1634 11.1548 10.0035 11.2928C9.69915 11.555 9.34998 11.7244 8.95075 11.7905C8.42613 11.8772 7.91473 11.843 7.43497 11.6018C6.71188 11.238 6.30403 10.6468 6.22177 9.84854C6.128 8.94085 6.45302 8.20991 7.21925 7.69335C7.60697 7.43222 8.04991 7.33073 8.30187 7.33358V7.33301Z" fill="#EF8018"/>
</svg>
