<svg width="24" height="20" viewBox="0 0 24 20" fill="none" xmlns="http://www.w3.org/2000/svg">
<path d="M14.1527 14.0209V13.3984H14.3814C15.7094 13.3984 17.0371 13.3988 18.3652 13.3984C20.2938 13.3975 21.9194 12.1031 22.3183 10.2076C22.5822 8.95259 22.2834 7.80421 21.45 6.80939C20.8516 6.09513 20.0933 5.65562 19.1836 5.46969C19.0251 5.43731 18.9201 5.35721 18.881 5.18083C18.6814 4.28146 18.2307 3.52902 17.5277 2.93263C17.0064 2.49021 16.4058 2.19927 15.736 2.07186C14.5739 1.85107 13.5119 2.09801 12.5565 2.79733C12.4901 2.84589 12.4316 2.90524 12.3656 2.95504C12.0597 3.18621 11.9439 3.14222 11.7364 2.81642C11.509 2.4595 11.2749 2.09427 10.9811 1.79462C10.3872 1.18868 9.65465 0.815991 8.80468 0.698123C7.61066 0.532112 6.54031 0.80437 5.6061 1.5867C4.84992 2.22003 4.38136 3.01605 4.24067 3.9897C4.18796 4.35368 4.20498 4.72803 4.1946 5.09782C4.18796 5.32484 4.1091 5.42777 3.89454 5.47093C2.26598 5.7988 1.01386 7.09327 0.745752 8.70274C0.519564 10.0607 0.902216 11.234 1.83934 12.2118C2.4598 12.8597 3.23797 13.2614 4.14521 13.3539C4.52786 13.393 4.91508 13.3955 5.30064 13.3971C6.42784 13.4025 7.55546 13.3992 8.68267 13.3992H8.92546C8.92546 12.9389 8.91633 12.4977 8.93168 12.0574C8.93583 11.9387 8.99144 11.8034 9.06781 11.7125C9.11595 11.6552 9.26412 11.6249 9.33426 11.6565C9.4239 11.6972 9.49279 11.8047 9.54467 11.8976C9.57455 11.9512 9.55463 12.0329 9.55463 12.1022C9.55463 13.5548 9.55463 15.007 9.55463 16.4596C9.55463 16.5675 9.55463 16.6754 9.55463 16.8501C9.83602 16.5712 10.0705 16.3351 10.3096 16.1031C10.4693 15.9483 10.6798 15.9765 10.7935 16.1658C10.8752 16.3019 10.8499 16.4326 10.7416 16.5414C10.3224 16.9634 9.90242 17.3843 9.47868 17.8018C9.35086 17.928 9.15082 17.9188 9.02174 17.7906C8.60506 17.376 8.18962 16.9601 7.7746 16.5438C7.65299 16.4218 7.64013 16.2122 7.74305 16.0981C7.8493 15.9802 8.07964 15.9798 8.20539 16.1043C8.43407 16.3314 8.65818 16.5625 8.91384 16.8223V14.0213H8.69304C7.32346 14.0213 5.9543 14.0284 4.58472 14.0192C3.5206 14.0122 2.58389 13.6486 1.75758 12.9788C0.897235 12.2811 0.356044 11.3842 0.143967 10.3114C-0.135759 8.89615 0.19128 7.60915 1.09479 6.4753C1.72687 5.68176 2.55028 5.18415 3.51687 4.90608C3.56833 2.7081 4.53243 1.11024 6.60962 0.293887C7.63722 -0.109934 8.70383 -0.0837875 9.74637 0.287662C10.7906 0.659526 11.5874 1.34805 12.1792 2.29847C12.7428 1.87099 13.3554 1.59168 14.0244 1.46053C15.3646 1.19782 16.5951 1.47298 17.7007 2.27564C18.5457 2.88905 19.1018 3.70956 19.3948 4.70894C19.4343 4.84341 19.5094 4.89612 19.6405 4.93638C21.426 5.48421 22.5449 6.68032 22.94 8.4944C23.2351 9.84946 22.9109 11.1128 22.0701 12.2139C21.3533 13.1522 20.3992 13.7412 19.2234 13.9379C18.9479 13.984 18.6665 14.0163 18.3876 14.0184C17.0595 14.0267 15.7318 14.0221 14.4038 14.0221H14.1535L14.1527 14.0209Z" fill="#EF8018"/>
<path d="M12.2212 10.9084C10.7761 10.9416 9.47666 9.70981 9.50737 8.15886C9.53642 6.68468 10.6939 5.49148 12.2233 5.49024C13.7489 5.48899 14.9301 6.69672 14.9359 8.19787C14.9417 9.72392 13.6999 10.9267 12.2212 10.9084ZM12.2196 10.2859C13.4024 10.2709 14.2976 9.37904 14.3096 8.22568C14.3221 7.05115 13.3891 6.12772 12.2137 6.12232C11.1164 6.11734 10.127 7.03247 10.1324 8.1958C10.1382 9.36244 11.0405 10.278 12.2191 10.2859H12.2196Z" fill="#EF8018"/>
<path d="M13.0255 18.1964V14.0291H10.0576V13.4036H12.964C13.0466 13.277 13.0894 13.1496 13.1774 13.0899C13.3612 12.9654 13.6185 13.1123 13.6526 13.3426C13.6604 13.397 13.655 13.453 13.655 13.5086C13.655 14.989 13.655 16.469 13.655 17.9494V18.2329C13.8821 18.0059 14.0784 17.8095 14.2743 17.6137C14.4809 17.407 14.6926 17.3638 14.8258 17.5004C14.9611 17.639 14.9209 17.8618 14.7246 18.0581C14.3627 18.4201 14.0016 18.782 13.6384 19.1422C13.404 19.375 13.2616 19.375 13.0321 19.1459C12.6407 18.755 12.2502 18.3628 11.858 17.9722C11.7501 17.8647 11.7015 17.7386 11.7733 17.6004C11.841 17.4701 11.9572 17.3866 12.1132 17.4277C12.1805 17.4456 12.2469 17.4933 12.2975 17.5435C12.5253 17.7709 12.7474 18.0042 12.9715 18.2354C12.9893 18.2225 13.0072 18.2092 13.025 18.1964H13.0255Z" fill="#EF8018"/>
<path d="M5.56148 8.17302C5.52911 6.90179 6.4874 5.75217 7.81796 5.5239C8.34421 5.43343 8.86839 5.49734 9.36227 5.72519C9.57683 5.82438 9.66191 5.98126 9.5897 6.15516C9.51209 6.34151 9.36102 6.39712 9.12861 6.30457C8.43552 6.02899 7.77065 6.05555 7.12736 6.45522C6.04374 7.1284 5.85864 8.71961 6.74845 9.63142C7.21618 10.1108 7.77646 10.3283 8.43137 10.2793C8.67042 10.2614 8.90616 10.1697 9.13691 10.0921C9.31703 10.0315 9.50213 10.0705 9.57808 10.2174C9.66731 10.3893 9.61294 10.576 9.40833 10.6536C9.12985 10.7591 8.84183 10.8699 8.54965 10.9006C7.73122 10.9873 6.99331 10.747 6.39858 10.1793C5.84328 9.64885 5.53533 8.98772 5.56106 8.17302H5.56148Z" fill="#EF8018"/>
<path d="M16.3486 10.9915C16.6138 10.9915 16.8794 10.9902 17.1446 10.9915C17.3804 10.9927 17.5152 11.1081 17.5148 11.3044C17.5144 11.5252 17.4123 11.6136 17.1554 11.6136C16.679 11.614 16.2021 11.6152 15.7257 11.6132C15.4729 11.6119 15.3422 11.4239 15.4248 11.1811C15.5717 10.7487 15.8531 10.4494 16.2847 10.2814C16.5042 10.1959 16.7296 10.1041 16.8201 9.83976C16.8715 9.68911 16.823 9.57622 16.7296 9.48658C16.5067 9.27284 16.1125 9.35335 15.973 9.63017C15.873 9.82856 15.7008 9.90202 15.524 9.8215C15.3609 9.74721 15.3111 9.56211 15.4003 9.36248C15.6041 8.90678 16.0502 8.67727 16.5873 8.75156C17.0284 8.81257 17.4123 9.17614 17.4663 9.62976C17.5115 10.0099 17.3314 10.4308 16.8242 10.7097C16.6661 10.7968 16.5034 10.8757 16.3428 10.9583L16.349 10.9915H16.3486Z" fill="#EF8018"/>
</svg>
