<svg width="23" height="23" viewBox="0 0 23 23" fill="none" xmlns="http://www.w3.org/2000/svg">
<circle cx="11.6108" cy="11.2461" r="11" fill="#1C2747"/>
<path fill-rule="evenodd" clip-rule="evenodd" d="M8.65667 8.38716C10.0619 7.79683 11.6083 7.6423 13.1002 7.94314C14.5921 8.24398 15.9625 8.98667 17.0378 10.0772C17.1033 10.1485 17.1824 10.2057 17.2702 10.2453C17.358 10.285 17.4527 10.3063 17.5489 10.308C17.645 10.3098 17.7404 10.2918 17.8295 10.2553C17.9187 10.2188 17.9996 10.1645 18.0676 10.0956C18.1356 10.0267 18.1892 9.94467 18.2252 9.85433C18.2612 9.76398 18.2788 9.66721 18.2771 9.56979C18.2754 9.47237 18.2544 9.3763 18.2153 9.2873C18.1762 9.1983 18.1198 9.11819 18.0494 9.05177C17.2025 8.19294 16.197 7.51165 15.0903 7.04683C13.9836 6.58202 12.7974 6.34277 11.5994 6.34277C10.4015 6.34277 9.21527 6.58202 8.10856 7.04683C7.00185 7.51165 5.99632 8.19294 5.14942 9.05177C5.08109 9.11873 5.0266 9.19882 4.98913 9.28736C4.95166 9.3759 4.93196 9.47111 4.93118 9.56745C4.9304 9.66379 4.94855 9.75932 4.98458 9.84847C5.02061 9.93762 5.0738 10.0186 5.14103 10.0867C5.20827 10.1548 5.28821 10.2086 5.37619 10.2451C5.46418 10.2815 5.55844 10.2998 5.65347 10.2989C5.74851 10.2981 5.84242 10.278 5.92973 10.2399C6.01704 10.2019 6.096 10.1465 6.16199 10.0772C6.87598 9.35325 7.72368 8.77896 8.65667 8.38716ZM11.5999 10.5435C10.9047 10.5435 10.2164 10.6828 9.57454 10.9534C8.93267 11.224 8.34991 11.6206 7.85979 12.1204C7.72589 12.2569 7.54399 12.3339 7.3541 12.3344C7.1642 12.3349 6.98187 12.259 6.84722 12.1233C6.71256 11.9876 6.63661 11.8032 6.63608 11.6107C6.63554 11.4182 6.71046 11.2334 6.84436 11.0969C7.46758 10.4615 8.20856 9.95729 9.02469 9.61323C9.84083 9.26917 10.716 9.09205 11.5999 9.09205C12.4838 9.09205 13.359 9.26917 14.1751 9.61323C14.9912 9.95729 15.7322 10.4615 16.3555 11.0969C16.4893 11.2334 16.5643 11.4182 16.5637 11.6107C16.5632 11.8032 16.4872 11.9876 16.3526 12.1233C16.2179 12.259 16.0356 12.3349 15.8457 12.3344C15.6558 12.3339 15.4739 12.2569 15.34 12.1204C14.8499 11.6206 14.2671 11.224 13.6253 10.9534C12.9834 10.6828 12.2951 10.5435 11.5999 10.5435ZM10.6646 13.3867C11.1235 13.1904 11.63 13.1389 12.1182 13.239C12.6063 13.3391 13.0533 13.5861 13.4008 13.9478C13.5333 14.0857 13.7144 14.1646 13.9043 14.1672C14.0942 14.1697 14.2773 14.0957 14.4133 13.9613C14.5494 13.827 14.6272 13.6434 14.6297 13.4509C14.6322 13.2585 14.5592 13.0728 14.4267 12.9349C14.0627 12.556 13.6274 12.2548 13.1467 12.0492C12.6659 11.8435 12.1494 11.7376 11.6276 11.7376C11.1058 11.7376 10.5893 11.8435 10.1085 12.0492C9.62775 12.2548 9.19251 12.556 8.82846 12.9349C8.69583 13.0727 8.62263 13.2583 8.62495 13.4507C8.62728 13.6432 8.70495 13.8269 8.84087 13.9613C8.97679 14.0958 9.15983 14.17 9.34972 14.1676C9.53961 14.1653 9.72081 14.0865 9.85344 13.9488C10.0844 13.7089 10.3602 13.5173 10.6646 13.3877V13.3867ZM10.0806 16.4476C10.0806 16.0391 10.2406 15.6474 10.5256 15.3586C10.8105 15.0697 11.197 14.9075 11.5999 14.9075C12.0029 14.9075 12.3893 15.0697 12.6742 15.3586C12.9592 15.6474 13.1192 16.0391 13.1192 16.4476C13.1192 16.856 12.9592 17.2478 12.6742 17.5366C12.3893 17.8254 12.0029 17.9877 11.5999 17.9877C11.197 17.9877 10.8105 17.8254 10.5256 17.5366C10.2406 17.2478 10.0806 16.856 10.0806 16.4476Z" fill="white"/>
<path d="M17.7126 4.84189L5.51795 17.6466" stroke="white" stroke-linecap="round"/>
</svg>
