<svg width="23" height="23" viewBox="0 0 23 23" fill="none" xmlns="http://www.w3.org/2000/svg">
<circle cx="11.5117" cy="11.5" r="11" fill="#1C2747"/>
<path fill-rule="evenodd" clip-rule="evenodd" d="M8.55755 8.64107C9.96279 8.05073 11.5092 7.89621 13.0011 8.19705C14.493 8.49789 15.8633 9.24057 16.9387 10.3311C17.0042 10.4024 17.0832 10.4596 17.171 10.4992C17.2588 10.5389 17.3536 10.5602 17.4497 10.5619C17.5458 10.5637 17.6413 10.5457 17.7304 10.5092C17.8196 10.4728 17.9005 10.4184 17.9685 10.3495C18.0364 10.2806 18.09 10.1986 18.126 10.1082C18.162 10.0179 18.1797 9.92112 18.178 9.8237C18.1763 9.72628 18.1553 9.6302 18.1162 9.5412C18.077 9.4522 18.0206 9.3721 17.9503 9.30568C17.1034 8.44684 16.0979 7.76556 14.9912 7.30074C13.8845 6.83592 12.6983 6.59668 11.5003 6.59668C10.3024 6.59668 9.11615 6.83592 8.00944 7.30074C6.90273 7.76556 5.8972 8.44684 5.0503 9.30568C4.98197 9.37264 4.92748 9.45273 4.89001 9.54126C4.85254 9.6298 4.83284 9.72502 4.83206 9.82136C4.83127 9.9177 4.84943 10.0132 4.88546 10.1024C4.92149 10.1915 4.97468 10.2725 5.04191 10.3406C5.10915 10.4087 5.18909 10.4625 5.27707 10.499C5.36505 10.5354 5.45931 10.5537 5.55435 10.5528C5.64939 10.552 5.7433 10.5319 5.83061 10.4938C5.91792 10.4558 5.99688 10.4005 6.06287 10.3311C6.77686 9.60716 7.62456 9.03287 8.55755 8.64107ZM11.5008 10.7974C10.8056 10.7974 10.1173 10.9367 9.47542 11.2073C8.83354 11.4779 8.25079 11.8745 7.76067 12.3743C7.62677 12.5108 7.44487 12.5878 7.25498 12.5883C7.06508 12.5889 6.88275 12.5129 6.7481 12.3772C6.61344 12.2415 6.53749 12.0571 6.53696 11.8646C6.53642 11.6721 6.61134 11.4873 6.74523 11.3508C7.36846 10.7154 8.10944 10.2112 8.92557 9.86714C9.74171 9.52308 10.6169 9.34596 11.5008 9.34596C12.3847 9.34596 13.2599 9.52308 14.076 9.86714C14.8921 10.2112 15.6331 10.7154 16.2563 11.3508C16.3902 11.4873 16.4651 11.6721 16.4646 11.8646C16.4641 12.0571 16.3881 12.2415 16.2535 12.3772C16.1188 12.5129 15.9365 12.5889 15.7466 12.5883C15.5567 12.5878 15.3748 12.5108 15.2409 12.3743C14.7508 11.8745 14.168 11.4779 13.5262 11.2073C12.8843 10.9367 12.196 10.7974 11.5008 10.7974ZM10.5655 13.6406C11.0243 13.4443 11.5309 13.3928 12.019 13.4929C12.5072 13.593 12.9542 13.8401 13.3017 14.2017C13.4342 14.3396 13.6153 14.4185 13.8052 14.4211C13.9951 14.4236 14.1782 14.3496 14.3142 14.2152C14.4503 14.0809 14.5281 13.8973 14.5306 13.7048C14.5331 13.5124 14.4601 13.3267 14.3276 13.1888C13.9635 12.8099 13.5283 12.5087 13.0475 12.3031C12.5668 12.0974 12.0503 11.9915 11.5285 11.9915C11.0067 11.9915 10.4901 12.0974 10.0094 12.3031C9.52863 12.5087 9.09339 12.8099 8.72934 13.1888C8.59671 13.3266 8.5235 13.5122 8.52583 13.7046C8.52816 13.8971 8.60582 14.0808 8.74174 14.2152C8.87767 14.3497 9.06071 14.4239 9.2506 14.4215C9.44049 14.4192 9.62169 14.3405 9.75431 14.2027C9.98527 13.9628 10.2611 13.7712 10.5655 13.6416V13.6406ZM9.98145 16.7015C9.98145 16.293 10.1415 15.9013 10.4265 15.6125C10.7114 15.3236 11.0978 15.1614 11.5008 15.1614C11.9037 15.1614 12.2902 15.3236 12.5751 15.6125C12.86 15.9013 13.0201 16.293 13.0201 16.7015C13.0201 17.1099 12.86 17.5017 12.5751 17.7905C12.2902 18.0793 11.9037 18.2416 11.5008 18.2416C11.0978 18.2416 10.7114 18.0793 10.4265 17.7905C10.1415 17.5017 9.98145 17.1099 9.98145 16.7015Z" fill="white"/>
</svg>
