<svg width="21" height="21" viewBox="0 0 21 21" fill="none" xmlns="http://www.w3.org/2000/svg">
<circle cx="10.8755" cy="10.5605" r="9.5" fill="#1C2747" stroke="#46B649"/>
<path fill-rule="evenodd" clip-rule="evenodd" d="M8.30734 8.10464C9.52979 7.59109 10.875 7.45666 12.1729 7.71837C13.4707 7.98008 14.6628 8.62616 15.5983 9.57486C15.6553 9.63688 15.7241 9.68661 15.8004 9.72111C15.8768 9.75561 15.9593 9.77416 16.0429 9.77565C16.1265 9.77715 16.2095 9.76156 16.2871 9.72982C16.3646 9.69807 16.435 9.65082 16.4942 9.59089C16.5533 9.53095 16.5999 9.45956 16.6312 9.38096C16.6625 9.30237 16.6779 9.21819 16.6764 9.13344C16.675 9.04869 16.6567 8.96511 16.6226 8.88769C16.5886 8.81027 16.5395 8.74058 16.4783 8.6828C15.7416 7.93568 14.8669 7.34301 13.9041 6.93865C12.9414 6.53429 11.9094 6.32617 10.8673 6.32617C9.82519 6.32617 8.79327 6.53429 7.83052 6.93865C6.86776 7.34301 5.99303 7.93568 5.25628 8.6828C5.19684 8.74105 5.14944 8.81072 5.11684 8.88774C5.08424 8.96476 5.06711 9.0476 5.06643 9.1314C5.06575 9.21521 5.08154 9.29832 5.11289 9.37587C5.14423 9.45342 5.1905 9.52387 5.24899 9.58311C5.30748 9.64234 5.37702 9.68918 5.45356 9.72088C5.5301 9.75258 5.6121 9.76851 5.69477 9.76774C5.77745 9.76697 5.85915 9.74952 5.9351 9.71641C6.01105 9.68329 6.07973 9.63517 6.13715 9.57486C6.75826 8.94507 7.4957 8.44548 8.30734 8.10464ZM10.8677 9.9805C10.263 9.98049 9.66419 10.1017 9.10581 10.3371C8.54743 10.5725 8.04047 10.9175 7.6141 11.3523C7.49762 11.471 7.33938 11.538 7.17419 11.5384C7.009 11.5389 6.85038 11.4729 6.73324 11.3548C6.6161 11.2367 6.55003 11.0763 6.54956 10.9089C6.5491 10.7414 6.61427 10.5806 6.73075 10.4619C7.27291 9.90916 7.91751 9.47054 8.62749 9.17123C9.33746 8.87192 10.0988 8.71784 10.8677 8.71784C11.6367 8.71784 12.398 8.87192 13.108 9.17123C13.8179 9.47054 14.4625 9.90916 15.0047 10.4619C15.1212 10.5806 15.1864 10.7414 15.1859 10.9089C15.1854 11.0763 15.1194 11.2367 15.0022 11.3548C14.8851 11.4729 14.7265 11.5389 14.5613 11.5384C14.3961 11.538 14.2378 11.471 14.1214 11.3523C13.695 10.9175 13.188 10.5725 12.6297 10.3371C12.0713 10.1017 11.4725 9.98049 10.8677 9.9805ZM10.0541 12.4539C10.4533 12.2831 10.8939 12.2383 11.3186 12.3254C11.7432 12.4125 12.1321 12.6274 12.4344 12.942C12.5496 13.062 12.7072 13.1306 12.8724 13.1328C13.0376 13.135 13.1969 13.0706 13.3152 12.9538C13.4336 12.8369 13.5013 12.6772 13.5035 12.5098C13.5056 12.3423 13.4421 12.1808 13.3268 12.0609C13.0101 11.7312 12.6315 11.4692 12.2133 11.2903C11.7951 11.1114 11.3457 11.0192 10.8918 11.0192C10.4379 11.0192 9.98854 11.1114 9.57032 11.2903C9.1521 11.4692 8.77347 11.7312 8.45678 12.0609C8.3414 12.1807 8.27772 12.3421 8.27974 12.5096C8.28176 12.677 8.34933 12.8368 8.46757 12.9538C8.58581 13.0707 8.74504 13.1353 8.91023 13.1332C9.07543 13.1312 9.23305 13.0627 9.34843 12.9428C9.54934 12.7341 9.78928 12.5675 10.0541 12.4547V12.4539ZM9.54602 15.1166C9.54602 14.7613 9.68527 14.4205 9.93314 14.1692C10.181 13.918 10.5172 13.7768 10.8677 13.7768C11.2183 13.7768 11.5544 13.918 11.8023 14.1692C12.0502 14.4205 12.1894 14.7613 12.1894 15.1166C12.1894 15.4719 12.0502 15.8127 11.8023 16.064C11.5544 16.3152 11.2183 16.4564 10.8677 16.4564C10.5172 16.4564 10.181 16.3152 9.93314 16.064C9.68527 15.8127 9.54602 15.4719 9.54602 15.1166Z" fill="#46B649"/>
</svg>
