<svg width="21" height="21" viewBox="0 0 21 21" fill="none" xmlns="http://www.w3.org/2000/svg">
<circle cx="10.8789" cy="10.9766" r="9.5" fill="#1C2747" stroke="#FF0000"/>
<path fill-rule="evenodd" clip-rule="evenodd" d="M8.3597 8.51821C9.55899 8.01439 10.8788 7.88251 12.152 8.13926C13.4253 8.39601 14.5948 9.02985 15.5125 9.96057C15.5685 10.0214 15.6359 10.0702 15.7108 10.1041C15.7858 10.1379 15.8666 10.1561 15.9487 10.1576C16.0307 10.159 16.1122 10.1437 16.1882 10.1126C16.2643 10.0814 16.3334 10.0351 16.3914 9.97629C16.4494 9.91749 16.4951 9.84745 16.5259 9.77035C16.5566 9.69325 16.5717 9.61066 16.5702 9.52752C16.5688 9.44437 16.5508 9.36238 16.5174 9.28642C16.484 9.21046 16.4359 9.1421 16.3759 9.08541C15.6531 8.35245 14.7949 7.77101 13.8504 7.37431C12.9059 6.97762 11.8935 6.77344 10.8712 6.77344C9.84879 6.77344 8.83643 6.97762 7.89191 7.37431C6.9474 7.77101 6.08924 8.35245 5.36646 9.08541C5.30814 9.14256 5.26163 9.21091 5.22966 9.28647C5.19768 9.36204 5.18086 9.4433 5.1802 9.52552C5.17953 9.60774 5.19502 9.68927 5.22577 9.76535C5.25652 9.84144 5.30192 9.91055 5.3593 9.96866C5.41668 10.0268 5.48491 10.0727 5.55999 10.1038C5.63508 10.1349 5.71553 10.1505 5.79664 10.1498C5.87775 10.149 5.95789 10.1319 6.03241 10.0994C6.10692 10.0669 6.1743 10.0197 6.23063 9.96057C6.83998 9.34271 7.56344 8.85259 8.3597 8.51821ZM10.8716 10.3585C10.2783 10.3585 9.69084 10.4774 9.14304 10.7084C8.59524 10.9393 8.09789 11.2778 7.6796 11.7043C7.56533 11.8208 7.41008 11.8865 7.24802 11.887C7.08596 11.8874 6.93035 11.8226 6.81543 11.7068C6.70051 11.5909 6.63569 11.4336 6.63523 11.2693C6.63477 11.105 6.69871 10.9473 6.81299 10.8308C7.34487 10.2885 7.97726 9.85822 8.67378 9.56459C9.37031 9.27095 10.1172 9.11979 10.8716 9.11979C11.6259 9.11979 12.3729 9.27095 13.0694 9.56459C13.7659 9.85822 14.3983 10.2885 14.9302 10.8308C15.0444 10.9473 15.1084 11.105 15.1079 11.2693C15.1075 11.4336 15.0426 11.5909 14.9277 11.7068C14.8128 11.8226 14.6572 11.8874 14.4951 11.887C14.3331 11.8865 14.1778 11.8208 14.0636 11.7043C13.6453 11.2778 13.1479 10.9393 12.6001 10.7084C12.0523 10.4774 11.4649 10.3585 10.8716 10.3585ZM10.0734 12.785C10.465 12.6175 10.8973 12.5736 11.3139 12.659C11.7305 12.7444 12.112 12.9552 12.4085 13.2639C12.5216 13.3816 12.6762 13.4489 12.8382 13.4511C13.0003 13.4533 13.1566 13.3901 13.2727 13.2755C13.3888 13.1608 13.4552 13.0041 13.4574 12.8399C13.4595 12.6756 13.3972 12.5172 13.2841 12.3995C12.9734 12.0761 12.6019 11.819 12.1916 11.6435C11.7813 11.468 11.3405 11.3776 10.8952 11.3776C10.4499 11.3776 10.009 11.468 9.59875 11.6435C9.18846 11.819 8.817 12.0761 8.50631 12.3995C8.39311 12.5171 8.33064 12.6754 8.33262 12.8397C8.33461 13.004 8.40089 13.1607 8.51689 13.2755C8.63289 13.3902 8.78911 13.4535 8.95117 13.4515C9.11324 13.4495 9.26787 13.3823 9.38107 13.2647C9.57817 13.06 9.81356 12.8965 10.0734 12.7859V12.785ZM9.57491 15.3973C9.57491 15.0487 9.71153 14.7144 9.9547 14.4679C10.1979 14.2214 10.5277 14.0829 10.8716 14.0829C11.2155 14.0829 11.5453 14.2214 11.7885 14.4679C12.0316 14.7144 12.1682 15.0487 12.1682 15.3973C12.1682 15.7459 12.0316 16.0802 11.7885 16.3267C11.5453 16.5732 11.2155 16.7117 10.8716 16.7117C10.5277 16.7117 10.1979 16.5732 9.9547 16.3267C9.71153 16.0802 9.57491 15.7459 9.57491 15.3973Z" fill="#FF0000"/>
<path d="M15.4951 6.23036L6.27441 15.9124" stroke="white" stroke-linecap="round"/>
</svg>
