<svg width="21" height="21" viewBox="0 0 21 21" fill="none" xmlns="http://www.w3.org/2000/svg">
<circle cx="10.3555" cy="10.9453" r="9.5" fill="#1C2747" stroke="#FF0000"/>
<g clip-path="url(#clip0_2341_3538)">
<rect width="10" height="8" transform="translate(5.35547 7)" fill="#1C2747"/>
<path d="M5.35547 7.67381C5.35547 7.30176 5.68718 7 6.09639 7.00036C8.00404 7.00124 13.0372 7.00302 14.505 7C14.9748 6.99911 15.3559 7.34507 15.3555 7.77215C15.3545 8.92416 15.3551 12.5171 15.3555 14.1622C15.3555 14.6249 14.9431 15 14.4341 15C12.399 15 7.5835 15 6.09619 15C5.68718 15 5.35547 14.6984 5.35547 14.3265L5.35547 7.67381ZM10.3535 7.54441C9.00365 7.54441 7.65398 7.54441 6.30412 7.54441C6.10361 7.54441 5.94118 7.6921 5.94118 7.87439C5.94118 9.96204 5.94118 12.0499 5.94118 14.1375C5.94118 14.3198 6.10361 14.4675 6.30412 14.4675C9.00365 14.4675 11.7034 14.4675 14.4029 14.4675C14.6034 14.4675 14.7659 14.3198 14.7659 14.1375C14.7659 12.0499 14.7659 9.96204 14.7659 7.87439C14.7659 7.6921 14.6034 7.54441 14.4029 7.54441C13.053 7.54441 11.7034 7.54441 10.3535 7.54441Z" fill="#FF0000"/>
<path d="M7.13229 11.8042C7.03018 11.8042 6.93959 11.806 6.8492 11.8038C6.67017 11.7998 6.54775 11.692 6.54756 11.5291C6.546 10.4701 6.546 9.41125 6.54756 8.35225C6.54775 8.1893 6.66978 8.08191 6.84861 8.07676C6.88434 8.07569 6.92026 8.0764 6.95599 8.0764C9.23967 8.0764 11.5235 8.0764 13.8072 8.0764C13.9989 8.0764 14.1128 8.14297 14.1504 8.27947C14.159 8.31053 14.1604 8.3439 14.1604 8.37603C14.161 9.41728 14.161 10.4584 14.1604 11.4996C14.1604 11.7005 14.0452 11.803 13.8219 11.804C13.7442 11.8044 13.6665 11.804 13.5796 11.804C13.5778 11.8367 13.5751 11.8651 13.5751 11.8933C13.5747 12.121 13.5759 12.3488 13.5745 12.5765C13.5733 12.7611 13.4556 12.8678 13.2522 12.8687C12.973 12.8699 12.694 12.8691 12.4084 12.8691C12.4066 12.9042 12.4037 12.9328 12.4037 12.9614C12.4033 13.1832 12.4041 13.4051 12.4033 13.6268C12.4027 13.8295 12.2895 13.9337 12.0677 13.9339C11.4593 13.9344 10.851 13.9341 10.2426 13.9341C9.70902 13.9341 9.17563 13.9344 8.64205 13.9341C8.4187 13.9339 8.30429 13.8308 8.30371 13.6297C8.30293 13.4078 8.30371 13.1859 8.30371 12.9642C8.30371 12.9353 8.30371 12.9065 8.30371 12.8692C8.05127 12.8692 7.8082 12.8692 7.56513 12.8692C7.52276 12.8692 7.48059 12.8699 7.43823 12.8691C7.25392 12.8646 7.13424 12.757 7.13288 12.5882C7.13053 12.3312 7.13229 12.0744 7.13229 11.8042ZM7.718 12.3369C8.00871 12.3369 8.28789 12.336 8.56708 12.3372C8.77052 12.3381 8.88785 12.445 8.88903 12.63C8.89039 12.8577 8.88942 13.0856 8.88942 13.3134C8.88942 13.3416 8.88942 13.3696 8.88942 13.3975H11.818V13.3066C11.818 13.1025 11.8273 12.8978 11.8154 12.6944C11.8016 12.4556 11.9316 12.3195 12.2159 12.3349C12.4072 12.3452 12.5997 12.3369 12.7916 12.3369H12.9892C12.9892 12.0715 12.988 11.8175 12.9896 11.5637C12.9905 11.3794 13.1089 11.274 13.3127 11.272C13.399 11.2711 13.4853 11.272 13.5694 11.272V8.61513H7.1403V11.2719C7.22288 11.2719 7.29766 11.2717 7.37243 11.2719C7.6073 11.2726 7.71761 11.3732 7.718 11.588C7.71839 11.8333 7.718 12.0786 7.718 12.3369Z" fill="#FF0000"/>
<path d="M7.12666 13.9351C7.03236 13.9351 6.93787 13.9372 6.84376 13.9345C6.67488 13.9299 6.54974 13.8179 6.5474 13.6727C6.54505 13.524 6.67196 13.4063 6.84513 13.4036C7.03705 13.4006 7.22896 13.4006 7.42088 13.4036C7.58976 13.4063 7.71491 13.5199 7.71725 13.6651C7.71959 13.8137 7.59249 13.9301 7.41952 13.9345C7.32209 13.937 7.22428 13.9351 7.12686 13.9349L7.12666 13.9351Z" fill="#FF0000"/>
<path d="M13.5749 13.4023C13.6725 13.4023 13.7701 13.3998 13.8675 13.4029C14.0352 13.408 14.1598 13.5229 14.1598 13.6682C14.1598 13.8136 14.0352 13.9302 13.8675 13.9332C13.6725 13.9368 13.4771 13.9368 13.282 13.9332C13.1143 13.9301 12.9897 13.8134 12.9897 13.6682C12.9897 13.5229 13.1143 13.408 13.282 13.4029C13.3794 13.3998 13.4773 13.4023 13.5747 13.4023H13.5749Z" fill="#FF0000"/>
<path d="M8.3037 9.9435C8.3037 10.1121 8.30487 10.2808 8.30331 10.4492C8.30175 10.621 8.17875 10.7405 8.00792 10.7389C7.84099 10.7373 7.71917 10.6194 7.71838 10.4528C7.71682 10.1127 7.71702 9.77238 7.71838 9.43228C7.71897 9.26046 7.84295 9.141 8.01358 9.14259C8.18051 9.14419 8.30156 9.26206 8.30312 9.42873C8.30487 9.6002 8.30351 9.77185 8.30351 9.94332L8.3037 9.9435Z" fill="#FF0000"/>
<path d="M9.47487 9.9426C9.47487 10.1112 9.47604 10.2799 9.47448 10.4483C9.47311 10.6205 9.3507 10.74 9.18006 10.7389C9.00962 10.7378 8.89014 10.6184 8.88955 10.4448C8.88838 10.1075 8.88838 9.77042 8.88955 9.43316C8.89014 9.26098 9.01314 9.14152 9.18397 9.14259C9.35441 9.14365 9.47331 9.26311 9.47467 9.43671C9.47584 9.60534 9.47487 9.77397 9.47487 9.94243V9.9426Z" fill="#FF0000"/>
<path d="M10.0605 9.93177C10.0605 9.76616 10.0595 9.60054 10.0607 9.43493C10.0621 9.26204 10.1827 9.14258 10.3532 9.14258C10.5236 9.14258 10.6451 9.26204 10.6456 9.43493C10.6468 9.77219 10.6468 10.1093 10.6456 10.4465C10.6451 10.6194 10.5236 10.7389 10.3532 10.7389C10.1827 10.7389 10.0619 10.6194 10.0607 10.4465C10.0594 10.2751 10.0605 10.1034 10.0605 9.93195V9.93177Z" fill="#FF0000"/>
<path d="M11.2319 9.93177C11.2319 9.76616 11.2309 9.60054 11.2321 9.43493C11.2335 9.26204 11.3539 9.14258 11.5246 9.14258C11.6952 9.14258 11.8166 9.26204 11.8172 9.43475C11.8184 9.77201 11.8184 10.1091 11.8172 10.4464C11.8166 10.6192 11.6954 10.7387 11.5248 10.7387C11.3541 10.7387 11.2335 10.6192 11.2321 10.4465C11.2307 10.2751 11.2319 10.1034 11.2319 9.93195V9.93177Z" fill="#FF0000"/>
<path d="M12.9891 9.9467C12.9891 10.1153 12.9904 10.284 12.9887 10.4524C12.9869 10.6193 12.8666 10.7371 12.6997 10.7389C12.5289 10.7409 12.4045 10.6212 12.4039 10.4496C12.4026 10.1095 12.4024 9.7692 12.4039 9.4291C12.4047 9.26224 12.526 9.14438 12.6929 9.1426C12.8637 9.14065 12.9873 9.26029 12.9889 9.43194C12.9904 9.60341 12.9892 9.77505 12.9892 9.94652L12.9891 9.9467Z" fill="#FF0000"/>
</g>
<path d="M15.2554 5.95301L6.03467 15.635" stroke="white" stroke-linecap="round"/>
<defs>
<clipPath id="clip0_2341_3538">
<rect width="10" height="8" fill="white" transform="translate(5.35547 7)"/>
</clipPath>
</defs>
</svg>
