<svg width="22" height="21" viewBox="0 0 22 21" fill="none" xmlns="http://www.w3.org/2000/svg">
<path d="M7.07091 5.22256L7.07091 2.16551C7.07091 1.76015 7.23196 1.37129 7.5186 1.08469C7.80526 0.798094 8.19404 0.636989 8.59944 0.636989L19.2991 0.63699C19.7045 0.63699 20.0933 0.798095 20.3799 1.08469C20.6666 1.37129 20.8276 1.76015 20.8276 2.16551L20.8276 18.9793C20.8276 19.3847 20.6666 19.7735 20.3799 20.0601C20.0933 20.3468 19.7045 20.5078 19.2991 20.5078L8.59943 20.5078C8.19404 20.5078 7.80526 20.3468 7.5186 20.0601C7.23195 19.7735 7.07091 19.3847 7.07091 18.9793L7.07091 15.9222" stroke="#EF742A" stroke-linecap="round" stroke-linejoin="round"/>
<path d="M0.954903 10.5703L13.1831 10.5703" stroke="#EF742A" stroke-linecap="round" stroke-linejoin="round"/>
<path d="M10.1261 13.6289L13.1831 10.5719L10.1261 7.51481" stroke="#EF742A" stroke-linecap="round" stroke-linejoin="round"/>
</svg>
