<svg width="29" height="29" viewBox="0 0 29 29" fill="none" xmlns="http://www.w3.org/2000/svg">
<path d="M19.6279 7.42013L19.6279 3.35112C19.6279 2.81157 19.4135 2.294 19.032 1.91253C18.6505 1.53106 18.133 1.31662 17.5934 1.31662L3.35188 1.31662C2.81229 1.31662 2.29482 1.53106 1.91327 1.91253C1.53173 2.294 1.31738 2.81158 1.31738 3.35112L1.31738 25.7306C1.31738 26.2702 1.53173 26.7877 1.91327 27.1692C2.29482 27.5508 2.81229 27.7651 3.35188 27.7651L17.5934 27.7651C18.133 27.7651 18.6505 27.5508 19.032 27.1692C19.4135 26.7877 19.6279 26.2702 19.6279 25.7306L19.6279 21.6616" stroke="#0B1734" stroke-width="2" stroke-linecap="round" stroke-linejoin="round"/>
<path d="M27.7682 14.5381L11.4922 14.5381" stroke="#0B1734" stroke-width="2" stroke-linecap="round" stroke-linejoin="round"/>
<path d="M15.5612 18.6089L11.4922 14.5399L15.5612 10.4709" stroke="#0B1734" stroke-width="2" stroke-linecap="round" stroke-linejoin="round"/>
</svg>
