<svg width="19" height="20" viewBox="0 0 19 20" fill="none" xmlns="http://www.w3.org/2000/svg">
<path d="M0.0437946 9.55262C0.0437946 9.84129 0.107944 10.0658 0.268319 10.2583C0.52492 10.5149 0.973973 10.6432 1.55133 10.6432C3.41168 10.6432 5.27204 10.6432 7.13239 10.6432H9.4418H11.7512C13.6116 10.6432 15.4719 10.6432 17.3323 10.6432C18.8077 10.6432 18.8077 9.8413 18.8077 9.58469C18.8077 9.26394 18.7436 9.03942 18.5832 8.87904C18.3266 8.62244 17.9096 8.49414 17.3002 8.49414C12.0399 8.49414 6.77957 8.49414 1.51925 8.49414C0.845672 8.49414 0.0437939 8.68659 0.0117188 9.55262H0.0437946Z" fill="#EF8018"/>
<path d="M9.95251 0.0898438C7.1299 0.0898438 4.30729 0.0898438 1.51676 0.0898438H1.29223C0.682806 0.0898438 0.329978 0.314369 0.137527 0.859646C0.00922701 1.1804 0.0413013 1.53322 0.233752 1.75775C0.458278 2.04643 0.84318 2.23888 1.35638 2.23888C3.24881 2.23888 5.20539 2.23888 7.06575 2.23888C7.86763 2.23888 8.66951 2.23888 9.43931 2.23888H11.7166C13.6411 2.23888 15.5977 2.23888 17.5543 2.23888C18.0354 2.23888 18.3883 2.11058 18.6128 1.88605C18.7732 1.72567 18.8694 1.46907 18.8694 1.14832C18.8694 0.218144 18.0996 0.0898438 17.6185 0.0898438C15.0845 0.0898438 12.5185 0.0898438 9.95251 0.0898438Z" fill="#EF8018"/>
<path d="M0.0437946 17.9647C0.0437946 18.8949 0.973973 19.0553 1.51925 19.0553C6.93994 19.0553 12.2644 19.0553 17.3964 19.0553C17.9417 19.0553 18.3266 18.927 18.5832 18.7025C18.7436 18.5421 18.8398 18.2855 18.8398 17.9647C18.8398 17.6761 18.8398 16.9062 17.3644 16.9062C15.4719 16.9062 13.5795 16.9062 11.6871 16.9062H9.37765H7.06824C6.29844 16.9062 5.52864 16.9062 4.75884 16.9062C3.66828 16.9062 2.57773 16.9062 1.48717 16.9062C0.941897 16.9062 0.52492 17.0346 0.268319 17.2912C0.107944 17.4515 0.0117188 17.7081 0.0117188 17.9968L0.0437946 17.9647Z" fill="#EF8018"/>
</svg>
