<svg width="22" height="23" viewBox="0 0 22 23" fill="none" xmlns="http://www.w3.org/2000/svg">
<path d="M8.4375 21.6252V14.6252H13.6875V21.6252H20.6875V11.1252C20.6876 11.0103 20.665 10.8964 20.6211 10.7902C20.5772 10.684 20.5128 10.5875 20.4316 10.5061L11.6816 1.75614C11.6003 1.67478 11.5038 1.61024 11.3976 1.56621C11.2913 1.52218 11.1775 1.49951 11.0625 1.49951C10.9475 1.49951 10.8337 1.52218 10.7274 1.56621C10.6212 1.61024 10.5247 1.67478 10.4434 1.75614L1.69344 10.5061C1.61221 10.5875 1.5478 10.684 1.50388 10.7902C1.45997 10.8964 1.43741 11.0103 1.4375 11.1252V21.6252H8.4375Z" stroke="#EF8018" stroke-width="1.5" stroke-linecap="round" stroke-linejoin="round"/>
</svg>
