<svg width="23" height="23" viewBox="0 0 23 23" fill="none" xmlns="http://www.w3.org/2000/svg">
<path d="M22.2903 12.0222C22.1442 18.3749 17.1832 23.0973 10.8224 22.9375C4.93987 22.7902 0.139338 17.6605 0.291026 11.6848C0.444603 5.62925 5.48557 0.835013 11.5556 0.971597C17.5376 1.10692 22.4249 6.13844 22.2903 12.0222ZM1.59769 12.0115C1.74812 17.5598 6.11435 21.7749 11.5701 21.6396C16.8339 21.51 21.1277 17.0399 20.9893 11.8346C20.842 6.28006 16.4468 2.13664 10.8557 2.28203C5.77887 2.41358 1.45985 6.9529 1.59769 12.0121L1.59769 12.0115Z" fill="#EF742A"/>
<path d="M9.61078 11.9477C10.779 13.1021 11.8924 14.201 13.0046 15.3012C13.4124 15.7047 13.8247 16.1044 14.2225 16.5179C14.5586 16.8678 14.5768 17.2253 14.298 17.5029C14.016 17.7836 13.6447 17.7748 13.3079 17.4406C11.657 15.8016 10.0105 14.1576 8.36894 12.5091C8.00451 12.1435 7.9913 11.769 8.35132 11.4052C10.0004 9.74225 11.6583 8.0869 13.3212 6.43784C13.6321 6.12942 14.0129 6.13572 14.2741 6.40448C14.541 6.67953 14.5208 7.06851 14.1986 7.39266C12.8422 8.75659 11.4814 10.1149 10.12 11.4744C9.97772 11.6166 9.8254 11.7482 9.61078 11.9471L9.61078 11.9477Z" fill="#EF742A"/>
</svg>
