<svg width="18" height="25" viewBox="0 0 18 25" fill="none" xmlns="http://www.w3.org/2000/svg">
<g clip-path="url(#clip0_2341_801)">
<path d="M2.53455 9.28568C2.55736 9.21971 2.54907 9.16096 2.54907 9.10365C2.54976 8.05942 2.54492 7.01555 2.55045 5.97132C2.55736 4.66792 2.92592 3.48492 3.67823 2.44177C4.43711 1.38961 5.42798 0.684921 6.65014 0.34105C7.08888 0.217775 7.5366 0.159742 7.9902 0.158301C8.78677 0.155417 9.58334 0.153254 10.3799 0.158301C11.7497 0.167312 12.9528 0.644551 13.9745 1.5947C14.9322 2.48502 15.5182 3.59954 15.7571 4.91267C15.8221 5.27096 15.8494 5.63393 15.849 5.99907C15.8473 7.02852 15.8484 8.05833 15.8487 9.08779C15.8487 9.14546 15.8504 9.20313 15.8515 9.26657C15.903 9.27955 15.9472 9.2918 15.9922 9.3019C16.8161 9.48501 17.4747 10.1529 17.6738 11.0061C17.708 11.1532 17.7257 11.302 17.7284 11.4531C17.7291 11.4967 17.7291 11.5407 17.7291 11.5843C17.7291 14.9985 17.7284 18.4123 17.7302 21.8265C17.7302 22.1264 17.6946 22.418 17.5832 22.6952C17.2783 23.4533 16.7352 23.9182 15.97 24.1035C15.8062 24.1432 15.6392 24.1558 15.4708 24.1558C11.3113 24.1558 7.15145 24.1558 2.99195 24.1558C2.44085 24.1558 1.94542 23.9849 1.52224 23.6144C1.00295 23.1602 0.732244 22.5766 0.731207 21.8691C0.728095 19.6642 0.73017 17.4593 0.73017 15.2548C0.73017 14.0116 0.728787 12.7684 0.730861 11.5252C0.731898 10.947 0.922742 10.4416 1.29406 10.0134C1.60937 9.64973 2.00074 9.4176 2.45779 9.30514C2.48027 9.29973 2.50274 9.29397 2.53489 9.2864L2.53455 9.28568ZM14.0308 9.23233V9.07445C14.0308 8.045 14.0308 7.01591 14.0308 5.98645C14.0308 5.77739 14.0139 5.56977 13.9828 5.36323C13.8638 4.57384 13.5506 3.87961 13.0286 3.29532C12.3132 2.49475 11.4271 2.08131 10.374 2.07483C9.58714 2.07014 8.79991 2.07483 8.01302 2.07338C7.78864 2.07338 7.56599 2.09393 7.34645 2.13899C6.56302 2.29975 5.89887 2.68868 5.3616 3.30397C4.70332 4.05803 4.37695 4.9534 4.36831 5.96951C4.35932 7.01807 4.36624 8.06699 4.36658 9.11554C4.36658 9.15339 4.37211 9.19124 4.37488 9.22836C4.39424 9.23521 4.40669 9.2435 4.41948 9.2435C7.60022 9.24422 10.7806 9.24458 13.9613 9.24458C13.979 9.24458 13.9966 9.23846 14.0301 9.23233H14.0308ZM8.57276 17.0707C8.57276 17.1396 8.57276 17.1976 8.57276 17.2556C8.57276 18.0375 8.5776 18.8193 8.57103 19.6011C8.56757 20.0217 8.90605 20.3703 9.28808 20.3793C9.38108 20.3815 9.47443 20.3829 9.56743 20.3782C9.89484 20.3617 10.1849 20.1057 10.2513 19.772C10.2662 19.6966 10.2658 19.6173 10.2658 19.5402C10.2668 18.7584 10.2665 17.9765 10.2665 17.1947C10.2665 17.1417 10.2665 17.0891 10.2665 17.0347C10.3052 17.0127 10.3377 16.9947 10.3695 16.9756C10.4546 16.9255 10.5427 16.88 10.624 16.8242C11.5837 16.1638 11.888 14.8997 11.3708 13.8879C10.988 13.1385 10.3737 12.724 9.56225 12.6476C8.90708 12.5856 8.32349 12.7867 7.84223 13.2546C7.24031 13.8396 7.00901 14.567 7.18153 15.409C7.33262 16.1454 7.76444 16.6634 8.40854 16.9932C8.45832 17.0188 8.50984 17.0415 8.57241 17.0711L8.57276 17.0707Z" fill="white"/>
</g>
<defs>
<clipPath id="clip0_2341_801">
<rect width="17" height="24" fill="white" transform="translate(0.729492 0.155273)"/>
</clipPath>
</defs>
</svg>
