<svg width="22" height="24" viewBox="0 0 22 24" fill="none" xmlns="http://www.w3.org/2000/svg">
<g clip-path="url(#clip0_2341_795)">
<path d="M21.6374 23.6269H0.646484C0.646484 23.5595 0.646484 23.4935 0.646484 23.4276C0.647492 21.9539 0.648164 20.4803 0.650179 19.0067C0.653874 16.0059 2.63726 13.5178 5.49729 12.9426C5.85198 12.8711 6.21944 12.8386 6.58118 12.8376C9.62595 12.8297 12.6707 12.8297 15.7158 12.8338C18.7102 12.8383 21.2458 15.161 21.5941 18.2201C21.6367 18.596 21.6418 18.978 21.6431 19.3573C21.6488 20.7214 21.6455 22.0859 21.6451 23.45C21.6451 23.5063 21.6404 23.5626 21.6378 23.6265L21.6374 23.6269Z" fill="white"/>
<path d="M11.1408 11.427C8.22268 11.4249 5.89771 9.00857 5.90039 5.98188C5.90342 3.0267 8.26836 0.618684 11.1603 0.626974C14.0751 0.635265 16.3957 3.04605 16.3923 6.06237C16.389 9.02274 14.0334 11.4294 11.1412 11.427H11.1408Z" fill="white"/>
</g>
<defs>
<clipPath id="clip0_2341_795">
<rect width="21" height="23" fill="white" transform="translate(0.646484 0.626953)"/>
</clipPath>
</defs>
</svg>
