<svg width="41" height="41" viewBox="0 0 41 41" fill="none" xmlns="http://www.w3.org/2000/svg">
<circle cx="20.6055" cy="20.3711" r="19.5312" fill="#1C2747" stroke="#EF742A"/>
<g clip-path="url(#clip0_2341_3524)">
<rect width="25" height="21" transform="translate(8.35547 10.0312)" fill="#1C2747"/>
<path d="M8.35547 11.8C8.35547 10.8234 9.18473 10.0313 10.2078 10.0322C14.9769 10.0345 27.5599 10.0392 31.2293 10.0313C32.4037 10.0289 33.3564 10.9371 33.3555 12.0581C33.353 15.0822 33.3545 24.5135 33.3555 28.832C33.3555 30.0467 32.3246 31.0313 31.0522 31.0313C25.9643 31.0313 13.9256 31.0313 10.2073 31.0313C9.18473 31.0313 8.35547 30.2396 8.35547 29.2634L8.35547 11.8ZM20.8506 11.4603C17.4759 11.4603 14.1018 11.4603 10.7271 11.4603C10.2258 11.4603 9.81974 11.848 9.81974 12.3265C9.81974 17.8066 9.81974 23.2871 9.81974 28.7672C9.81974 29.2457 10.2258 29.6334 10.7271 29.6334C17.4759 29.6334 24.2252 29.6334 30.9741 29.6334C31.4753 29.6334 31.8814 29.2457 31.8814 28.7672C31.8814 23.2871 31.8814 17.8066 31.8814 12.3265C31.8814 11.848 31.4753 11.4603 30.9741 11.4603C27.5994 11.4603 24.2252 11.4603 20.8506 11.4603Z" fill="#EF742A"/>
<path d="M12.7973 22.6435C12.542 22.6435 12.3155 22.6482 12.0895 22.6426C11.642 22.6318 11.3359 22.349 11.3354 21.9213C11.3315 19.1414 11.3315 16.362 11.3354 13.5821C11.3359 13.1544 11.641 12.8725 12.0881 12.859C12.1774 12.8562 12.2672 12.858 12.3565 12.858C18.0657 12.858 23.7754 12.858 29.4846 12.858C29.9639 12.858 30.2485 13.0328 30.3427 13.3911C30.3641 13.4726 30.3676 13.5602 30.3676 13.6446C30.369 16.3778 30.369 19.1106 30.3676 21.8439C30.3676 22.3714 30.0796 22.6402 29.5212 22.643C29.327 22.644 29.1327 22.643 28.9155 22.643C28.9111 22.7288 28.9043 22.8033 28.9043 22.8774C28.9033 23.4752 28.9062 24.073 28.9028 24.6708C28.8999 25.1554 28.6056 25.4355 28.097 25.4378C27.399 25.4411 26.7015 25.4387 25.9874 25.4387C25.983 25.531 25.9757 25.606 25.9757 25.681C25.9747 26.2635 25.9767 26.8459 25.9747 27.4279C25.9733 27.96 25.6902 28.2335 25.1357 28.234C23.6148 28.2354 22.0939 28.2345 20.5731 28.2345C19.2391 28.2345 17.9056 28.2354 16.5717 28.2345C16.0133 28.234 15.7273 27.9633 15.7258 27.4353C15.7239 26.8529 15.7258 26.2705 15.7258 25.6885C15.7258 25.6125 15.7258 25.5371 15.7258 25.4392C15.0947 25.4392 14.487 25.4392 13.8794 25.4392C13.7735 25.4392 13.668 25.4411 13.5621 25.4387C13.1014 25.4271 12.8022 25.1447 12.7987 24.7016C12.7929 24.0269 12.7973 23.3527 12.7973 22.6435ZM14.2616 24.0418C14.9883 24.0418 15.6863 24.0395 16.3843 24.0427C16.8928 24.0451 17.1862 24.3256 17.1891 24.8111C17.1925 25.4089 17.1901 26.0072 17.1901 26.605C17.1901 26.6791 17.1901 26.7527 17.1901 26.8259H24.5115V26.5873C24.5115 26.0515 24.5349 25.5142 24.5051 24.9802C24.4705 24.3535 24.7955 23.9962 25.5062 24.0367C25.9845 24.0637 26.4658 24.0418 26.9456 24.0418H27.4395C27.4395 23.3452 27.4366 22.6784 27.4405 22.0121C27.4429 21.5285 27.7387 21.2517 28.2483 21.2466C28.464 21.2442 28.6797 21.2466 28.8901 21.2466V14.2722H12.8173V21.2461C13.0238 21.2461 13.2107 21.2456 13.3976 21.2461C13.9848 21.248 14.2606 21.5122 14.2616 22.076C14.2625 22.7199 14.2616 23.3639 14.2616 24.0418Z" fill="#EF742A"/>
<path d="M12.7827 28.235C12.547 28.235 12.3107 28.2406 12.0755 28.2336C11.6533 28.2215 11.3404 27.9275 11.3346 27.5463C11.3287 27.1558 11.646 26.8469 12.0789 26.8399C12.5587 26.832 13.0385 26.832 13.5183 26.8399C13.9405 26.8469 14.2533 27.1451 14.2592 27.5263C14.265 27.9163 13.9473 28.2219 13.5149 28.2336C13.2713 28.2401 13.0268 28.235 12.7832 28.2345L12.7827 28.235Z" fill="#EF742A"/>
<path d="M28.9042 26.8385C29.1483 26.8385 29.3923 26.8319 29.6359 26.8399C30.0551 26.8534 30.3665 27.1548 30.3665 27.5365C30.3665 27.9181 30.0551 28.2242 29.6359 28.2321C29.1483 28.2414 28.6597 28.2414 28.1721 28.2321C27.7528 28.2237 27.4414 27.9176 27.4414 27.5365C27.4414 27.1548 27.7528 26.8534 28.1721 26.8399C28.4156 26.8319 28.6602 26.8385 28.9037 26.8385H28.9042Z" fill="#EF742A"/>
<path d="M15.7258 17.7577C15.7258 18.2003 15.7287 18.643 15.7248 19.0852C15.7209 19.5362 15.4134 19.8498 14.9864 19.8456C14.569 19.8414 14.2645 19.532 14.2625 19.0945C14.2586 18.2017 14.2591 17.3085 14.2625 16.4157C14.264 15.9647 14.5739 15.6511 15.0005 15.6553C15.4178 15.6595 15.7204 15.9689 15.7243 16.4064C15.7287 16.8565 15.7253 17.3071 15.7253 17.7572L15.7258 17.7577Z" fill="#EF742A"/>
<path d="M18.654 17.7553C18.654 18.198 18.6569 18.6406 18.653 19.0828C18.6496 19.5348 18.3435 19.8484 17.917 19.8456C17.4908 19.8428 17.1921 19.5292 17.1907 19.0735C17.1877 18.1882 17.1877 17.3034 17.1907 16.4181C17.1921 15.9661 17.4996 15.6525 17.9267 15.6553C18.3528 15.6581 18.6501 15.9717 18.6535 16.4274C18.6564 16.87 18.654 17.3127 18.654 17.7549V17.7553Z" fill="#EF742A"/>
<path d="M20.1184 17.7269C20.1184 17.2922 20.1159 16.8574 20.1188 16.4227C20.1223 15.9689 20.4239 15.6553 20.85 15.6553C21.2761 15.6553 21.5797 15.9689 21.5812 16.4227C21.5841 17.308 21.5841 18.1928 21.5812 19.0782C21.5797 19.532 21.2761 19.8456 20.85 19.8456C20.4239 19.8456 20.1218 19.532 20.1188 19.0782C20.1154 18.628 20.1184 18.1775 20.1184 17.7274V17.7269Z" fill="#EF742A"/>
<path d="M23.0471 17.7279C23.0471 17.2931 23.0446 16.8584 23.0476 16.4237C23.051 15.9698 23.3521 15.6562 23.7787 15.6562C24.2053 15.6562 24.5089 15.9698 24.5104 16.4232C24.5133 17.3085 24.5133 18.1934 24.5104 19.0787C24.5089 19.5325 24.2058 19.8461 23.7792 19.8461C23.3526 19.8461 23.051 19.5325 23.0476 19.0791C23.0441 18.629 23.0471 18.1784 23.0471 17.7283V17.7279Z" fill="#EF742A"/>
<path d="M27.4397 17.7661C27.4397 18.2088 27.4431 18.6514 27.4387 19.0936C27.4343 19.5316 27.1336 19.841 26.7163 19.8456C26.2892 19.8508 25.9783 19.5367 25.9769 19.0861C25.9735 18.1934 25.973 17.3001 25.9769 16.4074C25.9788 15.9694 26.2819 15.66 26.6992 15.6553C27.1263 15.6502 27.4353 15.9643 27.4392 16.4148C27.4431 16.8649 27.4402 17.3155 27.4402 17.7656L27.4397 17.7661Z" fill="#EF742A"/>
</g>
<defs>
<clipPath id="clip0_2341_3524">
<rect width="25" height="21" fill="white" transform="translate(8.35547 10.0312)"/>
</clipPath>
</defs>
</svg>
