<svg width="21" height="21" viewBox="0 0 21 21" fill="none" xmlns="http://www.w3.org/2000/svg">
<circle cx="10.1328" cy="10.3281" r="10" fill="#C7C7C7"/>
<g clip-path="url(#clip0_2341_5403)">
<path fill-rule="evenodd" clip-rule="evenodd" d="M7.3208 7.04616C8.65938 6.49141 10.1324 6.34619 11.5536 6.6289C12.9747 6.91161 14.2801 7.60953 15.3044 8.63434C15.3669 8.70133 15.4421 8.75506 15.5258 8.79232C15.6094 8.82959 15.6997 8.84963 15.7912 8.85124C15.8828 8.85286 15.9737 8.83602 16.0586 8.80172C16.1435 8.76743 16.2206 8.71639 16.2854 8.65165C16.3501 8.5869 16.4012 8.50978 16.4355 8.42488C16.4697 8.33999 16.4866 8.24905 16.485 8.1575C16.4834 8.06595 16.4633 7.97567 16.426 7.89203C16.3888 7.8084 16.3351 7.73312 16.2681 7.6707C15.4613 6.86364 14.5035 6.22342 13.4493 5.78662C12.3951 5.34982 11.2651 5.125 10.124 5.125C8.98285 5.125 7.8529 5.34982 6.79868 5.78662C5.74446 6.22342 4.78662 6.86364 3.97989 7.6707C3.9148 7.73363 3.86289 7.80889 3.8272 7.89209C3.79151 7.97529 3.77274 8.06477 3.772 8.1553C3.77125 8.24583 3.78855 8.33561 3.82287 8.41938C3.85719 8.50316 3.90785 8.57926 3.9719 8.64325C4.03595 8.70723 4.1121 8.75783 4.19591 8.79207C4.27971 8.82631 4.3695 8.84352 4.46003 8.84269C4.55057 8.84186 4.64002 8.82301 4.72319 8.78724C4.80636 8.75147 4.88157 8.69949 4.94443 8.63434C5.62456 7.95401 6.43206 7.41434 7.3208 7.04616ZM10.1244 9.07252C9.46223 9.07251 8.80655 9.20342 8.19513 9.45773C7.5837 9.71204 7.02858 10.0847 6.56171 10.5543C6.43416 10.6826 6.26089 10.755 6.08 10.7555C5.89911 10.756 5.72543 10.6846 5.59716 10.5571C5.46889 10.4295 5.39655 10.2562 5.39603 10.0754C5.39552 9.89447 5.46689 9.72079 5.59443 9.59252C6.1881 8.99546 6.89394 8.52164 7.67136 8.19832C8.44879 7.875 9.28246 7.70856 10.1244 7.70856C10.9664 7.70856 11.8001 7.875 12.5775 8.19832C13.3549 8.52164 14.0608 8.99546 14.6544 9.59252C14.782 9.72079 14.8533 9.89447 14.8528 10.0754C14.8523 10.2562 14.78 10.4295 14.6517 10.5571C14.5234 10.6846 14.3498 10.756 14.1689 10.7555C13.988 10.755 13.8147 10.6826 13.6872 10.5543C13.2203 10.0847 12.6652 9.71204 12.0537 9.45773C11.4423 9.20342 10.7866 9.07251 10.1244 9.07252ZM9.23352 11.7443C9.67059 11.5599 10.1531 11.5115 10.6181 11.6056C11.0831 11.6996 11.5089 11.9318 11.8399 12.2716C11.9661 12.4012 12.1386 12.4754 12.3195 12.4777C12.5004 12.4801 12.6748 12.4106 12.8044 12.2843C12.934 12.1581 13.0082 11.9856 13.0106 11.8047C13.0129 11.6238 12.9434 11.4494 12.8172 11.3198C12.4704 10.9637 12.0558 10.6807 11.5978 10.4874C11.1399 10.2942 10.6479 10.1946 10.1508 10.1946C9.65374 10.1946 9.16172 10.2942 8.70377 10.4874C8.24582 10.6807 7.83122 10.9637 7.48443 11.3198C7.35809 11.4493 7.28836 11.6236 7.29058 11.8045C7.2928 11.9854 7.36678 12.158 7.49625 12.2843C7.62573 12.4107 7.80009 12.4804 7.98097 12.4782C8.16186 12.476 8.33446 12.402 8.4608 12.2725C8.6808 12.0471 8.94352 11.8671 9.23352 11.7452V11.7443ZM8.67716 14.6207C8.67716 14.2369 8.82964 13.8687 9.10106 13.5973C9.37247 13.3259 9.74059 13.1734 10.1244 13.1734C10.5083 13.1734 10.8764 13.3259 11.1478 13.5973C11.4192 13.8687 11.5717 14.2369 11.5717 14.6207C11.5717 15.0045 11.4192 15.3727 11.1478 15.6441C10.8764 15.9155 10.5083 16.068 10.1244 16.068C9.74059 16.068 9.37247 15.9155 9.10106 15.6441C8.82964 15.3727 8.67716 15.0045 8.67716 14.6207Z" fill="white"/>
</g>
<defs>
<clipPath id="clip0_2341_5403">
<rect width="12.7273" height="12.7273" fill="white" transform="translate(3.76025 3.97266)"/>
</clipPath>
</defs>
</svg>
