<svg width="13" height="13" viewBox="0 0 13 13" fill="none" xmlns="http://www.w3.org/2000/svg">
<path d="M6.13259 1.05176C4.73116 1.05176 3.45059 2.08845 3.45059 4.21919V5.46949C2.90845 5.53729 2.64209 5.87581 2.64209 6.54264V10.5176C2.64209 11.2678 2.97359 11.6063 3.64152 11.6063H8.62366C9.29159 11.6063 9.62309 11.2678 9.62309 10.5176V6.53753C9.62309 5.8707 9.35695 5.51639 8.81459 5.45393V4.21919C8.81459 2.08845 7.5338 1.05176 6.13259 1.05176ZM4.2593 4.1045C4.2593 2.65103 5.09288 1.85395 6.13259 1.85395C7.1723 1.85395 8.00588 2.65103 8.00588 4.1045V5.4486L4.2593 5.45371V4.1045Z" fill="#A1A1A1"/>
</svg>
