<svg width="28" height="28" viewBox="0 0 28 28" fill="none" xmlns="http://www.w3.org/2000/svg">
<path d="M20.6144 12.7715C20.5452 12.4578 20.4526 12.1935 20.4445 11.9063C20.4385 11.674 20.5068 11.403 20.6384 11.2135C20.9375 10.7877 22.3006 9.37813 22.6423 9.07012C22.889 8.83707 22.8974 8.73013 22.7157 8.44687C22.332 7.84889 21.9484 7.25091 21.5647 6.65293C21.3829 6.36968 21.2937 6.35074 20.9891 6.47633C20.5512 6.66878 18.7949 7.39678 18.3346 7.50293C17.9716 7.58894 17.6811 7.51367 17.3359 7.25006C17.1733 7.13399 17.0538 7.06784 16.894 6.93874C16.5487 6.67514 16.3107 6.40712 16.2627 5.98915C16.2007 5.37794 16.2245 3.49368 16.2397 3.1571C16.2522 2.83355 16.1789 2.73643 15.8731 2.67148C15.1849 2.52535 14.4968 2.37922 13.8087 2.23309C13.4773 2.16273 13.3723 2.22197 13.2525 2.54993C13.0468 3.10431 12.2012 4.97715 11.9535 5.34591C11.8039 5.5588 11.5634 5.63007 11.3076 5.71166C11.0825 5.7726 10.9599 5.78734 10.6711 5.83475C10.257 5.90993 9.97139 5.87646 9.69467 5.66818C9.30374 5.36768 7.96078 3.99512 7.63405 3.64031C7.40614 3.38802 7.30419 3.36638 7.02718 3.55221C6.42697 3.95485 5.84216 4.34716 5.24195 4.7498C4.99571 4.91498 4.95915 5.02955 5.07717 5.29927C5.26539 5.747 6.09637 7.67686 6.11265 8.25119C6.12343 8.52532 6.05031 8.75445 5.89543 8.99341C5.76123 9.19598 5.66576 9.33881 5.53156 9.54138C5.28915 9.88407 5.07104 10.0416 4.7207 10.1303C4.10177 10.2979 2.17028 10.1868 1.84111 10.1713C1.53742 10.1612 1.43979 10.2492 1.37892 10.5489C1.23601 11.2525 1.09309 11.9561 0.950177 12.6597C0.881367 12.9985 0.939301 13.106 1.26004 13.2285C1.72841 13.4095 3.47131 14.1873 3.86008 14.433C4.15484 14.6179 4.27022 14.9007 4.36443 15.2877C4.41658 15.4891 4.43844 15.6432 4.48001 15.8967C4.5254 16.3277 4.52344 16.5991 4.32239 16.869C3.97705 17.3258 2.61667 18.7223 2.32377 18.9864C2.07704 19.2194 2.07126 19.3133 2.253 19.5966C2.64678 20.2103 3.04055 20.824 3.43433 21.4377C3.58578 21.6738 3.69517 21.7242 3.95896 21.6035C4.32518 21.4366 5.99709 20.7315 6.47801 20.5889C6.91539 20.4643 7.26211 20.5244 7.71411 20.8514C7.87928 20.9545 7.98339 21.0309 8.12307 21.1286C8.42529 21.3423 8.63516 21.6179 8.71927 21.9891C8.8774 22.7159 8.83643 23.4412 8.79281 24.1795C8.78341 24.4222 8.76125 24.6621 8.75185 24.9048C8.7446 25.2023 8.83066 25.3021 9.11102 25.3616C9.8119 25.5105 10.5 25.6566 11.2009 25.8054C11.5195 25.8731 11.6246 25.8139 11.7417 25.4989C11.9734 24.8821 12.7675 23.0663 12.9585 22.7806C13.1494 22.495 13.3543 22.4026 13.7429 22.322C13.9653 22.2741 14.2822 22.219 14.4739 22.1918C14.3147 22.3211 13.8556 22.6177 13.6168 22.8117C13.4422 22.9513 13.2405 22.9629 13.0772 23.3088C12.8492 23.7768 12.2662 25.3385 12.149 25.6534C11.946 26.1947 11.6462 26.3621 11.0855 26.2431C10.3846 26.0942 9.68369 25.9454 8.9828 25.7965C8.53679 25.7018 8.31152 25.4365 8.31495 24.9615C8.32465 24.3247 8.37992 22.6782 8.36335 22.498C8.32854 22.0149 8.14151 21.7577 7.71019 21.3943C7.65177 21.3547 7.61883 21.3205 7.53757 21.2625C7.09832 20.9381 6.78189 20.9253 6.38008 21.071C5.81958 21.2782 4.28568 21.9583 4.06806 22.048C3.66361 22.2068 3.34287 22.0843 3.0979 21.7197C2.68394 21.0745 2.28007 20.445 1.8661 19.7998C1.61368 19.4064 1.64426 19.0595 1.96578 18.72C2.19976 18.4843 3.49281 17.223 3.86098 16.7847C4.07213 16.5305 4.07409 16.259 4.0436 15.8856C4.00899 15.7287 3.99458 15.6033 3.97007 15.4622C3.87106 15.0334 3.75784 14.8055 3.44504 14.6439C2.91609 14.3685 1.28475 13.6958 1.03037 13.5739C0.60288 13.3879 0.454565 13.071 0.547195 12.6149C0.692755 11.8983 0.838316 11.1816 0.983877 10.465C1.10033 9.89163 1.36989 9.67704 1.94913 9.70489C2.5411 9.73546 4.10304 9.76812 4.29468 9.74085C4.74167 9.69985 5.02399 9.48796 5.31786 9.08823C5.39001 8.99482 5.39266 8.98179 5.44941 8.89869C5.67692 8.49846 5.79406 8.18353 5.65153 7.77269C5.4691 7.23103 4.80663 5.64958 4.70135 5.38257C4.53597 4.95327 4.64566 4.60958 5.03041 4.35148C5.646 3.93852 6.2616 3.52555 6.89258 3.10227C7.27733 2.84417 7.63199 2.86511 7.95871 3.21993C8.30827 3.59319 9.61565 4.9446 9.94551 5.21853C10.1511 5.38452 10.2711 5.38281 10.6363 5.35163C10.8407 5.32708 10.9506 5.30963 11.1348 5.2536C11.5106 5.17031 11.7335 5.05454 11.8862 4.76076C12.1582 4.20687 12.8468 2.51816 12.956 2.24232C13.1379 1.8052 13.4351 1.65084 13.8938 1.74827C14.5947 1.8971 15.2956 2.04594 15.9965 2.19478C16.5572 2.31385 16.7671 2.58948 16.7425 3.16872C16.7152 3.76099 16.6785 5.31629 16.6951 5.49651C16.7299 5.97963 16.8787 6.2287 17.3583 6.61599C17.4167 6.65558 17.4396 6.67403 17.4852 6.71091C17.9272 7.02223 18.3121 7.09038 18.7728 6.91637C19.3768 6.69125 19.9633 6.42162 20.5472 6.16502C20.7085 6.09054 20.8725 6.00304 21.044 5.9443C21.4277 5.82191 21.7357 5.94169 21.9605 6.27486C22.3644 6.90431 22.7682 7.53376 23.1822 8.17895C23.4649 8.61957 23.4317 8.9795 23.0412 9.33152C22.6146 9.73024 21.2643 11.1425 21.05 11.4776C20.9752 11.584 20.9636 11.7719 20.9881 11.913C21.0275 12.1117 20.991 12.2262 20.8876 12.4082C20.8255 12.5173 20.7714 12.5874 20.694 12.7068L20.6144 12.7715Z" fill="black"/>
<path d="M15.5487 19.3206C15.5511 19.7017 15.427 19.92 15.0634 20.0738C10.6693 22.0086 5.84127 18.6183 6.05012 13.7287C6.21555 9.90368 9.63915 6.988 13.3415 7.54315C16.3605 7.99396 18.5769 10.3675 18.8761 13.4757C18.9311 13.9903 19.0111 13.8578 18.4783 14.1252C18.4624 12.4364 17.9088 10.9732 16.7459 9.76125C15.8593 8.82539 14.7684 8.24035 13.5117 8.01424C10.9599 7.5539 8.38523 8.8421 7.19954 11.1456C5.97248 13.522 6.35275 16.3619 8.16643 18.2966C9.92434 20.1786 12.9084 20.8667 15.5487 19.3206Z" fill="black"/>
<path d="M20.991 15.3211C20.9096 14.3528 21.3881 13.7177 22.1722 13.7073C22.9969 13.6969 23.4653 14.3008 23.4144 15.269C23.8013 15.4877 24.2086 15.6751 24.5548 15.9249C25.6545 16.737 26.2145 17.851 26.2451 19.2358C26.2552 19.8084 26.2654 20.381 26.2451 20.9536C26.1941 22.0364 26.5607 22.9422 27.304 23.6918C27.5076 23.9001 27.5178 24.1395 27.416 24.379C27.3244 24.608 27.1411 24.7434 26.8967 24.7746C26.8356 24.7746 26.7847 24.7746 26.7236 24.7746C23.7097 24.7746 20.6958 24.7746 17.6818 24.7746C17.2135 24.7746 16.9182 24.5039 16.9385 24.0666C16.9385 23.9417 17.0098 23.8063 17.0913 23.7126C17.4782 23.2754 17.8447 22.8277 17.9975 22.2551C18.0891 21.9011 18.14 21.5263 18.1502 21.1619C18.1808 20.4018 18.1095 19.6314 18.1909 18.8714C18.364 17.1431 19.3008 15.977 20.879 15.3419C20.9198 15.3315 20.9503 15.3107 21.0012 15.3003L20.991 15.3211ZM22.1925 24.4414C22.4573 24.4414 22.7322 24.4414 22.9969 24.4414C24.229 24.4414 25.4508 24.4414 26.6829 24.4414C26.7542 24.4414 26.8254 24.4414 26.8967 24.431C27.1309 24.3686 27.2124 24.1083 27.0393 23.9313C26.2349 23.0984 25.8479 22.1093 25.8989 20.9328C25.9294 20.3914 25.8989 19.85 25.8989 19.2982C25.8989 17.5908 24.8399 16.1332 23.2515 15.6334C22.9766 15.5501 22.9664 15.5293 23.0478 15.2482C23.17 14.863 23.0275 14.4465 22.7118 14.2175C22.4064 13.9884 21.9889 13.9988 21.6733 14.2175C21.3576 14.4569 21.2252 14.8734 21.3474 15.2482C21.4289 15.5189 21.4187 15.5397 21.154 15.623C19.5452 16.1332 18.4862 17.5908 18.4862 19.319C18.4862 19.9854 18.5066 20.6413 18.4862 21.3076C18.476 21.6408 18.4251 21.9739 18.3437 22.2967C18.1808 22.9318 17.8346 23.4107 17.3967 23.8792C17.3153 23.9625 17.244 24.077 17.2847 24.2228C17.3255 24.3477 17.4171 24.431 17.7327 24.431C19.2193 24.431 20.7161 24.431 22.2027 24.431L22.1925 24.4414Z" fill="black"/>
<path d="M20.6754 25.139C20.879 25.0974 21.0114 25.1182 21.1438 25.3264C21.6223 26.1177 22.7729 26.1177 23.2515 25.3264C23.3737 25.1182 23.506 25.0974 23.6995 25.139C23.6282 25.6908 22.9766 26.2114 22.2842 26.2738C21.5816 26.3363 20.8689 25.847 20.6652 25.1494L20.6754 25.139Z" fill="black"/>
<path d="M24.5955 18.7985C24.5955 18.8609 24.5141 18.9338 24.4632 18.9338C24.3919 18.9338 24.3206 18.9026 24.2799 18.8401C24.1475 18.6631 24.0559 18.4653 23.9235 18.2883C23.557 17.799 23.0886 17.4554 22.5387 17.2055C22.498 17.1847 22.4675 17.1639 22.4267 17.1535C22.3147 17.1118 22.2435 17.0285 22.2842 16.914C22.3351 16.7787 22.4573 16.7787 22.5591 16.8411C22.8849 17.0181 23.2108 17.1847 23.5162 17.3929C23.9541 17.7053 24.2799 18.1217 24.5344 18.6007C24.565 18.6527 24.6057 18.7152 24.5955 18.7985Z" fill="black"/>
<path d="M20.6144 12.7715C20.5452 12.4578 20.4526 12.1935 20.4445 11.9063C20.4385 11.674 20.5068 11.403 20.6384 11.2135C20.9375 10.7877 22.3006 9.37813 22.6423 9.07012C22.889 8.83707 22.8974 8.73013 22.7157 8.44687C22.332 7.84889 21.9484 7.25091 21.5647 6.65293C21.3829 6.36968 21.2937 6.35074 20.9891 6.47633C20.5512 6.66878 18.7949 7.39678 18.3346 7.50293C17.9716 7.58894 17.6811 7.51367 17.3359 7.25006C17.1733 7.13399 17.0538 7.06784 16.894 6.93874C16.5487 6.67514 16.3107 6.40712 16.2627 5.98915C16.2007 5.37794 16.2245 3.49368 16.2397 3.1571C16.2522 2.83355 16.1789 2.73643 15.8731 2.67148C15.1849 2.52535 14.4968 2.37922 13.8087 2.23309C13.4773 2.16273 13.3723 2.22197 13.2525 2.54993C13.0468 3.10431 12.2012 4.97715 11.9535 5.34591C11.8039 5.5588 11.5634 5.63007 11.3076 5.71166C11.0825 5.7726 10.9599 5.78734 10.6711 5.83475C10.257 5.90993 9.97139 5.87646 9.69467 5.66818C9.30374 5.36768 7.96078 3.99512 7.63405 3.64031C7.40614 3.38802 7.30419 3.36638 7.02718 3.55221C6.42697 3.95485 5.84216 4.34716 5.24195 4.7498C4.99571 4.91498 4.95915 5.02955 5.07717 5.29927C5.26539 5.747 6.09637 7.67686 6.11265 8.25119C6.12343 8.52532 6.05031 8.75445 5.89543 8.99341C5.76123 9.19598 5.66576 9.33881 5.53156 9.54138C5.28915 9.88407 5.07104 10.0416 4.7207 10.1303C4.10177 10.2979 2.17028 10.1868 1.84111 10.1713C1.53742 10.1612 1.43979 10.2492 1.37892 10.5489C1.23601 11.2525 1.09309 11.9561 0.950177 12.6597C0.881367 12.9985 0.939301 13.106 1.26004 13.2285C1.72841 13.4095 3.47131 14.1873 3.86008 14.433C4.15484 14.6179 4.27022 14.9007 4.36443 15.2877C4.41658 15.4891 4.43844 15.6432 4.48001 15.8967C4.5254 16.3277 4.52344 16.5991 4.32239 16.869C3.97705 17.3258 2.61667 18.7223 2.32377 18.9864C2.07704 19.2194 2.07126 19.3133 2.253 19.5966C2.64678 20.2103 3.04055 20.824 3.43433 21.4377C3.58578 21.6738 3.69517 21.7242 3.95896 21.6035C4.32518 21.4366 5.99709 20.7315 6.47801 20.5889C6.91539 20.4643 7.26211 20.5244 7.71411 20.8514C7.87928 20.9545 7.98339 21.0309 8.12307 21.1286C8.42529 21.3423 8.63516 21.6179 8.71927 21.9891C8.8774 22.7159 8.83643 23.4412 8.79281 24.1795C8.78341 24.4222 8.76125 24.6621 8.75185 24.9048C8.7446 25.2023 8.83066 25.3021 9.11102 25.3616C9.8119 25.5105 10.5 25.6566 11.2009 25.8054C11.5195 25.8731 11.6246 25.8139 11.7417 25.4989C11.9734 24.8821 12.7675 23.0663 12.9585 22.7806C13.1494 22.495 13.3543 22.4026 13.7429 22.322C13.9653 22.2741 14.2822 22.219 14.4739 22.1918C14.3147 22.3211 13.8556 22.6177 13.6168 22.8117C13.4422 22.9513 13.2405 22.9629 13.0772 23.3088C12.8492 23.7768 12.2662 25.3385 12.149 25.6534C11.946 26.1947 11.6462 26.3621 11.0855 26.2431C10.3846 26.0942 9.68369 25.9454 8.9828 25.7965C8.53679 25.7018 8.31152 25.4365 8.31495 24.9615C8.32465 24.3247 8.37992 22.6782 8.36335 22.498C8.32854 22.0149 8.14151 21.7577 7.71019 21.3943C7.65177 21.3547 7.61883 21.3205 7.53757 21.2625C7.09832 20.9381 6.78189 20.9253 6.38008 21.071C5.81958 21.2782 4.28568 21.9583 4.06806 22.048C3.66361 22.2068 3.34287 22.0843 3.0979 21.7197C2.68394 21.0745 2.28007 20.445 1.8661 19.7998C1.61368 19.4064 1.64426 19.0595 1.96578 18.72C2.19976 18.4843 3.49281 17.223 3.86098 16.7847C4.07213 16.5305 4.07409 16.259 4.0436 15.8856C4.00899 15.7287 3.99458 15.6033 3.97007 15.4622C3.87106 15.0334 3.75784 14.8055 3.44504 14.6439C2.91609 14.3685 1.28475 13.6958 1.03037 13.5739C0.60288 13.3879 0.454565 13.071 0.547195 12.6149C0.692755 11.8983 0.838316 11.1816 0.983877 10.465C1.10033 9.89163 1.36989 9.67704 1.94913 9.70489C2.5411 9.73546 4.10304 9.76812 4.29468 9.74085C4.74167 9.69985 5.02399 9.48796 5.31786 9.08823C5.39001 8.99482 5.39266 8.98179 5.44941 8.89869C5.67692 8.49846 5.79406 8.18353 5.65153 7.77269C5.4691 7.23103 4.80663 5.64958 4.70135 5.38257C4.53597 4.95327 4.64566 4.60958 5.03041 4.35148C5.646 3.93852 6.2616 3.52555 6.89258 3.10227C7.27733 2.84417 7.63199 2.86511 7.95871 3.21993C8.30827 3.59319 9.61565 4.9446 9.94551 5.21853C10.1511 5.38452 10.2711 5.38281 10.6363 5.35163C10.8407 5.32708 10.9506 5.30963 11.1348 5.2536C11.5106 5.17031 11.7335 5.05454 11.8862 4.76076C12.1582 4.20687 12.8468 2.51816 12.956 2.24232C13.1379 1.8052 13.4351 1.65084 13.8938 1.74827C14.5947 1.8971 15.2956 2.04594 15.9965 2.19478C16.5572 2.31385 16.7671 2.58948 16.7425 3.16872C16.7152 3.76099 16.6785 5.31629 16.6951 5.49651C16.7299 5.97963 16.8787 6.2287 17.3583 6.61599C17.4167 6.65558 17.4396 6.67403 17.4852 6.71091C17.9272 7.02223 18.3121 7.09038 18.7728 6.91637C19.3768 6.69125 19.9633 6.42162 20.5472 6.16502C20.7085 6.09054 20.8725 6.00304 21.044 5.9443C21.4277 5.82191 21.7357 5.94169 21.9605 6.27486C22.3644 6.90431 22.7682 7.53376 23.1822 8.17895C23.4649 8.61957 23.4317 8.9795 23.0412 9.33152C22.6146 9.73024 21.2643 11.1425 21.05 11.4776C20.9752 11.584 20.9636 11.7719 20.9881 11.913C21.0275 12.1117 20.991 12.2262 20.8876 12.4082C20.8255 12.5173 20.7714 12.5874 20.694 12.7068L20.6144 12.7715Z" stroke="black" stroke-width="0.75" stroke-linecap="round" stroke-linejoin="round"/>
<path d="M15.5487 19.3206C15.5511 19.7017 15.427 19.92 15.0634 20.0738C10.6693 22.0086 5.84127 18.6183 6.05012 13.7287C6.21555 9.90368 9.63915 6.988 13.3415 7.54315C16.3605 7.99396 18.5769 10.3675 18.8761 13.4757C18.9311 13.9903 19.0111 13.8578 18.4783 14.1252C18.4624 12.4364 17.9088 10.9732 16.7459 9.76125C15.8593 8.82539 14.7684 8.24035 13.5117 8.01424C10.9599 7.5539 8.38523 8.8421 7.19954 11.1456C5.97248 13.522 6.35275 16.3619 8.16643 18.2966C9.92434 20.1786 12.9084 20.8667 15.5487 19.3206Z" stroke="black" stroke-width="0.75" stroke-linecap="round" stroke-linejoin="round"/>
<path d="M20.991 15.3211C20.9096 14.3528 21.3881 13.7177 22.1722 13.7073C22.9969 13.6969 23.4653 14.3008 23.4144 15.269C23.8013 15.4877 24.2086 15.6751 24.5548 15.9249C25.6545 16.737 26.2145 17.851 26.2451 19.2358C26.2552 19.8084 26.2654 20.381 26.2451 20.9536C26.1941 22.0364 26.5607 22.9422 27.304 23.6918C27.5076 23.9001 27.5178 24.1395 27.416 24.379C27.3244 24.608 27.1411 24.7434 26.8967 24.7746C26.8356 24.7746 26.7847 24.7746 26.7236 24.7746C23.7097 24.7746 20.6958 24.7746 17.6818 24.7746C17.2135 24.7746 16.9182 24.5039 16.9385 24.0666C16.9385 23.9417 17.0098 23.8063 17.0913 23.7126C17.4782 23.2754 17.8447 22.8277 17.9975 22.2551C18.0891 21.9011 18.14 21.5263 18.1502 21.1619C18.1808 20.4018 18.1095 19.6314 18.1909 18.8714C18.364 17.1431 19.3008 15.977 20.879 15.3419C20.9198 15.3315 20.9503 15.3107 21.0012 15.3003L20.991 15.3211ZM22.1925 24.4414C22.4573 24.4414 22.7322 24.4414 22.9969 24.4414C24.229 24.4414 25.4508 24.4414 26.6829 24.4414C26.7542 24.4414 26.8254 24.4414 26.8967 24.431C27.1309 24.3686 27.2124 24.1083 27.0393 23.9313C26.2349 23.0984 25.8479 22.1093 25.8989 20.9328C25.9294 20.3914 25.8989 19.85 25.8989 19.2982C25.8989 17.5908 24.8399 16.1332 23.2515 15.6334C22.9766 15.5501 22.9664 15.5293 23.0478 15.2482C23.17 14.863 23.0275 14.4465 22.7118 14.2175C22.4064 13.9884 21.9889 13.9988 21.6733 14.2175C21.3576 14.4569 21.2252 14.8734 21.3474 15.2482C21.4289 15.5189 21.4187 15.5397 21.154 15.623C19.5452 16.1332 18.4862 17.5908 18.4862 19.319C18.4862 19.9854 18.5066 20.6413 18.4862 21.3076C18.476 21.6408 18.4251 21.9739 18.3437 22.2967C18.1808 22.9318 17.8346 23.4107 17.3967 23.8792C17.3153 23.9625 17.244 24.077 17.2847 24.2228C17.3255 24.3477 17.4171 24.431 17.7327 24.431C19.2193 24.431 20.7161 24.431 22.2027 24.431L22.1925 24.4414Z" stroke="black" stroke-width="0.75" stroke-linecap="round" stroke-linejoin="round"/>
<path d="M20.6754 25.139C20.879 25.0974 21.0114 25.1182 21.1438 25.3264C21.6223 26.1177 22.7729 26.1177 23.2515 25.3264C23.3737 25.1182 23.506 25.0974 23.6995 25.139C23.6282 25.6908 22.9766 26.2114 22.2842 26.2738C21.5816 26.3363 20.8689 25.847 20.6652 25.1494L20.6754 25.139Z" stroke="black" stroke-width="0.75" stroke-linecap="round" stroke-linejoin="round"/>
<path d="M24.5955 18.7985C24.5955 18.8609 24.5141 18.9338 24.4632 18.9338C24.3919 18.9338 24.3206 18.9026 24.2799 18.8401C24.1475 18.6631 24.0559 18.4653 23.9235 18.2883C23.557 17.799 23.0886 17.4554 22.5387 17.2055C22.498 17.1847 22.4675 17.1639 22.4267 17.1535C22.3147 17.1118 22.2435 17.0285 22.2842 16.914C22.3351 16.7787 22.4573 16.7787 22.5591 16.8411C22.8849 17.0181 23.2108 17.1847 23.5162 17.3929C23.9541 17.7053 24.2799 18.1217 24.5344 18.6007C24.565 18.6527 24.6057 18.7152 24.5955 18.7985Z" stroke="black" stroke-width="0.75" stroke-linecap="round" stroke-linejoin="round"/>
</svg>
