<svg width="28" height="28" viewBox="0 0 28 28" fill="none" xmlns="http://www.w3.org/2000/svg">
<path d="M20.6146 12.7715C20.5454 12.4578 20.4529 12.1935 20.4447 11.9063C20.4388 11.674 20.5071 11.403 20.6386 11.2135C20.9378 10.7877 22.3008 9.37813 22.6425 9.07012C22.8893 8.83707 22.8977 8.73013 22.7159 8.44687C22.3323 7.84889 21.9486 7.25091 21.5649 6.65293C21.3832 6.36968 21.294 6.35074 20.9893 6.47633C20.5514 6.66878 18.7951 7.39678 18.3349 7.50293C17.9718 7.58894 17.6814 7.51367 17.3361 7.25006C17.1736 7.13399 17.0541 7.06784 16.8942 6.93874C16.549 6.67514 16.3109 6.40712 16.2629 5.98915C16.201 5.37794 16.2248 3.49368 16.2399 3.1571C16.2525 2.83355 16.1792 2.73643 15.8733 2.67148C15.1852 2.52535 14.497 2.37922 13.8089 2.23309C13.4776 2.16273 13.3725 2.22197 13.2527 2.54993C13.0471 3.10431 12.2014 4.97715 11.9537 5.34591C11.8041 5.5588 11.5637 5.63007 11.3078 5.71166C11.0828 5.7726 10.9601 5.78734 10.6713 5.83475C10.2573 5.90993 9.97164 5.87646 9.69491 5.66818C9.30398 5.36768 7.96102 3.99512 7.6343 3.64031C7.40639 3.38802 7.30444 3.36638 7.02742 3.55221C6.42722 3.95485 5.8424 4.34716 5.24219 4.7498C4.99596 4.91498 4.95939 5.02955 5.07742 5.29927C5.26563 5.747 6.09661 7.67686 6.11289 8.25119C6.12367 8.52532 6.05055 8.75445 5.89567 8.99341C5.76148 9.19598 5.666 9.33881 5.53181 9.54138C5.28939 9.88407 5.07129 10.0416 4.72095 10.1303C4.10201 10.2979 2.17052 10.1868 1.84135 10.1713C1.53767 10.1612 1.44004 10.2492 1.37916 10.5489C1.23625 11.2525 1.09334 11.9561 0.950422 12.6597C0.881611 12.9985 0.939545 13.106 1.26029 13.2285C1.72865 13.4095 3.47155 14.1873 3.86032 14.433C4.15509 14.6179 4.27047 14.9007 4.36467 15.2877C4.41682 15.4891 4.43869 15.6432 4.48025 15.8967C4.52564 16.3277 4.52368 16.5991 4.32264 16.869C3.9773 17.3258 2.61691 18.7223 2.32402 18.9864C2.07729 19.2194 2.0715 19.3133 2.25325 19.5966C2.64702 20.2103 3.0408 20.824 3.43457 21.4377C3.58602 21.6738 3.69542 21.7242 3.9592 21.6035C4.32542 21.4366 5.99734 20.7315 6.47825 20.5889C6.91564 20.4643 7.26236 20.5244 7.71435 20.8514C7.87953 20.9545 7.98363 21.0309 8.12332 21.1286C8.42553 21.3423 8.63541 21.6179 8.71952 21.9891C8.87764 22.7159 8.83667 23.4412 8.79306 24.1795C8.78365 24.4222 8.7615 24.6621 8.75209 24.9048C8.74484 25.2023 8.83091 25.3021 9.11126 25.3616C9.81214 25.5105 10.5003 25.6566 11.2012 25.8054C11.5198 25.8731 11.6248 25.8139 11.742 25.4989C11.9736 24.8821 12.7678 23.0663 12.9587 22.7806C13.1497 22.495 13.3546 22.4026 13.7431 22.322C13.9655 22.2741 14.2825 22.219 14.4741 22.1918C14.3149 22.3211 13.8559 22.6177 13.6171 22.8117C13.4425 22.9513 13.2408 22.9629 13.0774 23.3088C12.8494 23.7768 12.2664 25.3385 12.1493 25.6534C11.9463 26.1947 11.6464 26.3621 11.0857 26.2431C10.3848 26.0942 9.68393 25.9454 8.98305 25.7965C8.53703 25.7018 8.31177 25.4365 8.31519 24.9615C8.32489 24.3247 8.38016 22.6782 8.36359 22.498C8.32879 22.0149 8.14175 21.7577 7.71044 21.3943C7.65201 21.3547 7.61908 21.3205 7.53781 21.2625C7.09856 20.9381 6.78213 20.9253 6.38033 21.071C5.81982 21.2782 4.28592 21.9583 4.06831 22.048C3.66386 22.2068 3.34312 22.0843 3.09815 21.7197C2.68418 21.0745 2.28031 20.445 1.86634 19.7998C1.61392 19.4064 1.6445 19.0595 1.96602 18.72C2.20001 18.4843 3.49305 17.223 3.86123 16.7847C4.07237 16.5305 4.07433 16.259 4.04384 15.8856C4.00924 15.7287 3.99483 15.6033 3.97032 15.4622C3.87131 15.0334 3.75809 14.8055 3.44529 14.6439C2.91634 14.3685 1.28499 13.6958 1.03062 13.5739C0.603125 13.3879 0.454809 13.071 0.547439 12.6149C0.693 11.8983 0.83856 11.1816 0.984121 10.465C1.10057 9.89163 1.37014 9.67704 1.94937 9.70489C2.54135 9.73546 4.10328 9.76812 4.29492 9.74085C4.74192 9.69985 5.02423 9.48796 5.31811 9.08823C5.39025 8.99482 5.3929 8.98179 5.44966 8.89869C5.67717 8.49846 5.79431 8.18353 5.65177 7.77269C5.46934 7.23103 4.80687 5.64958 4.70159 5.38257C4.53622 4.95327 4.6459 4.60958 5.03065 4.35148C5.64625 3.93852 6.26184 3.52555 6.89283 3.10227C7.27758 2.84417 7.63223 2.86511 7.95895 3.21993C8.30852 3.59319 9.61589 4.9446 9.94575 5.21853C10.1513 5.38452 10.2713 5.38281 10.6365 5.35163C10.8409 5.32708 10.9508 5.30963 11.135 5.2536C11.5108 5.17031 11.7337 5.05454 11.8865 4.76076C12.1585 4.20687 12.8471 2.51816 12.9563 2.24232C13.1381 1.8052 13.4353 1.65084 13.8941 1.74827C14.595 1.8971 15.2959 2.04594 15.9967 2.19478C16.5574 2.31385 16.7673 2.58948 16.7427 3.16872C16.7155 3.76099 16.6787 5.31629 16.6953 5.49651C16.7301 5.97963 16.8789 6.2287 17.3585 6.61599C17.417 6.65558 17.4398 6.67403 17.4855 6.71091C17.9274 7.02223 18.3123 7.09038 18.7731 6.91637C19.3771 6.69125 19.9636 6.42162 20.5474 6.16502C20.7088 6.09054 20.8728 6.00304 21.0442 5.9443C21.428 5.82191 21.736 5.94169 21.9607 6.27486C22.3646 6.90431 22.7685 7.53376 23.1825 8.17895C23.4652 8.61957 23.4319 8.9795 23.0414 9.33152C22.6148 9.73024 21.2645 11.1425 21.0502 11.4776C20.9754 11.584 20.9639 11.7719 20.9884 11.913C21.0278 12.1117 20.9912 12.2262 20.8878 12.4082C20.8258 12.5173 20.7717 12.5874 20.6942 12.7068L20.6146 12.7715Z" fill="white"/>
<path d="M15.549 19.3206C15.5513 19.7017 15.4272 19.92 15.0637 20.0738C10.6695 22.0086 5.84151 18.6183 6.05036 13.7287C6.21579 9.90368 9.6394 6.988 13.3417 7.54315C16.3607 7.99396 18.5771 10.3675 18.8763 13.4757C18.9313 13.9903 19.0114 13.8578 18.4785 14.1252C18.4626 12.4364 17.9091 10.9732 16.7462 9.76125C15.8595 8.82539 14.7687 8.24035 13.5119 8.01424C10.9601 7.5539 8.38547 8.8421 7.19978 11.1456C5.97272 13.522 6.35299 16.3619 8.16667 18.2966C9.92458 20.1786 12.9087 20.8667 15.549 19.3206Z" fill="white"/>
<path d="M20.9913 15.3211C20.9098 14.3528 21.3884 13.7177 22.1724 13.7073C22.9972 13.6969 23.4656 14.3008 23.4146 15.269C23.8016 15.4877 24.2089 15.6751 24.5551 15.9249C25.6547 16.737 26.2148 17.851 26.2453 19.2358C26.2555 19.8084 26.2657 20.381 26.2453 20.9536C26.1944 22.0364 26.5609 22.9422 27.3042 23.6918C27.5079 23.9001 27.5181 24.1395 27.4163 24.379C27.3246 24.608 27.1413 24.7434 26.897 24.7746C26.8359 24.7746 26.785 24.7746 26.7239 24.7746C23.7099 24.7746 20.696 24.7746 17.6821 24.7746C17.2137 24.7746 16.9184 24.5039 16.9388 24.0666C16.9388 23.9417 17.0101 23.8063 17.0915 23.7126C17.4784 23.2754 17.845 22.8277 17.9977 22.2551C18.0894 21.9011 18.1403 21.5263 18.1505 21.1619C18.181 20.4018 18.1097 19.6314 18.1912 18.8714C18.3643 17.1431 19.301 15.977 20.8793 15.3419C20.92 15.3315 20.9506 15.3107 21.0015 15.3003L20.9913 15.3211ZM22.1928 24.4414C22.4575 24.4414 22.7324 24.4414 22.9972 24.4414C24.2292 24.4414 25.4511 24.4414 26.6831 24.4414C26.7544 24.4414 26.8257 24.4414 26.897 24.431C27.1312 24.3686 27.2126 24.1083 27.0395 23.9313C26.2351 23.0984 25.8482 22.1093 25.8991 20.9328C25.9297 20.3914 25.8991 19.85 25.8991 19.2982C25.8991 17.5908 24.8402 16.1332 23.2517 15.6334C22.9768 15.5501 22.9666 15.5293 23.0481 15.2482C23.1703 14.863 23.0277 14.4465 22.7121 14.2175C22.4066 13.9884 21.9891 13.9988 21.6735 14.2175C21.3578 14.4569 21.2255 14.8734 21.3477 15.2482C21.4291 15.5189 21.4189 15.5397 21.1542 15.623C19.5454 16.1332 18.4865 17.5908 18.4865 19.319C18.4865 19.9854 18.5068 20.6413 18.4865 21.3076C18.4763 21.6408 18.4254 21.9739 18.3439 22.2967C18.181 22.9318 17.8348 23.4107 17.397 23.8792C17.3155 23.9625 17.2442 24.077 17.285 24.2228C17.3257 24.3477 17.4173 24.431 17.733 24.431C19.2196 24.431 20.7164 24.431 22.203 24.431L22.1928 24.4414Z" fill="white"/>
<path d="M20.6756 25.139C20.8793 25.0974 21.0117 25.1182 21.144 25.3264C21.6226 26.1177 22.7732 26.1177 23.2517 25.3264C23.3739 25.1182 23.5063 25.0974 23.6998 25.139C23.6285 25.6908 22.9768 26.2114 22.2844 26.2738C21.5819 26.3363 20.8691 25.847 20.6655 25.1494L20.6756 25.139Z" fill="white"/>
<path d="M24.5958 18.7985C24.5958 18.8609 24.5143 18.9338 24.4634 18.9338C24.3921 18.9338 24.3209 18.9026 24.2801 18.8401C24.1478 18.6631 24.0561 18.4653 23.9238 18.2883C23.5572 17.799 23.0888 17.4554 22.539 17.2055C22.4983 17.1847 22.4677 17.1639 22.427 17.1535C22.315 17.1118 22.2437 17.0285 22.2844 16.914C22.3353 16.7787 22.4575 16.7787 22.5593 16.8411C22.8852 17.0181 23.211 17.1847 23.5165 17.3929C23.9543 17.7053 24.2801 18.1217 24.5347 18.6007C24.5652 18.6527 24.606 18.7152 24.5958 18.7985Z" fill="white"/>
<path d="M20.6146 12.7715C20.5454 12.4578 20.4529 12.1935 20.4447 11.9063C20.4388 11.674 20.5071 11.403 20.6386 11.2135C20.9378 10.7877 22.3008 9.37813 22.6425 9.07012C22.8893 8.83707 22.8977 8.73013 22.7159 8.44687C22.3323 7.84889 21.9486 7.25091 21.5649 6.65293C21.3832 6.36968 21.294 6.35074 20.9893 6.47633C20.5514 6.66878 18.7951 7.39678 18.3349 7.50293C17.9718 7.58894 17.6814 7.51367 17.3361 7.25006C17.1736 7.13399 17.0541 7.06784 16.8942 6.93874C16.549 6.67514 16.3109 6.40712 16.2629 5.98915C16.201 5.37794 16.2248 3.49368 16.2399 3.1571C16.2525 2.83355 16.1792 2.73643 15.8733 2.67148C15.1852 2.52535 14.497 2.37922 13.8089 2.23309C13.4776 2.16273 13.3725 2.22197 13.2527 2.54993C13.0471 3.10431 12.2014 4.97715 11.9537 5.34591C11.8041 5.5588 11.5637 5.63007 11.3078 5.71166C11.0828 5.7726 10.9601 5.78734 10.6713 5.83475C10.2573 5.90993 9.97164 5.87646 9.69491 5.66818C9.30398 5.36768 7.96102 3.99512 7.6343 3.64031C7.40639 3.38802 7.30444 3.36638 7.02742 3.55221C6.42722 3.95485 5.8424 4.34716 5.24219 4.7498C4.99596 4.91498 4.95939 5.02955 5.07742 5.29927C5.26563 5.747 6.09661 7.67686 6.11289 8.25119C6.12367 8.52532 6.05055 8.75445 5.89567 8.99341C5.76148 9.19598 5.666 9.33881 5.53181 9.54138C5.28939 9.88407 5.07129 10.0416 4.72095 10.1303C4.10201 10.2979 2.17052 10.1868 1.84135 10.1713C1.53767 10.1612 1.44004 10.2492 1.37916 10.5489C1.23625 11.2525 1.09334 11.9561 0.950422 12.6597C0.881611 12.9985 0.939545 13.106 1.26029 13.2285C1.72865 13.4095 3.47155 14.1873 3.86032 14.433C4.15509 14.6179 4.27047 14.9007 4.36467 15.2877C4.41682 15.4891 4.43869 15.6432 4.48025 15.8967C4.52564 16.3277 4.52368 16.5991 4.32264 16.869C3.9773 17.3258 2.61691 18.7223 2.32402 18.9864C2.07729 19.2194 2.0715 19.3133 2.25325 19.5966C2.64702 20.2103 3.0408 20.824 3.43457 21.4377C3.58602 21.6738 3.69542 21.7242 3.9592 21.6035C4.32542 21.4366 5.99734 20.7315 6.47825 20.5889C6.91564 20.4643 7.26236 20.5244 7.71435 20.8514C7.87953 20.9545 7.98363 21.0309 8.12332 21.1286C8.42553 21.3423 8.63541 21.6179 8.71952 21.9891C8.87764 22.7159 8.83667 23.4412 8.79306 24.1795C8.78365 24.4222 8.7615 24.6621 8.75209 24.9048C8.74484 25.2023 8.83091 25.3021 9.11126 25.3616C9.81214 25.5105 10.5003 25.6566 11.2012 25.8054C11.5198 25.8731 11.6248 25.8139 11.742 25.4989C11.9736 24.8821 12.7678 23.0663 12.9587 22.7806C13.1497 22.495 13.3546 22.4026 13.7431 22.322C13.9655 22.2741 14.2825 22.219 14.4741 22.1918C14.3149 22.3211 13.8559 22.6177 13.6171 22.8117C13.4425 22.9513 13.2408 22.9629 13.0774 23.3088C12.8494 23.7768 12.2664 25.3385 12.1493 25.6534C11.9463 26.1947 11.6464 26.3621 11.0857 26.2431C10.3848 26.0942 9.68393 25.9454 8.98305 25.7965C8.53703 25.7018 8.31177 25.4365 8.31519 24.9615C8.32489 24.3247 8.38016 22.6782 8.36359 22.498C8.32879 22.0149 8.14175 21.7577 7.71044 21.3943C7.65201 21.3547 7.61908 21.3205 7.53781 21.2625C7.09856 20.9381 6.78213 20.9253 6.38033 21.071C5.81982 21.2782 4.28592 21.9583 4.06831 22.048C3.66386 22.2068 3.34312 22.0843 3.09815 21.7197C2.68418 21.0745 2.28031 20.445 1.86634 19.7998C1.61392 19.4064 1.6445 19.0595 1.96602 18.72C2.20001 18.4843 3.49305 17.223 3.86123 16.7847C4.07237 16.5305 4.07433 16.259 4.04384 15.8856C4.00924 15.7287 3.99483 15.6033 3.97032 15.4622C3.87131 15.0334 3.75809 14.8055 3.44529 14.6439C2.91634 14.3685 1.28499 13.6958 1.03062 13.5739C0.603125 13.3879 0.454809 13.071 0.547439 12.6149C0.693 11.8983 0.83856 11.1816 0.984121 10.465C1.10057 9.89163 1.37014 9.67704 1.94937 9.70489C2.54135 9.73546 4.10328 9.76812 4.29492 9.74085C4.74192 9.69985 5.02423 9.48796 5.31811 9.08823C5.39025 8.99482 5.3929 8.98179 5.44966 8.89869C5.67717 8.49846 5.79431 8.18353 5.65177 7.77269C5.46934 7.23103 4.80687 5.64958 4.70159 5.38257C4.53622 4.95327 4.6459 4.60958 5.03065 4.35148C5.64625 3.93852 6.26184 3.52555 6.89283 3.10227C7.27758 2.84417 7.63223 2.86511 7.95895 3.21993C8.30852 3.59319 9.61589 4.9446 9.94575 5.21853C10.1513 5.38452 10.2713 5.38281 10.6365 5.35163C10.8409 5.32708 10.9508 5.30963 11.135 5.2536C11.5108 5.17031 11.7337 5.05454 11.8865 4.76076C12.1585 4.20687 12.8471 2.51816 12.9563 2.24232C13.1381 1.8052 13.4353 1.65084 13.8941 1.74827C14.595 1.8971 15.2959 2.04594 15.9967 2.19478C16.5574 2.31385 16.7673 2.58948 16.7427 3.16872C16.7155 3.76099 16.6787 5.31629 16.6953 5.49651C16.7301 5.97963 16.8789 6.2287 17.3585 6.61599C17.417 6.65558 17.4398 6.67403 17.4855 6.71091C17.9274 7.02223 18.3123 7.09038 18.7731 6.91637C19.3771 6.69125 19.9636 6.42162 20.5474 6.16502C20.7088 6.09054 20.8728 6.00304 21.0442 5.9443C21.428 5.82191 21.736 5.94169 21.9607 6.27486C22.3646 6.90431 22.7685 7.53376 23.1825 8.17895C23.4652 8.61957 23.4319 8.9795 23.0414 9.33152C22.6148 9.73024 21.2645 11.1425 21.0502 11.4776C20.9754 11.584 20.9639 11.7719 20.9884 11.913C21.0278 12.1117 20.9912 12.2262 20.8878 12.4082C20.8258 12.5173 20.7717 12.5874 20.6942 12.7068L20.6146 12.7715Z" stroke="white" stroke-width="0.75" stroke-linecap="round" stroke-linejoin="round"/>
<path d="M15.549 19.3206C15.5513 19.7017 15.4272 19.92 15.0637 20.0738C10.6695 22.0086 5.84151 18.6183 6.05036 13.7287C6.21579 9.90368 9.6394 6.988 13.3417 7.54315C16.3607 7.99396 18.5771 10.3675 18.8763 13.4757C18.9313 13.9903 19.0114 13.8578 18.4785 14.1252C18.4626 12.4364 17.9091 10.9732 16.7462 9.76125C15.8595 8.82539 14.7687 8.24035 13.5119 8.01424C10.9601 7.5539 8.38547 8.8421 7.19978 11.1456C5.97272 13.522 6.35299 16.3619 8.16667 18.2966C9.92458 20.1786 12.9087 20.8667 15.549 19.3206Z" stroke="white" stroke-width="0.75" stroke-linecap="round" stroke-linejoin="round"/>
<path d="M20.9913 15.3211C20.9098 14.3528 21.3884 13.7177 22.1724 13.7073C22.9972 13.6969 23.4656 14.3008 23.4146 15.269C23.8016 15.4877 24.2089 15.6751 24.5551 15.9249C25.6547 16.737 26.2148 17.851 26.2453 19.2358C26.2555 19.8084 26.2657 20.381 26.2453 20.9536C26.1944 22.0364 26.5609 22.9422 27.3042 23.6918C27.5079 23.9001 27.5181 24.1395 27.4163 24.379C27.3246 24.608 27.1413 24.7434 26.897 24.7746C26.8359 24.7746 26.785 24.7746 26.7239 24.7746C23.7099 24.7746 20.696 24.7746 17.6821 24.7746C17.2137 24.7746 16.9184 24.5039 16.9388 24.0666C16.9388 23.9417 17.0101 23.8063 17.0915 23.7126C17.4784 23.2754 17.845 22.8277 17.9977 22.2551C18.0894 21.9011 18.1403 21.5263 18.1505 21.1619C18.181 20.4018 18.1097 19.6314 18.1912 18.8714C18.3643 17.1431 19.301 15.977 20.8793 15.3419C20.92 15.3315 20.9506 15.3107 21.0015 15.3003L20.9913 15.3211ZM22.1928 24.4414C22.4575 24.4414 22.7324 24.4414 22.9972 24.4414C24.2292 24.4414 25.4511 24.4414 26.6831 24.4414C26.7544 24.4414 26.8257 24.4414 26.897 24.431C27.1312 24.3686 27.2126 24.1083 27.0395 23.9313C26.2351 23.0984 25.8482 22.1093 25.8991 20.9328C25.9297 20.3914 25.8991 19.85 25.8991 19.2982C25.8991 17.5908 24.8402 16.1332 23.2517 15.6334C22.9768 15.5501 22.9666 15.5293 23.0481 15.2482C23.1703 14.863 23.0277 14.4465 22.7121 14.2175C22.4066 13.9884 21.9891 13.9988 21.6735 14.2175C21.3578 14.4569 21.2255 14.8734 21.3477 15.2482C21.4291 15.5189 21.4189 15.5397 21.1542 15.623C19.5454 16.1332 18.4865 17.5908 18.4865 19.319C18.4865 19.9854 18.5068 20.6413 18.4865 21.3076C18.4763 21.6408 18.4254 21.9739 18.3439 22.2967C18.181 22.9318 17.8348 23.4107 17.397 23.8792C17.3155 23.9625 17.2442 24.077 17.285 24.2228C17.3257 24.3477 17.4173 24.431 17.733 24.431C19.2196 24.431 20.7164 24.431 22.203 24.431L22.1928 24.4414Z" stroke="white" stroke-width="0.75" stroke-linecap="round" stroke-linejoin="round"/>
<path d="M20.6756 25.139C20.8793 25.0974 21.0117 25.1182 21.144 25.3264C21.6226 26.1177 22.7732 26.1177 23.2517 25.3264C23.3739 25.1182 23.5063 25.0974 23.6998 25.139C23.6285 25.6908 22.9768 26.2114 22.2844 26.2738C21.5819 26.3363 20.8691 25.847 20.6655 25.1494L20.6756 25.139Z" stroke="white" stroke-width="0.75" stroke-linecap="round" stroke-linejoin="round"/>
<path d="M24.5958 18.7985C24.5958 18.8609 24.5143 18.9338 24.4634 18.9338C24.3921 18.9338 24.3209 18.9026 24.2801 18.8401C24.1478 18.6631 24.0561 18.4653 23.9238 18.2883C23.5572 17.799 23.0888 17.4554 22.539 17.2055C22.4983 17.1847 22.4677 17.1639 22.427 17.1535C22.315 17.1118 22.2437 17.0285 22.2844 16.914C22.3353 16.7787 22.4575 16.7787 22.5593 16.8411C22.8852 17.0181 23.211 17.1847 23.5165 17.3929C23.9543 17.7053 24.2801 18.1217 24.5347 18.6007C24.5652 18.6527 24.606 18.7152 24.5958 18.7985Z" stroke="white" stroke-width="0.75" stroke-linecap="round" stroke-linejoin="round"/>
</svg>
