<svg width="32" height="32" viewBox="0 0 32 32" fill="none" xmlns="http://www.w3.org/2000/svg">
<path d="M13.2285 5.59441C13.0431 3.43794 14.1326 2.02348 15.9176 2.0003C17.7953 1.97711 18.8616 3.322 18.7457 5.47847C19.6266 5.96542 20.5539 6.3828 21.3421 6.93931C23.8457 8.74796 25.1207 11.2291 25.1902 14.313C25.2134 15.5884 25.2366 16.8637 25.1902 18.139C25.0743 20.5506 25.9088 22.5679 27.6011 24.2375C28.0647 24.7012 28.0879 25.2345 27.8561 25.7679C27.6474 26.278 27.2302 26.5794 26.6738 26.649C26.5347 26.649 26.4188 26.649 26.2797 26.649C19.418 26.649 12.5563 26.649 5.69451 26.649C4.62816 26.649 3.95589 26.0461 4.00225 25.0722C4.00225 24.794 4.16453 24.4925 4.34998 24.2838C5.23088 23.3099 6.06541 22.3129 6.41314 21.0375C6.62177 20.2491 6.73768 19.4144 6.76086 18.6028C6.83041 16.9101 6.66814 15.1942 6.85359 13.5015C7.24768 9.65229 9.38037 7.05525 12.9735 5.64079C13.0662 5.6176 13.1358 5.57123 13.2517 5.54804L13.2285 5.59441ZM15.9639 25.907C16.5667 25.907 17.1926 25.907 17.7953 25.907C20.6002 25.907 23.382 25.907 26.187 25.907C26.3493 25.907 26.5116 25.907 26.6738 25.8838C27.207 25.7447 27.3925 25.165 26.9984 24.7708C25.167 22.9157 24.2861 20.7129 24.402 18.0927C24.4716 16.8869 24.402 15.6811 24.402 14.4522C24.402 10.6494 21.9911 7.40306 18.3748 6.29005C17.7489 6.10454 17.7257 6.05817 17.9112 5.4321C18.1894 4.57415 17.8648 3.64663 17.1462 3.1365C16.4508 2.62637 15.5003 2.64956 14.7817 3.1365C14.0631 3.66982 13.7617 4.59734 14.0399 5.4321C14.2253 6.03498 14.2021 6.08136 13.5994 6.26686C9.93674 7.40307 7.52586 10.6494 7.52586 14.4986C7.52586 15.9826 7.57222 17.4434 7.52586 18.9274C7.50267 19.6694 7.38676 20.4115 7.20131 21.1303C6.83041 22.5447 6.04224 23.6114 5.04543 24.6548C4.85998 24.8403 4.6977 25.0954 4.79043 25.42C4.88316 25.6983 5.09179 25.8838 5.81042 25.8838C9.19493 25.8838 12.6026 25.8838 15.9871 25.8838L15.9639 25.907Z" fill="white"/>
<path d="M12.5099 27.4606C12.9735 27.3678 13.2749 27.4142 13.5762 27.878C14.6658 29.6402 17.2853 29.6402 18.3748 27.878C18.653 27.4142 18.9544 27.3678 19.3948 27.4606C19.2325 28.6895 17.7489 29.8489 16.1726 29.988C14.5731 30.1272 12.9503 29.0373 12.4867 27.4838L12.5099 27.4606Z" fill="white"/>
<path d="M21.4348 13.3392C21.4348 13.4783 21.2493 13.6406 21.1334 13.6406C20.9712 13.6406 20.8089 13.571 20.7162 13.4319C20.4148 13.0377 20.2062 12.5971 19.9048 12.203C19.0703 11.1131 18.0039 10.3479 16.7521 9.79142C16.6594 9.74504 16.5898 9.69867 16.4971 9.67548C16.2421 9.58273 16.0799 9.39722 16.1726 9.14215C16.2885 8.84071 16.5667 8.84071 16.7985 8.97984C17.5403 9.37403 18.2821 9.74504 18.9775 10.2088C19.9744 10.9044 20.7162 11.8319 21.2957 12.8986C21.3653 13.0145 21.458 13.1537 21.4348 13.3392Z" fill="white"/>
<path d="M13.2285 5.59441C13.0431 3.43794 14.1326 2.02348 15.9176 2.0003C17.7953 1.97711 18.8616 3.322 18.7457 5.47847C19.6266 5.96542 20.5539 6.3828 21.3421 6.93931C23.8457 8.74796 25.1207 11.2291 25.1902 14.313C25.2134 15.5884 25.2366 16.8637 25.1902 18.139C25.0743 20.5506 25.9088 22.5679 27.6011 24.2375C28.0647 24.7012 28.0879 25.2345 27.8561 25.7679C27.6474 26.278 27.2302 26.5794 26.6738 26.649C26.5347 26.649 26.4188 26.649 26.2797 26.649C19.418 26.649 12.5563 26.649 5.69451 26.649C4.62816 26.649 3.95589 26.0461 4.00225 25.0722C4.00225 24.794 4.16453 24.4925 4.34998 24.2838C5.23088 23.3099 6.06541 22.3129 6.41314 21.0375C6.62177 20.2491 6.73768 19.4144 6.76086 18.6028C6.83041 16.9101 6.66814 15.1942 6.85359 13.5015C7.24768 9.65229 9.38037 7.05525 12.9735 5.64079C13.0662 5.6176 13.1358 5.57123 13.2517 5.54804L13.2285 5.59441ZM15.9639 25.907C16.5667 25.907 17.1926 25.907 17.7953 25.907C20.6002 25.907 23.382 25.907 26.187 25.907C26.3493 25.907 26.5116 25.907 26.6738 25.8838C27.207 25.7447 27.3925 25.165 26.9984 24.7708C25.167 22.9157 24.2861 20.7129 24.402 18.0927C24.4716 16.8869 24.402 15.6811 24.402 14.4522C24.402 10.6494 21.9911 7.40306 18.3748 6.29005C17.7489 6.10454 17.7257 6.05817 17.9112 5.4321C18.1894 4.57415 17.8648 3.64663 17.1462 3.1365C16.4508 2.62637 15.5003 2.64956 14.7817 3.1365C14.0631 3.66982 13.7617 4.59734 14.0399 5.4321C14.2253 6.03498 14.2021 6.08136 13.5994 6.26686C9.93674 7.40307 7.52586 10.6494 7.52586 14.4986C7.52586 15.9826 7.57222 17.4434 7.52586 18.9274C7.50267 19.6694 7.38676 20.4115 7.20131 21.1303C6.83041 22.5447 6.04224 23.6114 5.04543 24.6548C4.85998 24.8403 4.6977 25.0954 4.79043 25.42C4.88316 25.6983 5.09179 25.8838 5.81042 25.8838C9.19493 25.8838 12.6026 25.8838 15.9871 25.8838L15.9639 25.907Z" stroke="white" stroke-width="0.75" stroke-linecap="round" stroke-linejoin="round"/>
<path d="M12.5099 27.4606C12.9735 27.3678 13.2749 27.4142 13.5762 27.878C14.6658 29.6402 17.2853 29.6402 18.3748 27.878C18.653 27.4142 18.9544 27.3678 19.3948 27.4606C19.2325 28.6895 17.7489 29.8489 16.1726 29.988C14.5731 30.1272 12.9503 29.0373 12.4867 27.4838L12.5099 27.4606Z" stroke="white" stroke-width="0.75" stroke-linecap="round" stroke-linejoin="round"/>
<path d="M21.4348 13.3392C21.4348 13.4783 21.2493 13.6406 21.1334 13.6406C20.9712 13.6406 20.8089 13.571 20.7162 13.4319C20.4148 13.0377 20.2062 12.5971 19.9048 12.203C19.0703 11.1131 18.0039 10.3479 16.7521 9.79142C16.6594 9.74504 16.5898 9.69867 16.4971 9.67548C16.2421 9.58273 16.0799 9.39722 16.1726 9.14215C16.2885 8.84071 16.5667 8.84071 16.7985 8.97984C17.5403 9.37403 18.2821 9.74504 18.9775 10.2088C19.9744 10.9044 20.7162 11.8319 21.2957 12.8986C21.3653 13.0145 21.458 13.1537 21.4348 13.3392Z" stroke="white" stroke-width="0.75" stroke-linecap="round" stroke-linejoin="round"/>
</svg>
