<svg width="22" height="26" viewBox="0 0 22 26" fill="none" xmlns="http://www.w3.org/2000/svg">
<path d="M17.4706 11.31C17.4706 11.6783 17.4382 12.0467 17.3735 12.415C17.3088 12.7833 17.201 13.1408 17.05 13.4875C16.899 13.8558 16.651 14.1158 16.3059 14.2675C15.9608 14.4192 15.6157 14.4083 15.2706 14.235C14.9471 14.0833 14.7206 13.8342 14.5912 13.4875C14.4618 13.1408 14.4833 12.8158 14.6559 12.5125C14.7637 12.3175 14.8284 12.1225 14.85 11.9275C14.8716 11.7325 14.8824 11.5267 14.8824 11.31C14.8824 11.0933 14.8664 10.8823 14.8345 10.6769C14.8026 10.4715 14.743 10.2709 14.6559 10.075C14.5265 9.77167 14.5265 9.46833 14.6559 9.165C14.7853 8.86167 15.001 8.63417 15.3029 8.4825C15.6265 8.33083 15.9556 8.32563 16.2904 8.4669C16.6251 8.60817 16.8783 8.84087 17.05 9.165C17.2225 9.51167 17.336 9.86397 17.3904 10.2219C17.4447 10.5798 17.4715 10.9425 17.4706 11.31ZM22 11.31C22 12.3933 21.8382 13.4442 21.5147 14.4625C21.1912 15.4808 20.7059 16.4233 20.0588 17.29C19.8647 17.55 19.5895 17.6748 19.2332 17.6644C18.8769 17.654 18.5805 17.5292 18.3441 17.29C18.1077 17.0508 17.9783 16.7583 17.9559 16.4125C17.9335 16.0667 18.0197 15.7417 18.2147 15.4375C18.6245 14.8308 18.9265 14.1752 19.1206 13.4706C19.3147 12.766 19.4118 12.0458 19.4118 11.31C19.4118 10.5742 19.3147 9.854 19.1206 9.1494C18.9265 8.4448 18.6245 7.78917 18.2147 7.1825C18.0206 6.87917 17.9343 6.55417 17.9559 6.2075C17.9775 5.86084 18.1069 5.56834 18.3441 5.33C18.5814 5.09167 18.8782 4.9673 19.2345 4.9569C19.5908 4.9465 19.8656 5.07087 20.0588 5.33C20.7059 6.19667 21.1912 7.13917 21.5147 8.1575C21.8382 9.17583 22 10.2267 22 11.31ZM10.3529 26C9.64118 26 9.03208 25.7456 8.52565 25.2369C8.01922 24.7282 7.76557 24.1159 7.76471 23.4H12.9412C12.9412 24.115 12.688 24.7273 12.1815 25.2369C11.6751 25.7465 11.0656 26.0009 10.3529 26ZM1.29412 22.1C0.927455 22.1 0.620318 21.9752 0.37271 21.7256C0.125103 21.476 0.000867207 21.1675 4.46247e-06 20.8C-0.000858282 20.4325 0.123377 20.124 0.37271 19.8744C0.622044 19.6248 0.929181 19.5 1.29412 19.5H2.58824V10.4C2.58824 8.60167 3.12745 7.00397 4.20589 5.6069C5.28432 4.20984 6.68628 3.2942 8.41177 2.86V1.95C8.41177 1.40834 8.60071 0.948136 8.97859 0.569403C9.35647 0.19067 9.81459 0.000869621 10.3529 2.95455e-06C10.8913 -0.000863712 11.3498 0.188936 11.7286 0.569403C12.1073 0.949869 12.2958 1.41007 12.2941 1.95V2.86C12.5961 2.94667 12.8929 3.04417 13.1845 3.1525C13.4761 3.26084 13.7616 3.39084 14.0412 3.5425C14.451 3.78084 14.6723 4.1275 14.7051 4.5825C14.7378 5.0375 14.5813 5.43833 14.2353 5.785L12.4235 7.6375C12.1863 7.87583 11.9978 8.1523 11.858 8.4669C11.7182 8.7815 11.6479 9.1117 11.6471 9.4575V13.1625C11.6471 13.5092 11.7118 13.8398 11.8412 14.1544C11.9706 14.469 12.1539 14.745 12.3912 14.9825L17.2765 19.89C17.6863 20.3017 17.7782 20.7727 17.5521 21.3031C17.3261 21.8335 16.9215 22.0991 16.3382 22.1H1.29412Z" fill="white"/>
</svg>
