<svg width="26" height="28" viewBox="0 0 26 28" fill="none" xmlns="http://www.w3.org/2000/svg">
<path d="M13 28.0001C13.9283 28.0001 14.8185 27.6313 15.4749 26.9749C16.1313 26.3186 16.5 25.4283 16.5 24.5001H9.5C9.5 25.4283 9.86875 26.3186 10.5251 26.9749C11.1815 27.6313 12.0717 28.0001 13 28.0001ZM14.7413 1.92332C14.7657 1.67999 14.7388 1.43424 14.6624 1.20192C14.5861 0.969602 14.4618 0.755873 14.2978 0.574518C14.1337 0.393163 13.9334 0.248207 13.7099 0.148999C13.4864 0.0497917 13.2446 -0.00146484 13 -0.00146484C12.7554 -0.00146484 12.5136 0.0497917 12.2901 0.148999C12.0666 0.248207 11.8663 0.393163 11.7022 0.574518C11.5382 0.755873 11.4139 0.969602 11.3376 1.20192C11.2612 1.43424 11.2343 1.67999 11.2587 1.92332C9.28045 2.32503 7.50191 3.39842 6.22455 4.96155C4.94719 6.52468 4.2496 8.4814 4.25 10.5001C4.25 12.4216 3.375 21.0001 0.75 22.7501H25.25C22.625 21.0001 21.75 12.4216 21.75 10.5001C21.75 6.26507 18.74 2.73007 14.7413 1.92332Z" fill="white"/>
</svg>
