<svg width="29" height="28" viewBox="0 0 29 28" fill="none" xmlns="http://www.w3.org/2000/svg">
<path d="M14.0264 0C6.29814 0 0.0263672 6.27177 0.0263672 14C0.0263672 21.7282 6.2925 28 14.0264 28C21.7602 28 28.0264 21.7339 28.0264 14C28.0264 6.26613 21.7546 0 14.0264 0ZM14.0264 22.1065C13.1288 22.1065 12.4006 21.3782 12.4006 20.4806C12.4006 19.5774 13.1288 18.8435 14.032 18.8492C14.9352 18.8492 15.6635 19.5831 15.6578 20.4863C15.6578 21.3839 14.9239 22.1065 14.0264 22.1065ZM18.0965 17.7597C17.7183 18.1379 17.1256 18.1323 16.7304 17.7484C15.2062 16.2637 12.8578 16.2581 11.328 17.7371C11.057 18.0024 10.7352 18.104 10.3683 17.9968C10.0183 17.8952 9.78685 17.6581 9.70217 17.3024C9.6175 16.9581 9.70217 16.6476 9.95621 16.3992C10.8143 15.5468 11.836 15.0105 13.0215 14.8073C13.3546 14.7508 13.6877 14.7339 13.8852 14.7113C15.5901 14.7452 16.9449 15.2871 18.0683 16.3823C18.4635 16.7661 18.4691 17.3758 18.0909 17.754L18.0965 17.7597ZM21.3877 14.2935C21.2804 14.6548 21.032 14.875 20.6651 14.9597C20.5973 14.9766 20.5296 14.9766 20.5014 14.9823C20.1852 14.9823 19.9594 14.8637 19.7619 14.6661C18.7062 13.6218 17.4586 12.8935 16.0078 12.5605C13.0667 11.8887 10.4812 12.5944 8.28524 14.6718C7.9804 14.9597 7.63604 15.0613 7.24088 14.9202C6.58604 14.6831 6.41104 13.8476 6.90217 13.3508C7.72637 12.521 8.66346 11.8605 9.72475 11.3637C11.2715 10.6355 12.903 10.3194 14.6022 10.421C17.1312 10.579 19.3102 11.55 21.1223 13.3282C21.3989 13.5992 21.4949 13.9266 21.382 14.2935H21.3877ZM23.8433 11.7758C23.4989 11.8435 23.2054 11.7363 22.957 11.4879C22.0312 10.5677 20.9925 9.80564 19.8296 9.20726C18.5651 8.55806 17.2215 8.12903 15.8102 7.93145C13.3151 7.5871 10.9215 7.94274 8.63524 9.00403C7.30863 9.61935 6.13443 10.4548 5.09572 11.4879C4.72879 11.8548 4.1925 11.8944 3.80298 11.5895C3.6054 11.4315 3.49814 11.2226 3.44169 10.9798V10.6919C3.49814 10.4492 3.62234 10.2516 3.79734 10.0766C4.90943 8.9871 6.16266 8.08387 7.56266 7.39516C9.26185 6.55403 11.057 6.06855 12.9538 5.92742C13.1175 5.91613 13.2812 5.89919 13.4506 5.8879H14.6135C14.7828 5.90484 14.9522 5.91613 15.1215 5.93306C17.453 6.10806 19.6151 6.80242 21.6135 8.01048C22.607 8.61452 23.5102 9.32581 24.3288 10.15C24.5941 10.421 24.6844 10.7427 24.5715 11.1097C24.4586 11.471 24.2102 11.6911 23.8433 11.7645V11.7758Z" fill="#1C2747"/>
</svg>
