<svg width="23" height="23" viewBox="0 0 23 23" fill="none" xmlns="http://www.w3.org/2000/svg">
<path d="M8.08019 6.25577L8.08019 3.19872C8.08019 2.79335 8.24123 2.40449 8.52788 2.1179C8.81454 1.8313 9.20332 1.67019 9.60871 1.67019L20.3084 1.67019C20.7138 1.67019 21.1026 1.8313 21.3892 2.1179C21.6759 2.4045 21.8369 2.79335 21.8369 3.19872L21.8369 20.0125C21.8369 20.4179 21.6759 20.8067 21.3892 21.0933C21.1026 21.38 20.7138 21.541 20.3084 21.541L9.60871 21.541C9.20332 21.541 8.81454 21.38 8.52788 21.0933C8.24123 20.8067 8.08019 20.4179 8.08019 20.0125L8.08019 16.9554" stroke="#EF8018" stroke-width="2" stroke-linecap="round" stroke-linejoin="round"/>
<path d="M1.96516 11.6045L14.1934 11.6045" stroke="#EF8018" stroke-width="2" stroke-linecap="round" stroke-linejoin="round"/>
<path d="M11.1363 14.6621L14.1934 11.6051L11.1363 8.54801" stroke="#EF8018" stroke-width="2" stroke-linecap="round" stroke-linejoin="round"/>
</svg>
