<svg width="32" height="29" viewBox="0 0 32 29" fill="none" xmlns="http://www.w3.org/2000/svg">
<path d="M11.8213 7.42013L11.8213 3.35112C11.8213 2.81157 12.0357 2.294 12.4172 1.91253C12.7988 1.53106 13.3162 1.31662 13.8558 1.31662L28.0973 1.31662C28.6369 1.31662 29.1544 1.53106 29.5359 1.91253C29.9175 2.294 30.1318 2.81158 30.1318 3.35112L30.1318 25.7306C30.1318 26.2702 29.9175 26.7877 29.5359 27.1692C29.1544 27.5508 28.6369 27.7651 28.0973 27.7651L13.8558 27.7651C13.3162 27.7651 12.7988 27.5508 12.4172 27.1692C12.0357 26.7877 11.8213 26.2702 11.8213 25.7306L11.8213 21.6616" stroke="#0B1734" stroke-width="2" stroke-linecap="round" stroke-linejoin="round"/>
<path d="M3.68102 14.5381L19.957 14.5381" stroke="#0B1734" stroke-width="2" stroke-linecap="round" stroke-linejoin="round"/>
<path d="M5.44888 18.6089L1.37988 14.5399L5.44888 10.4709" stroke="#0B1734" stroke-width="2" stroke-linecap="round" stroke-linejoin="round"/>
</svg>
