<svg width="22" height="23" viewBox="0 0 22 23" fill="none" xmlns="http://www.w3.org/2000/svg">
<g clip-path="url(#clip0_121_99)">
<path d="M8.9375 11.8691C8.75516 11.8691 8.5803 11.9416 8.45136 12.0705C8.32243 12.1994 8.25 12.3743 8.25 12.5566C8.25 12.739 8.32243 12.9138 8.45136 13.0428C8.5803 13.1717 8.75516 13.2441 8.9375 13.2441C9.11984 13.2441 9.2947 13.1717 9.42364 13.0428C9.55257 12.9138 9.625 12.739 9.625 12.5566C9.625 12.3743 9.55257 12.1994 9.42364 12.0705C9.2947 11.9416 9.11984 11.8691 8.9375 11.8691ZM11.6875 11.8691C11.5052 11.8691 11.3303 11.9416 11.2014 12.0705C11.0724 12.1994 11 12.3743 11 12.5566C11 12.739 11.0724 12.9138 11.2014 13.0428C11.3303 13.1717 11.5052 13.2441 11.6875 13.2441C11.8698 13.2441 12.0447 13.1717 12.1736 13.0428C12.3026 12.9138 12.375 12.739 12.375 12.5566C12.375 12.3743 12.3026 12.1994 12.1736 12.0705C12.0447 11.9416 11.8698 11.8691 11.6875 11.8691ZM13.75 12.5566C13.75 12.3743 13.8224 12.1994 13.9514 12.0705C14.0803 11.9416 14.2552 11.8691 14.4375 11.8691C14.6198 11.8691 14.7947 11.9416 14.9236 12.0705C15.0526 12.1994 15.125 12.3743 15.125 12.5566C15.125 12.739 15.0526 12.9138 14.9236 13.0428C14.7947 13.1717 14.6198 13.2441 14.4375 13.2441C14.2552 13.2441 14.0803 13.1717 13.9514 13.0428C13.8224 12.9138 13.75 12.739 13.75 12.5566ZM17.1875 11.8691C17.0052 11.8691 16.8303 11.9416 16.7014 12.0705C16.5724 12.1994 16.5 12.3743 16.5 12.5566C16.5 12.739 16.5724 12.9138 16.7014 13.0428C16.8303 13.1717 17.0052 13.2441 17.1875 13.2441C17.3698 13.2441 17.5447 13.1717 17.6736 13.0428C17.8026 12.9138 17.875 12.739 17.875 12.5566C17.875 12.3743 17.8026 12.1994 17.6736 12.0705C17.5447 11.9416 17.3698 11.8691 17.1875 11.8691Z" fill="white"/>
<path fill-rule="evenodd" clip-rule="evenodd" d="M5.44482 1.30246C5.37032 1.14319 5.23773 1.01842 5.07422 0.953746C4.9107 0.889066 4.72864 0.889365 4.56534 0.95458C4.40204 1.01979 4.26986 1.14499 4.19588 1.30451C4.12191 1.46403 4.11173 1.64581 4.16745 1.81259L6.5462 7.73884H5.49982C4.22107 7.73884 3.58857 7.73884 3.05232 7.87909C2.35346 8.06662 1.71622 8.43468 1.20457 8.94633C0.692912 9.45799 0.324849 10.0952 0.13732 10.7941C-0.00292969 11.3193 -0.00292969 11.9573 -0.00292969 13.2416C-0.00292969 14.5203 -0.00292969 15.1528 0.13732 15.6891C0.324849 16.388 0.692912 17.0252 1.20457 17.5368C1.71622 18.0485 2.35346 18.4166 3.05232 18.6041C3.57757 18.7443 4.21557 18.7443 5.49982 18.7443H16.4998C17.7786 18.7443 18.4248 18.7443 18.9473 18.6041C19.6462 18.4166 20.2834 18.0485 20.7951 17.5368C21.3067 17.0252 21.6748 16.388 21.8623 15.6891C22.0026 15.1638 22.0026 14.5245 22.0026 13.2416C22.0026 11.9628 22.0026 11.3303 21.8623 10.7941C21.6748 10.0952 21.3067 9.45799 20.7951 8.94633C20.2834 8.43468 19.6462 8.06662 18.9473 7.87909C18.4221 7.73884 17.7841 7.73884 16.4998 7.73884H15.4521L17.8308 1.81259C17.868 1.72814 17.8878 1.63707 17.889 1.54481C17.8902 1.45255 17.8729 1.36099 17.838 1.27558C17.8031 1.19017 17.7513 1.11266 17.6858 1.04766C17.6204 0.982667 17.5425 0.931521 17.4568 0.897269C17.3711 0.863018 17.2794 0.846363 17.1872 0.848295C17.0949 0.850228 17.004 0.87071 16.9198 0.90852C16.8357 0.94633 16.76 1.00069 16.6973 1.06837C16.6346 1.13606 16.5861 1.21567 16.5548 1.30246L13.9836 7.75121H8.04357L5.47232 1.30246H5.44482ZM14.4511 9.12621H5.48882C4.12207 9.12621 3.70132 9.13859 3.39882 9.21972C2.45007 9.47409 1.70757 10.2152 1.46007 11.1585C1.37757 11.4637 1.36657 11.8776 1.36657 13.2485C1.36657 14.6152 1.37895 15.036 1.46007 15.3385C1.71445 16.2872 2.45557 17.0297 3.39882 17.2772C3.70407 17.3597 4.11795 17.3707 5.48882 17.3707H16.4888C17.8556 17.3707 18.2763 17.3597 18.5788 17.2772C19.044 17.1532 19.4681 16.9086 19.8085 16.5682C20.1489 16.2278 20.3935 15.8036 20.5176 15.3385C20.6001 15.0332 20.6111 14.6193 20.6111 13.2485C20.6111 11.8817 20.6001 11.461 20.5176 11.1585C20.3935 10.6933 20.1489 10.2691 19.8085 9.92874C19.4681 9.58834 19.044 9.34377 18.5788 9.21972C18.2736 9.13721 17.8597 9.12621 16.4888 9.12621H14.4401H14.4511Z" fill="white"/>
</g>
<defs>
<clipPath id="clip0_121_99">
<rect width="22" height="22" fill="white" transform="translate(0 0.869141)"/>
</clipPath>
</defs>
</svg>
