<svg width="23" height="23" viewBox="0 0 23 23" fill="none" xmlns="http://www.w3.org/2000/svg">
<g clip-path="url(#clip0_238_601)">
<path d="M9.8125 11.8691C9.63016 11.8691 9.4553 11.9416 9.32636 12.0705C9.19743 12.1994 9.125 12.3743 9.125 12.5566C9.125 12.739 9.19743 12.9138 9.32636 13.0428C9.4553 13.1717 9.63016 13.2441 9.8125 13.2441C9.99484 13.2441 10.1697 13.1717 10.2986 13.0428C10.4276 12.9138 10.5 12.739 10.5 12.5566C10.5 12.3743 10.4276 12.1994 10.2986 12.0705C10.1697 11.9416 9.99484 11.8691 9.8125 11.8691ZM12.5625 11.8691C12.3802 11.8691 12.2053 11.9416 12.0764 12.0705C11.9474 12.1994 11.875 12.3743 11.875 12.5566C11.875 12.739 11.9474 12.9138 12.0764 13.0428C12.2053 13.1717 12.3802 13.2441 12.5625 13.2441C12.7448 13.2441 12.9197 13.1717 13.0486 13.0428C13.1776 12.9138 13.25 12.739 13.25 12.5566C13.25 12.3743 13.1776 12.1994 13.0486 12.0705C12.9197 11.9416 12.7448 11.8691 12.5625 11.8691ZM14.625 12.5566C14.625 12.3743 14.6974 12.1994 14.8264 12.0705C14.9553 11.9416 15.1302 11.8691 15.3125 11.8691C15.4948 11.8691 15.6697 11.9416 15.7986 12.0705C15.9276 12.1994 16 12.3743 16 12.5566C16 12.739 15.9276 12.9138 15.7986 13.0428C15.6697 13.1717 15.4948 13.2441 15.3125 13.2441C15.1302 13.2441 14.9553 13.1717 14.8264 13.0428C14.6974 12.9138 14.625 12.739 14.625 12.5566ZM18.0625 11.8691C17.8802 11.8691 17.7053 11.9416 17.5764 12.0705C17.4474 12.1994 17.375 12.3743 17.375 12.5566C17.375 12.739 17.4474 12.9138 17.5764 13.0428C17.7053 13.1717 17.8802 13.2441 18.0625 13.2441C18.2448 13.2441 18.4197 13.1717 18.5486 13.0428C18.6776 12.9138 18.75 12.739 18.75 12.5566C18.75 12.3743 18.6776 12.1994 18.5486 12.0705C18.4197 11.9416 18.2448 11.8691 18.0625 11.8691Z" fill="#0B1734"/>
<path fill-rule="evenodd" clip-rule="evenodd" d="M6.31982 1.30246C6.24532 1.14319 6.11273 1.01842 5.94922 0.953746C5.7857 0.889066 5.60364 0.889365 5.44034 0.95458C5.27704 1.01979 5.14486 1.14499 5.07088 1.30451C4.99691 1.46403 4.98673 1.64581 5.04245 1.81259L7.4212 7.73884H6.37482C5.09607 7.73884 4.46357 7.73884 3.92732 7.87909C3.22846 8.06662 2.59122 8.43468 2.07957 8.94633C1.56791 9.45799 1.19985 10.0952 1.01232 10.7941C0.87207 11.3193 0.87207 11.9573 0.87207 13.2416C0.87207 14.5203 0.87207 15.1528 1.01232 15.6891C1.19985 16.388 1.56791 17.0252 2.07957 17.5368C2.59122 18.0485 3.22846 18.4166 3.92732 18.6041C4.45257 18.7443 5.09057 18.7443 6.37482 18.7443H17.3748C18.6536 18.7443 19.2998 18.7443 19.8223 18.6041C20.5212 18.4166 21.1584 18.0485 21.6701 17.5368C22.1817 17.0252 22.5498 16.388 22.7373 15.6891C22.8776 15.1638 22.8776 14.5245 22.8776 13.2416C22.8776 11.9628 22.8776 11.3303 22.7373 10.7941C22.5498 10.0952 22.1817 9.45799 21.6701 8.94633C21.1584 8.43468 20.5212 8.06662 19.8223 7.87909C19.2971 7.73884 18.6591 7.73884 17.3748 7.73884H16.3271L18.7058 1.81259C18.743 1.72814 18.7628 1.63707 18.764 1.54481C18.7652 1.45255 18.7479 1.36099 18.713 1.27558C18.6781 1.19017 18.6263 1.11266 18.5608 1.04766C18.4954 0.982667 18.4175 0.931521 18.3318 0.897269C18.2461 0.863018 18.1544 0.846363 18.0622 0.848295C17.9699 0.850228 17.879 0.87071 17.7948 0.90852C17.7107 0.94633 17.635 1.00069 17.5723 1.06837C17.5096 1.13606 17.4611 1.21567 17.4298 1.30246L14.8586 7.75121H8.91857L6.34732 1.30246H6.31982ZM15.3261 9.12621H6.36382C4.99707 9.12621 4.57632 9.13859 4.27382 9.21972C3.32507 9.47409 2.58257 10.2152 2.33507 11.1585C2.25257 11.4637 2.24157 11.8776 2.24157 13.2485C2.24157 14.6152 2.25395 15.036 2.33507 15.3385C2.58945 16.2872 3.33057 17.0297 4.27382 17.2772C4.57907 17.3597 4.99295 17.3707 6.36382 17.3707H17.3638C18.7306 17.3707 19.1513 17.3597 19.4538 17.2772C19.919 17.1532 20.3431 16.9086 20.6835 16.5682C21.0239 16.2278 21.2685 15.8036 21.3926 15.3385C21.4751 15.0332 21.4861 14.6193 21.4861 13.2485C21.4861 11.8817 21.4751 11.461 21.3926 11.1585C21.2685 10.6933 21.0239 10.2691 20.6835 9.92874C20.3431 9.58834 19.919 9.34377 19.4538 9.21972C19.1486 9.13721 18.7347 9.12621 17.3638 9.12621H15.3151H15.3261Z" fill="#0B1734"/>
</g>
<defs>
<clipPath id="clip0_238_601">
<rect width="22" height="22" fill="white" transform="translate(0.875 0.869141)"/>
</clipPath>
</defs>
</svg>
