<svg width="23" height="23" viewBox="0 0 23 23" fill="none" xmlns="http://www.w3.org/2000/svg">
<g clip-path="url(#clip0_121_81)">
<path d="M9.92188 11.5605C9.73954 11.5605 9.56467 11.633 9.43574 11.7619C9.30681 11.8908 9.23438 12.0657 9.23438 12.248C9.23438 12.4304 9.30681 12.6053 9.43574 12.7342C9.56467 12.8631 9.73954 12.9355 9.92188 12.9355C10.1042 12.9355 10.2791 12.8631 10.408 12.7342C10.5369 12.6053 10.6094 12.4304 10.6094 12.248C10.6094 12.0657 10.5369 11.8908 10.408 11.7619C10.2791 11.633 10.1042 11.5605 9.92188 11.5605ZM12.6719 11.5605C12.4895 11.5605 12.3147 11.633 12.1857 11.7619C12.0568 11.8908 11.9844 12.0657 11.9844 12.248C11.9844 12.4304 12.0568 12.6053 12.1857 12.7342C12.3147 12.8631 12.4895 12.9355 12.6719 12.9355C12.8542 12.9355 13.0291 12.8631 13.158 12.7342C13.2869 12.6053 13.3594 12.4304 13.3594 12.248C13.3594 12.0657 13.2869 11.8908 13.158 11.7619C13.0291 11.633 12.8542 11.5605 12.6719 11.5605ZM14.7344 12.248C14.7344 12.0657 14.8068 11.8908 14.9357 11.7619C15.0647 11.633 15.2395 11.5605 15.4219 11.5605C15.6042 11.5605 15.7791 11.633 15.908 11.7619C16.0369 11.8908 16.1094 12.0657 16.1094 12.248C16.1094 12.4304 16.0369 12.6053 15.908 12.7342C15.7791 12.8631 15.6042 12.9355 15.4219 12.9355C15.2395 12.9355 15.0647 12.8631 14.9357 12.7342C14.8068 12.6053 14.7344 12.4304 14.7344 12.248ZM18.1719 11.5605C17.9895 11.5605 17.8147 11.633 17.6857 11.7619C17.5568 11.8908 17.4844 12.0657 17.4844 12.248C17.4844 12.4304 17.5568 12.6053 17.6857 12.7342C17.8147 12.8631 17.9895 12.9355 18.1719 12.9355C18.3542 12.9355 18.5291 12.8631 18.658 12.7342C18.7869 12.6053 18.8594 12.4304 18.8594 12.248C18.8594 12.0657 18.7869 11.8908 18.658 11.7619C18.5291 11.633 18.3542 11.5605 18.1719 11.5605Z" fill="#1C2747"/>
<path fill-rule="evenodd" clip-rule="evenodd" d="M6.4292 0.993871C6.3547 0.834591 6.22211 0.709831 6.05859 0.645152C5.89508 0.580473 5.71302 0.580771 5.54972 0.645986C5.38642 0.711201 5.25424 0.836395 5.18026 0.995917C5.10628 1.15544 5.09611 1.33721 5.15182 1.504L7.53057 7.43025H6.48419C5.20544 7.43025 4.57295 7.43025 4.0367 7.5705C3.33783 7.75803 2.70059 8.12609 2.18894 8.63774C1.67729 9.14939 1.30922 9.78663 1.1217 10.4855C0.981445 11.0107 0.981445 11.6487 0.981445 12.933C0.981445 14.2117 0.981445 14.8442 1.1217 15.3805C1.30922 16.0794 1.67729 16.7166 2.18894 17.2283C2.70059 17.7399 3.33783 18.108 4.0367 18.2955C4.56195 18.4357 5.19994 18.4357 6.48419 18.4357H17.4842C18.7629 18.4357 19.4092 18.4357 19.9317 18.2955C20.6306 18.108 21.2678 17.7399 21.7795 17.2283C22.2911 16.7166 22.6592 16.0794 22.8467 15.3805C22.9869 14.8552 22.9869 14.2159 22.9869 12.933C22.9869 11.6542 22.9869 11.0217 22.8467 10.4855C22.6592 9.78663 22.2911 9.14939 21.7795 8.63774C21.2678 8.12609 20.6306 7.75803 19.9317 7.5705C19.4064 7.43025 18.7684 7.43025 17.4842 7.43025H16.4364L18.8152 1.504C18.8524 1.41955 18.8722 1.32848 18.8734 1.23622C18.8746 1.14396 18.8573 1.0524 18.8224 0.966985C18.7875 0.881574 18.7357 0.804062 18.6702 0.739068C18.6047 0.674073 18.5268 0.622927 18.4412 0.588676C18.3555 0.554424 18.2638 0.537769 18.1715 0.539702C18.0793 0.541634 17.9884 0.562116 17.9042 0.599926C17.8201 0.637736 17.7444 0.692101 17.6816 0.759781C17.6189 0.827461 17.5705 0.907072 17.5392 0.993871L14.9679 7.44262H9.02794L6.4567 0.993871H6.4292ZM15.4354 8.81762H6.4732C5.10645 8.81762 4.6857 8.83 4.3832 8.91112C3.43445 9.1655 2.69195 9.90662 2.44445 10.8499C2.36195 11.1551 2.35095 11.569 2.35095 12.9399C2.35095 14.3066 2.36332 14.7274 2.44445 15.0299C2.69882 15.9786 3.43995 16.7211 4.3832 16.9686C4.68845 17.0511 5.10232 17.0621 6.4732 17.0621H17.4732C18.8399 17.0621 19.2607 17.0511 19.5632 16.9686C20.0283 16.8446 20.4525 16.6 20.7929 16.2596C21.1333 15.9192 21.3779 15.495 21.5019 15.0299C21.5844 14.7246 21.5954 14.3107 21.5954 12.9399C21.5954 11.5731 21.5844 11.1524 21.5019 10.8499C21.3779 10.3847 21.1333 9.96054 20.7929 9.62014C20.4525 9.27974 20.0283 9.03517 19.5632 8.91112C19.2579 8.82862 18.8441 8.81762 17.4732 8.81762H15.4244H15.4354Z" fill="#1C2747"/>
</g>
<defs>
<clipPath id="clip0_121_81">
<rect width="22" height="22" fill="white" transform="translate(0.984375 0.560547)"/>
</clipPath>
</defs>
</svg>
