<svg width="20" height="21" viewBox="0 0 20 21" fill="none" xmlns="http://www.w3.org/2000/svg">
<g clip-path="url(#clip0_279_2243)">
<path d="M10 17.375C10.5178 17.375 10.9375 16.9553 10.9375 16.4375C10.9375 15.9197 10.5178 15.5 10 15.5C9.48223 15.5 9.0625 15.9197 9.0625 16.4375C9.0625 16.9553 9.48223 17.375 10 17.375Z" fill="white"/>
<path d="M18.125 7.78022C15.8341 5.90135 12.9628 4.87451 10 4.87451C7.03717 4.87451 4.1659 5.90135 1.875 7.78022" stroke="white" stroke-width="1.42857" stroke-linecap="round" stroke-linejoin="round"/>
<path d="M15.625 10.5781C14.024 9.31068 12.0419 8.62109 10 8.62109C7.95807 8.62109 5.97599 9.31068 4.375 10.5781" stroke="white" stroke-width="1.42857" stroke-linecap="round" stroke-linejoin="round"/>
<path d="M13.125 13.3908C12.2169 12.7303 11.1229 12.3745 10 12.3745C8.8771 12.3745 7.78308 12.7303 6.875 13.3908" stroke="white" stroke-width="1.42857" stroke-linecap="round" stroke-linejoin="round"/>
</g>
<defs>
<clipPath id="clip0_279_2243">
<rect width="20" height="20" fill="white" transform="translate(0 0.5)"/>
</clipPath>
</defs>
</svg>
