<svg width="31" height="33" viewBox="0 0 31 33" fill="none" xmlns="http://www.w3.org/2000/svg">
<ellipse cx="15.5693" cy="16.8327" rx="15" ry="15.948" fill="#0B1734"/>
<g clip-path="url(#clip0_299_876)">
<path d="M15.8618 10.7139C19.1956 10.7139 21.9076 13.5542 21.9886 17.0899C21.9886 17.1801 22.0618 17.2533 22.152 17.2533H22.6714C23.1001 17.2533 23.33 17.7574 23.049 18.0811L21.455 19.9173C21.2538 20.149 20.8933 20.1465 20.6953 19.912L19.1457 18.0758C18.8714 17.7507 19.1024 17.2533 19.5278 17.2533H20.2921C20.3824 17.2533 20.4556 17.1801 20.4556 17.0899C20.3753 14.4561 18.3496 12.3493 15.8618 12.3493C13.3223 12.3493 11.2636 14.5454 11.2636 17.2533C11.2636 19.9613 13.3223 22.1573 15.8618 22.1573C16.6858 22.1578 17.4916 21.9218 18.1957 21.4784C18.4202 21.337 18.7192 21.3619 18.8944 21.5612L19.298 22.0203C19.4836 22.2313 19.4598 22.5557 19.2299 22.7173C18.2338 23.417 17.063 23.7926 15.8618 23.7912C12.4756 23.7912 9.73133 20.8647 9.73133 17.2533C9.73133 13.6419 12.4756 10.7139 15.8618 10.7139Z" fill="white"/>
</g>
<defs>
<clipPath id="clip0_299_876">
<rect width="15" height="15.948" fill="white" transform="matrix(-1 0 0 1 24.249 9.27832)"/>
</clipPath>
</defs>
</svg>
