<svg width="20" height="20" viewBox="0 0 20 20" fill="none" xmlns="http://www.w3.org/2000/svg">
<g clip-path="url(#clip0_301_1239)">
<path d="M9.93803 16.3233C10.4189 16.3233 10.8087 15.9335 10.8087 15.4527C10.8087 14.9718 10.4189 14.582 9.93803 14.582C9.45719 14.582 9.06738 14.9718 9.06738 15.4527C9.06738 15.9335 9.45719 16.3233 9.93803 16.3233Z" fill="white"/>
<path d="M17.4834 7.41239C15.3558 5.66749 12.6893 4.71387 9.93774 4.71387C7.18617 4.71387 4.51964 5.66749 2.39209 7.41239" stroke="white" stroke-width="1.42857" stroke-linecap="round" stroke-linejoin="round"/>
<path d="M15.1617 10.0108C13.6749 8.83377 11.8341 8.19336 9.93778 8.19336C8.04145 8.19336 6.2007 8.83377 4.71387 10.0108" stroke="white" stroke-width="1.42857" stroke-linecap="round" stroke-linejoin="round"/>
<path d="M12.84 12.6226C11.9967 12.0091 10.9806 11.6787 9.93782 11.6787C8.89499 11.6787 7.87897 12.0091 7.03564 12.6226" stroke="white" stroke-width="1.42857" stroke-linecap="round" stroke-linejoin="round"/>
</g>
<defs>
<clipPath id="clip0_301_1239">
<rect x="0.650879" y="0.651367" width="18.5739" height="18.5739" rx="4" fill="white"/>
</clipPath>
</defs>
</svg>
