<svg width="28" height="29" viewBox="0 0 28 29" fill="none" xmlns="http://www.w3.org/2000/svg">
<path d="M0 14.9609C0 11.2479 1.475 7.68695 4.10051 5.06144C6.72601 2.43593 10.287 0.960938 14 0.960938C17.713 0.960938 21.274 2.43593 23.8995 5.06144C26.525 7.68695 28 11.2479 28 14.9609C28 18.674 26.525 22.2349 23.8995 24.8604C21.274 27.4859 17.713 28.9609 14 28.9609C10.287 28.9609 6.72601 27.4859 4.10051 24.8604C1.475 22.2349 0 18.674 0 14.9609ZM13.125 2.84569C11.9525 3.20269 10.7887 4.28069 9.82275 6.09194C9.57192 6.5621 9.3415 7.07077 9.1315 7.61794C10.3652 7.89269 11.7075 8.06769 13.125 8.12019V2.84569ZM7.43575 7.15419C7.68542 6.48102 7.966 5.85219 8.2775 5.26769C8.58208 4.6967 8.93142 4.15074 9.32225 3.63494C7.8322 4.25193 6.47864 5.15707 5.33925 6.29844C5.97392 6.6216 6.67275 6.90569 7.43575 7.15419ZM6.14075 14.0859C6.20375 12.2134 6.46975 10.4337 6.90375 8.82194C5.95603 8.5202 5.03901 8.12937 4.165 7.65469C2.77085 9.52586 1.94355 11.7581 1.7815 14.0859H6.14075ZM8.59075 9.28919C8.17754 10.8566 7.94272 12.4658 7.89075 14.0859H13.125V9.87019C11.5325 9.81769 10.0048 9.61644 8.59075 9.28919ZM14.875 9.86844V14.0859H20.1075C20.0561 12.4658 19.8219 10.8567 19.4092 9.28919C17.9952 9.61644 16.4675 9.81419 14.875 9.86844ZM7.8925 15.8359C7.95375 17.5632 8.2005 19.1854 8.59075 20.6327C10.0801 20.2946 11.5985 20.1006 13.125 20.0534V15.8359H7.8925ZM14.875 15.8359V20.0517C16.4675 20.1042 17.9952 20.3054 19.4092 20.6327C19.7995 19.1854 20.0462 17.5632 20.1093 15.8359H14.875ZM9.1315 22.3039C9.3415 22.8511 9.57192 23.3598 9.82275 23.8299C10.7887 25.6412 11.9543 26.7174 13.125 27.0762V21.8034C11.7075 21.8559 10.3652 22.0292 9.1315 22.3039ZM9.324 26.2869C8.93257 25.7712 8.58264 25.2252 8.2775 24.6542C7.95587 24.0439 7.67468 23.4131 7.43575 22.7659C6.7159 22.9974 6.01499 23.2841 5.33925 23.6234C6.47864 24.7648 7.83395 25.6699 9.324 26.2869ZM6.90375 21.0999C6.45001 19.38 6.19344 17.6139 6.139 15.8359H1.7815C1.94355 18.1637 2.77085 20.396 4.165 22.2672C4.9875 21.8157 5.90625 21.4237 6.90375 21.0999ZM18.6777 26.2869C20.167 25.6703 21.52 24.7657 22.659 23.6252C21.9838 23.2859 21.2835 22.9993 20.5643 22.7677C20.3253 23.4143 20.0441 24.0445 19.7225 24.6542C19.4179 25.2252 19.0686 25.7711 18.6777 26.2869ZM14.875 21.8017V27.0762C16.0475 26.7192 17.2113 25.6412 18.1772 23.8299C18.4293 23.3598 18.6597 22.8511 18.8685 22.3039C17.5554 22.0157 16.2186 21.8464 14.875 21.8017ZM21.0963 21.0999C22.0938 21.4237 23.0125 21.8157 23.835 22.2672C25.2291 20.396 26.0565 18.1637 26.2185 15.8359H21.861C21.8066 17.6139 21.55 19.38 21.0963 21.0999ZM26.2185 14.0859C26.0565 11.7581 25.2291 9.52586 23.835 7.65469C23.0125 8.10619 22.0938 8.49819 21.0963 8.82194C21.5303 10.4319 21.7962 12.2134 21.861 14.0859H26.2185ZM19.7225 5.26769C20.0328 5.85335 20.314 6.48219 20.566 7.15419C21.2847 6.92253 21.9844 6.63585 22.659 6.29669C21.5198 5.15677 20.1669 4.25284 18.6777 3.63669C19.0592 4.13194 19.4093 4.68144 19.7225 5.26769ZM18.8685 7.61794C18.6688 7.09593 18.4379 6.58635 18.1772 6.09194C17.2113 4.28069 16.0475 3.20444 14.875 2.84569V8.11844C16.2925 8.06594 17.6347 7.89269 18.8685 7.61794Z" fill="#0B1734"/>
</svg>
