<svg width="29" height="28" viewBox="0 0 29 28" fill="none" xmlns="http://www.w3.org/2000/svg">
<path d="M0.015625 14C0.015625 10.287 1.49062 6.72601 4.11613 4.10051C6.74164 1.475 10.3026 0 14.0156 0C17.7287 0 21.2896 1.475 23.9151 4.10051C26.5406 6.72601 28.0156 10.287 28.0156 14C28.0156 17.713 26.5406 21.274 23.9151 23.8995C21.2896 26.525 17.7287 28 14.0156 28C10.3026 28 6.74164 26.525 4.11613 23.8995C1.49062 21.274 0.015625 17.713 0.015625 14ZM13.1406 1.88475C11.9681 2.24175 10.8044 3.31975 9.83838 5.131C9.58754 5.60117 9.35713 6.10983 9.14713 6.657C10.3809 6.93175 11.7231 7.10675 13.1406 7.15925V1.88475ZM7.45138 6.19325C7.70104 5.52008 7.98163 4.89125 8.29313 4.30675C8.5977 3.73576 8.94704 3.1898 9.33788 2.674C7.84782 3.29099 6.49427 4.19614 5.35488 5.3375C5.98954 5.66067 6.68837 5.94475 7.45138 6.19325ZM6.15637 13.125C6.21938 11.2525 6.48537 9.47275 6.91937 7.861C5.97165 7.55926 5.05464 7.16844 4.18062 6.69375C2.78648 8.56493 1.95917 10.7972 1.79712 13.125H6.15637ZM8.60637 8.32825C8.19317 9.89571 7.95835 11.5048 7.90637 13.125H13.1406V8.90925C11.5481 8.85675 10.0204 8.6555 8.60637 8.32825ZM14.8906 8.9075V13.125H20.1231C20.0717 11.5049 19.8375 9.89578 19.4249 8.32825C18.0109 8.6555 16.4831 8.85325 14.8906 8.9075ZM7.90813 14.875C7.96938 16.6022 8.21612 18.2245 8.60637 19.6718C10.0957 19.3336 11.6141 19.1397 13.1406 19.0925V14.875H7.90813ZM14.8906 14.875V19.0908C16.4831 19.1433 18.0109 19.3445 19.4249 19.6718C19.8151 18.2245 20.0619 16.6022 20.1249 14.875H14.8906ZM9.14713 21.343C9.35713 21.8902 9.58754 22.3988 9.83838 22.869C10.8044 24.6803 11.9699 25.7565 13.1406 26.1152V20.8425C11.7231 20.895 10.3809 21.0683 9.14713 21.343ZM9.33963 25.326C8.94819 24.8103 8.59826 24.2643 8.29313 23.6932C7.97149 23.0829 7.6903 22.4522 7.45138 21.805C6.73153 22.0365 6.03061 22.3232 5.35488 22.6625C6.49427 23.8039 7.84957 24.709 9.33963 25.326ZM6.91937 20.139C6.46563 18.419 6.20906 16.653 6.15462 14.875H1.79712C1.95917 17.2028 2.78648 19.4351 4.18062 21.3062C5.00313 20.8547 5.92188 20.4628 6.91937 20.139ZM18.6934 25.326C20.1827 24.7093 21.5356 23.8048 22.6746 22.6642C21.9995 22.325 21.2991 22.0383 20.5799 21.8068C20.3409 22.4533 20.0597 23.0835 19.7381 23.6932C19.4335 24.2642 19.0842 24.8102 18.6934 25.326ZM14.8906 20.8408V26.1152C16.0631 25.7583 17.2269 24.6803 18.1929 22.869C18.4449 22.3988 18.6753 21.8902 18.8841 21.343C17.571 21.0548 16.2343 20.8855 14.8906 20.8408ZM21.1119 20.139C22.1094 20.4628 23.0281 20.8547 23.8506 21.3062C25.2448 19.4351 26.0721 17.2028 26.2341 14.875H21.8766C21.8222 16.653 21.5656 18.419 21.1119 20.139ZM26.2341 13.125C26.0721 10.7972 25.2448 8.56493 23.8506 6.69375C23.0281 7.14525 22.1094 7.53725 21.1119 7.861C21.5459 9.471 21.8119 11.2525 21.8766 13.125H26.2341ZM19.7381 4.30675C20.0485 4.89242 20.3296 5.52125 20.5816 6.19325C21.3003 5.96159 22 5.67491 22.6746 5.33575C21.5354 4.19583 20.1825 3.2919 18.6934 2.67575C19.0749 3.171 19.4249 3.7205 19.7381 4.30675ZM18.8841 6.657C18.6844 6.13499 18.4535 5.62541 18.1929 5.131C17.2269 3.31975 16.0631 2.2435 14.8906 1.88475V7.1575C16.3081 7.105 17.6504 6.93175 18.8841 6.657Z" fill="white"/>
</svg>
