<svg width="22" height="21" viewBox="0 0 22 21" fill="none" xmlns="http://www.w3.org/2000/svg">
<path d="M11.0434 20.9573C5.41989 21.0076 0.539475 16.3046 0.700147 10.3054C0.830693 4.9392 5.31947 0.105629 11.3647 0.256364C16.7071 0.387001 21.5674 4.86886 21.3967 10.9385C21.2561 16.3448 16.7673 20.9875 11.0434 20.9573ZM6.0927 15.0284C6.10274 14.9581 6.11278 14.9279 6.11278 14.9078C5.83161 13.712 5.70106 12.5061 5.64081 11.2902C5.64081 11.2399 5.53035 11.1495 5.4701 11.1495C4.30522 11.1495 3.14035 11.1495 1.97548 11.1495C1.82485 11.1495 1.78468 11.2098 1.80477 11.3505C1.91523 12.3855 2.15624 13.3904 2.56796 14.3551C2.85918 15.0384 2.85918 15.0485 3.60228 15.0485C3.98388 15.0485 4.37552 15.0485 4.75711 15.0485C5.19896 15.0485 5.64081 15.0485 6.10274 15.0485L6.0927 15.0284ZM15.974 15.0284C16.9983 15.0284 17.9724 15.0284 18.9465 15.0284C19.1373 15.0284 19.2377 14.9681 19.318 14.7973C19.8502 13.722 20.1615 12.5965 20.2921 11.4108C20.3122 11.1796 20.272 11.1294 20.0511 11.1294C18.9364 11.1394 17.8218 11.1394 16.7071 11.1294C16.4962 11.1294 16.4661 11.1997 16.446 11.3907C16.3657 12.285 16.2652 13.1693 16.1548 14.0637C16.1146 14.3752 16.0443 14.6767 15.974 15.0284ZM6.11278 6.18528C5.05837 6.18528 4.04413 6.18528 3.02989 6.18528C2.9596 6.18528 2.84913 6.28577 2.81901 6.36616C2.62821 6.78822 2.42737 7.22032 2.2667 7.65243C1.99557 8.41616 1.85498 9.21003 1.79473 10.034C1.87506 10.034 1.93531 10.0541 2.00561 10.0541C3.15039 10.0541 4.30522 10.0541 5.45001 10.0642C5.63077 10.0642 5.65085 9.9838 5.66089 9.83307C5.73119 9.03919 5.81152 8.25537 5.91194 7.47155C5.96215 7.04949 6.05253 6.63748 6.12283 6.18528H6.11278ZM16.0042 6.18528C16.0042 6.26567 15.9941 6.32596 16.0042 6.38626C16.2753 7.53184 16.3958 8.68748 16.446 9.86321C16.446 10.0642 16.5464 10.0843 16.697 10.0843C17.7615 10.0843 18.826 10.0843 19.8904 10.0843C20.3021 10.0843 20.3021 10.0843 20.262 9.68233C20.1515 8.53674 19.8201 7.45145 19.318 6.4164C19.2377 6.25562 19.1473 6.19533 18.9665 6.19533C18.1029 6.19533 17.2293 6.19533 16.3657 6.19533C16.2452 6.19533 16.1247 6.19533 16.0042 6.19533V6.18528ZM11.5756 13.0789C11.5756 13.6316 11.5857 14.1943 11.5756 14.747C11.5756 14.9782 11.6459 15.0284 11.8468 15.0284C12.7807 15.0284 13.7146 15.0284 14.6485 15.0284C14.8393 15.0284 14.8794 14.9179 14.9096 14.7772C15 14.2647 15.1104 13.7622 15.1807 13.2497C15.261 12.6066 15.3113 11.9635 15.3715 11.3103C15.3815 11.1796 15.3414 11.1294 15.2008 11.1294C14.0761 11.1294 12.9514 11.1294 11.8267 11.1294C11.6359 11.1294 11.5656 11.1897 11.5756 11.3806C11.5857 11.9434 11.5756 12.5161 11.5756 13.0789ZM11.5857 8.12473C11.5857 8.65733 11.5857 9.18993 11.5857 9.72253C11.5857 10.0642 11.5857 10.0742 11.9171 10.0742C13.0016 10.0742 14.0962 10.0742 15.1807 10.0742C15.3514 10.0742 15.3916 10.0039 15.3715 9.85316C15.3514 9.67228 15.3514 9.4914 15.3213 9.31052C15.1807 8.33576 15.0401 7.36101 14.8995 6.38626C14.8794 6.25562 14.8092 6.17523 14.6384 6.17523C13.7146 6.18528 12.7907 6.18528 11.8568 6.17523C11.656 6.17523 11.5656 6.21542 11.5756 6.44655C11.5957 6.99925 11.5756 7.56199 11.5756 8.11469L11.5857 8.12473ZM10.5112 13.109C10.5112 12.5362 10.5112 11.9635 10.5112 11.3907C10.5112 11.1595 10.4208 11.1294 10.22 11.1294C9.12538 11.1294 8.03081 11.1394 6.93623 11.1294C6.74543 11.1294 6.72535 11.1997 6.73539 11.3605C6.79564 12.5262 6.93623 13.6818 7.19732 14.8274C7.22745 14.9681 7.29774 15.0385 7.46845 15.0385C8.40236 15.0385 9.33627 15.0385 10.2702 15.0385C10.4509 15.0385 10.5313 14.9882 10.5212 14.7872C10.5112 14.2345 10.5212 13.6718 10.5212 13.1191L10.5112 13.109ZM10.5112 8.11469C10.5112 7.56199 10.5112 6.99925 10.5112 6.44655C10.5112 6.21542 10.4208 6.18528 10.22 6.18528C9.31618 6.18528 8.42244 6.19533 7.51866 6.18528C7.30778 6.18528 7.20736 6.24557 7.17724 6.4566C7.0969 6.95905 6.9764 7.4615 6.91614 7.96395C6.83581 8.60709 6.7856 9.25022 6.72535 9.89336C6.7153 10.024 6.76551 10.0742 6.9061 10.0742C8.03081 10.0742 9.15551 10.0742 10.2702 10.0742C10.4409 10.0742 10.5112 10.0139 10.5112 9.83307C10.5112 9.26027 10.5112 8.68748 10.5112 8.11469ZM11.6158 1.4321C11.5957 1.49239 11.5857 1.50244 11.5857 1.52254C11.5857 2.65808 11.5857 3.78356 11.5857 4.9191C11.5857 5.11003 11.6761 5.09998 11.8066 5.09998C12.4995 5.09998 13.1924 5.09998 13.8853 5.09998C14.0861 5.09998 14.287 5.09998 14.5179 5.09998C14.0761 3.8941 13.5338 2.78871 12.5698 1.95465C12.2987 1.71347 11.9974 1.51249 11.6158 1.4321ZM11.5857 19.7514C12.7003 19.6208 14.046 17.7014 14.4778 16.1338H11.5857V19.7514ZM7.58896 5.07989H10.5011V1.38185C8.85425 2.12548 8.20152 3.57254 7.58896 5.07989ZM7.58896 16.1237C7.62913 16.2443 7.66929 16.3348 7.70946 16.4252C8.13123 17.4804 8.64337 18.4752 9.51702 19.2289C9.7982 19.4701 10.0995 19.6811 10.5011 19.7816V16.1137H7.58896V16.1237ZM3.59224 5.09998C3.71275 5.09998 3.773 5.09998 3.84329 5.09998C4.62657 5.09998 5.41989 5.09998 6.20316 5.09998C6.39396 5.09998 6.46425 5.03969 6.52451 4.86886C6.79564 4.07499 7.12703 3.30121 7.58896 2.59778C7.74963 2.34656 7.92034 2.10538 8.12118 1.81396C6.26341 2.4571 4.78724 3.54239 3.59224 5.11003V5.09998ZM3.5822 16.1137C4.79728 17.6713 6.25337 18.7767 8.1011 19.3997C7.86009 19.0279 7.61908 18.7164 7.44837 18.3747C7.11698 17.7115 6.82577 17.0181 6.51446 16.3448C6.4743 16.2544 6.38392 16.1338 6.32367 16.1338C5.42993 16.1237 4.54623 16.1338 3.5822 16.1338V16.1137ZM13.9857 1.8642C14.056 1.9446 14.1263 2.03504 14.1866 2.11543C14.7991 2.9495 15.241 3.88405 15.5723 4.85881C15.6326 5.02964 15.6929 5.11003 15.8937 5.09998C16.3857 5.07989 16.8678 5.09998 17.3598 5.09998C17.7213 5.09998 18.0929 5.09998 18.5147 5.09998C17.3096 3.53234 15.8435 2.44705 13.9958 1.8642H13.9857ZM14.0058 19.3696C15.8334 18.7666 17.3096 17.6813 18.4946 16.1338C18.4243 16.1237 18.3941 16.1137 18.364 16.1137C17.5406 16.1137 16.7171 16.1237 15.8937 16.1137C15.7029 16.1137 15.6326 16.174 15.5723 16.3448C15.2108 17.4301 14.7188 18.4551 14.0058 19.3696Z" fill="#1B2746"/>
</svg>
